<?xml version="1.0" standalone="no"?>
<!DOCTYPE svg PUBLIC "-//W3C//DTD SVG 1.1//EN" "http://www.w3.org/Graphics/SVG/1.1/DTD/svg11.dtd" >
<svg>
<metadata>
Created by FontForge 20090914 at Wed Sep 30 13:58:19 2015
 By www-data
&#194;&#169; 2009, 2010, 2011, 2012 GrandChaos9000. Some Rights Reserved. (Under licensed of Creative Commons CC-BY-NC-SA 3.0)
</metadata>
<defs>
<font id="AeroMaticsBold" horiz-adv-x="1100" >
  <font-face 
    font-family="Aero Matics"
    font-weight="700"
    font-stretch="normal"
    units-per-em="2048"
    panose-1="2 11 8 3 6 1 1 1 1 1"
    ascent="1638"
    descent="-410"
    x-height="1000"
    cap-height="1400"
    bbox="-148 -446 2600 1910"
    underline-thickness="150"
    underline-position="-142"
    unicode-range="U+0020-U+2122"
  />
<missing-glyph horiz-adv-x="1000" 
d="M100 1400h800v-1400h-800v1400zM200 1300v-1200h600v1200h-600z" />
    <glyph glyph-name=".notdef" horiz-adv-x="1000" 
d="M100 1400h800v-1400h-800v1400zM200 1300v-1200h600v1200h-600z" />
    <glyph glyph-name="space" unicode=" " horiz-adv-x="400" 
 />
    <glyph glyph-name="exclam" unicode="!" horiz-adv-x="500" 
d="M100 400v1000h300v-1000h-300zM100 0v300h300v-300h-300z" />
    <glyph glyph-name="quotedbl" unicode="&#x22;" horiz-adv-x="1000" 
d="M500 1400l-100 -300h-300l100 300h300zM900 1400l-100 -300h-300l100 300h300z" />
    <glyph glyph-name="numbersign" unicode="#" horiz-adv-x="1500" 
d="M465 1050l105 350h300l-105 -350h200l105 350h300l-105 -350h135v-250h-215l-60 -200h175v-250h-245l-105 -350h-300l105 350h-200l-105 -350h-300l105 350h-155v250h235l60 200h-195v250h265zM635 600h190l60 200h-190z" />
    <glyph glyph-name="dollar" unicode="$" horiz-adv-x="1200" 
d="M700 0v-200h-200v200h-400v300h400v250c-266.667 0 -400 140 -400 420c0 286.667 133.333 430 400 430v200h200v-200h400v-300h-400v-250c266.667 0 400 -143.333 400 -430c0 -280 -133.333 -420 -400 -420zM400 970c0 -80 33.333 -120 100 -120v250
c-66.667 0 -100 -43.333 -100 -130zM700 550v-250c66.667 0 100 40 100 120c0 86.667 -33.333 130 -100 130z" />
    <glyph glyph-name="percent" unicode="%" horiz-adv-x="1900" 
d="M400 600c-200 0 -300 100 -300 300v200c0 200 100 300 300 300h100c200 0 300 -100 300 -300v-200c0 -200 -100 -300 -300 -300h-100zM375 920c0 -53.333 26.667 -80 80 -80c46.667 0 70 26.667 70 80v160c0 53.333 -23.333 80 -70 80c-53.333 0 -80 -26.667 -80 -80
v-160zM500 0l590 1400h310l-590 -1400h-310zM1400 0c-200 0 -300 100 -300 300v200c0 200 100 300 300 300h100c200 0 300 -100 300 -300v-200c0 -200 -100 -300 -300 -300h-100zM1375 320c0 -53.333 26.667 -80 80 -80c46.667 0 70 26.667 70 80v160
c0 53.333 -23.333 80 -70 80c-53.333 0 -80 -26.667 -80 -80v-160z" />
    <glyph glyph-name="ampersand" unicode="&#x26;" horiz-adv-x="1300" 
d="M500 0c-266.667 0 -400 133.333 -400 400c0 180 56.667 280 170 300c-113.333 20 -170 120 -170 300c0 266.667 133.333 400 400 400h500v-300h-500c-66.667 0 -100 -33.333 -100 -100v-50c0 -66.667 33.333 -100 100 -100h300v100h300v-100h100v-300h-100v-550h-600z
M400 400c0 -66.667 33.333 -100 100 -100h300v250h-300c-66.667 0 -100 -33.333 -100 -100v-50z" />
    <glyph glyph-name="quotesingle" unicode="'" horiz-adv-x="600" 
d="M500 1400l-100 -300h-300l100 300h300z" />
    <glyph glyph-name="parenleft" unicode="(" horiz-adv-x="800" 
d="M380 -200c-186.667 266.667 -280 566.667 -280 900s93.333 633.333 280 900h320c-200 -266.667 -300 -566.667 -300 -900s100 -633.333 300 -900h-320z" />
    <glyph glyph-name="parenright" unicode=")" horiz-adv-x="800" 
d="M100 -200c200 266.667 300 566.667 300 900s-100 633.333 -300 900h320c186.667 -266.667 280 -566.667 280 -900s-93.333 -633.333 -280 -900h-320z" />
    <glyph glyph-name="asterisk" unicode="*" horiz-adv-x="762" 
d="M166 926l87 159l-153 36l32 120l169 -10v169h160l-10 -169l179 10l32 -120l-154 -36l88 -159l-109 -69l-106 135l-106 -135z" />
    <glyph glyph-name="plus" unicode="+" horiz-adv-x="1000" 
d="M350 850v250h300v-250h250v-300h-250v-250h-300v250h-250v300h250z" />
    <glyph glyph-name="comma" unicode="," horiz-adv-x="600" 
d="M500 200l-100 -300h-300l100 300h300z" />
    <glyph glyph-name="hyphen" unicode="-" horiz-adv-x="800" 
d="M700 850v-300h-600v300h600z" />
    <glyph glyph-name="period" unicode="." horiz-adv-x="500" 
d="M100 0v300h300v-300h-300z" />
    <glyph glyph-name="slash" unicode="/" horiz-adv-x="1020" 
d="M400 -200h-300l520 1800h300z" />
    <glyph glyph-name="zero" unicode="0" horiz-adv-x="1150" 
d="M1050 400c0 -266.667 -133.333 -400 -400 -400h-150c-266.667 -0 -400 133.333 -400 400v600c0 266.667 133.333 400 400 400h150c266.667 0 400 -133.333 400 -400v-600zM750 690l-350 -290c0 -66.667 33.333 -100 100 -100h150c66.667 0 100 33.333 100 100v290z
M400 710l350 290c0 66.667 -33.333 100 -100 100h-150c-66.667 0 -100 -33.333 -100 -100v-290z" />
    <glyph glyph-name="one" unicode="1" horiz-adv-x="700" 
d="M300 1100h-200v300h500v-1400h-300v1100z" />
    <glyph glyph-name="two" unicode="2" horiz-adv-x="1150" 
d="M100 0v450c0 266.667 133.333 400 400 400h150c66.667 0 100 33.333 100 100v50c0 66.667 -33.333 100 -100 100h-550v300h550c266.667 0 400 -133.333 400 -400v-50c0 -266.667 -133.333 -400 -400 -400h-150c-66.667 0 -100 -33.333 -100 -100v-150h650v-300h-950z" />
    <glyph glyph-name="three" unicode="3" 
d="M100 850h500c66.667 0 100 33.333 100 100v50c0 66.667 -33.333 100 -100 100h-500v300h500c266.667 0 400 -133.333 400 -400c0 -180 -56.667 -280 -170 -300c113.333 -20 170 -120 170 -300c0 -266.667 -133.333 -400 -400 -400h-500v300h500
c66.667 0 100 33.333 100 100v50c0 66.667 -33.333 100 -100 100h-500v300z" />
    <glyph glyph-name="four" unicode="4" horiz-adv-x="1200" 
d="M290 1400h310l-190 -700h390v700h300v-1400h-300v400h-700v300z" />
    <glyph glyph-name="five" unicode="5" horiz-adv-x="1150" 
d="M100 0v300h550c66.667 0 100 33.333 100 100v50c0 66.667 -33.333 100 -100 100h-550v850h950v-300h-650v-250h250c266.667 0 400 -133.333 400 -400v-50c0 -266.667 -133.333 -400 -400 -400h-550z" />
    <glyph glyph-name="six" unicode="6" horiz-adv-x="1200" 
d="M400 850h300c266.667 0 400 -133.333 400 -400v-50c0 -266.667 -133.333 -400 -400 -400h-200c-266.667 -0 -400 133.333 -400 400v500c0 333.333 166.667 500 500 500h400v-300h-400c-133.333 0 -200 -66.667 -200 -200v-50zM400 550v-150
c0 -66.667 33.333 -100 100 -100h200c66.667 0 100 33.333 100 100v50c0 66.667 -33.333 100 -100 100h-300z" />
    <glyph glyph-name="seven" unicode="7" horiz-adv-x="1200" 
d="M1100 1400v-300l-460 -1100h-340l460 1100h-660v300h1000z" />
    <glyph glyph-name="eight" unicode="8" horiz-adv-x="1200" 
d="M100 1000c0 266.667 133.333 400 400 400h200c266.667 0 400 -133.333 400 -400c0 -180 -56.667 -280 -170 -300c113.333 -20 170 -120 170 -300c0 -266.667 -133.333 -400 -400 -400h-200c-266.667 -0 -400 133.333 -400 400c0 180 56.667 280 170 300
c-113.333 20 -170 120 -170 300zM700 850c66.667 0 100 33.333 100 100v50c0 66.667 -33.333 100 -100 100h-200c-66.667 0 -100 -33.333 -100 -100v-50c0 -66.667 33.333 -100 100 -100h200zM500 550c-66.667 0 -100 -33.333 -100 -100v-50c0 -66.667 33.333 -100 100 -100
h200c66.667 0 100 33.333 100 100v50c0 66.667 -33.333 100 -100 100h-200z" />
    <glyph glyph-name="nine" unicode="9" horiz-adv-x="1200" 
d="M800 550h-300c-266.667 0 -400 133.333 -400 400v50c0 266.667 133.333 400 400 400h200c266.667 0 400 -133.333 400 -400v-500c0 -333.333 -166.667 -500 -500 -500h-400v300h400c133.333 0 200 66.667 200 200v50zM800 850v150c0 66.667 -33.333 100 -100 100h-200
c-66.667 0 -100 -33.333 -100 -100v-50c0 -66.667 33.333 -100 100 -100h300z" />
    <glyph glyph-name="colon" unicode=":" horiz-adv-x="500" 
d="M100 0v300h300v-300h-300zM100 700v300h300v-300h-300z" />
    <glyph glyph-name="semicolon" unicode=";" horiz-adv-x="600" 
d="M200 700v300h300v-300h-300zM500 200l-100 -300h-300l100 300h300z" />
    <glyph glyph-name="less" unicode="&#x3c;" horiz-adv-x="1000" 
d="M100 600v200l800 400v-300l-450 -200l450 -200v-300z" />
    <glyph glyph-name="equal" unicode="=" horiz-adv-x="800" 
d="M700 1100v-300h-600v300h600zM700 600v-300h-600v300h600z" />
    <glyph glyph-name="greater" unicode="&#x3e;" horiz-adv-x="1000" 
d="M100 200v300l450 200l-450 200v300l800 -400v-200z" />
    <glyph glyph-name="question" unicode="?" 
d="M300 400v400h300c66.667 0 100 33.333 100 100v100c0 66.667 -33.333 100 -100 100h-500v300h500c266.667 0 400 -133.333 400 -400v-100c0 -266.667 -133.333 -400 -400 -400v-100h-300zM600 300v-300h-300v300h300z" />
    <glyph glyph-name="at" unicode="@" horiz-adv-x="1500" 
d="M1150 300c-134.667 0 -214.333 38.333 -239 115c-40.667 -76.667 -111 -115 -211 -115c-200 0 -300 100 -300 300v200c0 200 100 300 300 300c100 0 166.667 -33.333 200 -100v100h200v-500c0 -66.667 16.667 -100 50 -100s50 33.333 50 100v300c0 200 -100 300 -300 300
h-300c-200 0 -300 -100 -300 -300v-400c0 -200 100 -300 300 -300h600v-200h-600c-333.333 0 -500 166.667 -500 500v400c0 333.333 166.667 500 500 500h300c333.333 0 500 -166.667 500 -500v-300c0 -200 -83.333 -300 -250 -300zM700.001 500
c100 0 166.667 33.333 200 100v200c-33.333 66.667 -100 100 -200 100c-66.667 0 -100 -33.333 -100 -100v-200c0 -66.667 33.333 -100 100 -100z" />
    <glyph glyph-name="A" unicode="A" horiz-adv-x="1300" 
d="M1300 0h-300l-93 300h-514l-93 -300h-300l420 1400h460zM484 600h332l-166 500z" />
    <glyph glyph-name="B" unicode="B" horiz-adv-x="1200" 
d="M700 1400c266.667 0 400 -133.333 400 -400c0 -180 -56.667 -280 -170 -300c113.333 -20 170 -120 170 -300c0 -266.667 -133.333 -400 -400 -400h-600v1400h600zM400 1100v-250h300c66.667 0 100 33.333 100 100v50c0 66.667 -33.333 100 -100 100h-300zM400 550v-250
h300c66.667 0 100 33.333 100 100v50c0 66.667 -33.333 100 -100 100h-300z" />
    <glyph glyph-name="C" unicode="C" 
d="M400 400c0 -66.667 33.333 -100 100 -100h500v-300h-500c-266.667 -0 -400 133.333 -400 400v600c0 266.667 133.333 400 400 400h500v-300h-500c-66.667 0 -100 -33.333 -100 -100v-600z" />
    <glyph glyph-name="D" unicode="D" horiz-adv-x="1200" 
d="M700 1400c266.667 0 400 -133.333 400 -400v-600c0 -266.667 -133.333 -400 -400 -400h-600v1400h600zM800 1000c0 66.667 -33.333 100 -100 100h-300v-800h300c66.667 0 100 33.333 100 100v600z" />
    <glyph glyph-name="E" unicode="E" 
d="M1000 850v-300h-600v-250h600v-300h-900v1400h900v-300h-600v-250h600z" />
    <glyph glyph-name="F" unicode="F" 
d="M1000 850v-300h-600v-550h-300v1400h900v-300h-600v-250h600z" />
    <glyph glyph-name="G" unicode="G" horiz-adv-x="1200" 
d="M400 400c0 -66.667 33.333 -100 100 -100h200c66.667 0 100 33.333 100 100v150h-200v300h500v-450c0 -266.667 -133.333 -400 -400 -400h-200c-266.667 -0 -400 133.333 -400 400v600c0 266.667 133.333 400 400 400h600v-300h-600c-66.667 0 -100 -33.333 -100 -100
v-600z" />
    <glyph glyph-name="H" unicode="H" horiz-adv-x="1200" 
d="M400 1400v-550h400v550h300v-1400h-300v550h-400v-550h-300v1400h300z" />
    <glyph glyph-name="I" unicode="I" horiz-adv-x="500" 
d="M400 1400v-1400h-300v1400h300z" />
    <glyph glyph-name="J" unicode="J" horiz-adv-x="800" 
d="M400 1400h300v-1000c0 -266.667 -133.333 -400 -400 -400h-200v300h200c66.667 0 100 33.333 100 100v1000z" />
    <glyph glyph-name="K" unicode="K" horiz-adv-x="1150" 
d="M100 0v1400h300v-650l380 650h320l-420 -700l420 -700h-320l-380 650v-650h-300z" />
    <glyph glyph-name="L" unicode="L" 
d="M400 300h600v-300h-900v1400h300v-1100z" />
    <glyph glyph-name="M" unicode="M" horiz-adv-x="1700" 
d="M100 1400h420l330 -850l330 850h420v-1400h-300v850l-320 -850h-260l-320 850v-850h-300v1400z" />
    <glyph glyph-name="N" unicode="N" horiz-adv-x="1300" 
d="M400 1400l500 -850v850h300v-1400h-300l-500 850v-850h-300v1400h300z" />
    <glyph glyph-name="O" unicode="O" horiz-adv-x="1250" 
d="M1150 400c0 -266.667 -133.333 -400 -400 -400h-250c-266.667 -0 -400 133.333 -400 400v600c0 266.667 133.333 400 400 400h250c266.667 0 400 -133.333 400 -400v-600zM400 400c0 -66.667 33.333 -100 100 -100h250c66.667 0 100 33.333 100 100v600
c0 66.667 -33.333 100 -100 100h-250c-66.667 0 -100 -33.333 -100 -100v-600z" />
    <glyph glyph-name="P" unicode="P" horiz-adv-x="1200" 
d="M400 500v-500h-300v1400h600c266.667 0 400 -133.333 400 -400v-100c0 -266.667 -133.333 -400 -400 -400h-300zM400 1100v-300h300c66.667 0 100 33.333 100 100v100c0 66.667 -33.333 100 -100 100h-300z" />
    <glyph glyph-name="Q" unicode="Q" horiz-adv-x="1250" 
d="M690 0h-190c-266.667 -0 -400 133.333 -400 400v600c0 266.667 133.333 400 400 400h250c266.667 0 400 -133.333 400 -400v-600c0 -200 -83.333 -333.333 -250 -400l70 -200h-200zM710 500l70 -199.999c46.667 13.333 70 46.666 70 99.999v600
c0 66.667 -33.333 100 -100 100h-250c-66.667 0 -100 -33.333 -100 -100v-600c0 -66.667 33.333 -100 100 -100h80l-70 200h200z" />
    <glyph glyph-name="R" unicode="R" horiz-adv-x="1200" 
d="M600 500l-200 -0.000976562v-500h-300v1400h600c266.667 0 400 -133.333 400 -400v-100c0 -163.333 -61.333 -278.666 -184 -345.999l184 -554h-300zM400 1100v-300h300c66.667 0 100 33.333 100 100v100c0 66.667 -33.333 100 -100 100h-300z" />
    <glyph glyph-name="S" unicode="S" horiz-adv-x="1200" 
d="M100 0v300h600c66.667 0 100 33.333 100 100v50c0 66.667 -33.333 100 -100 100h-200c-266.667 0 -400 133.333 -400 400v50c0 266.667 133.333 400 400 400h600v-300h-600c-66.667 0 -100 -33.333 -100 -100v-50c0 -66.667 33.333 -100 100 -100h200
c266.667 0 400 -133.333 400 -400v-50c0 -266.667 -133.333 -400 -400 -400h-600z" />
    <glyph glyph-name="T" unicode="T" horiz-adv-x="1200" 
d="M1100 1400v-300h-350v-1100h-300v1100h-350v300h1000z" />
    <glyph glyph-name="U" unicode="U" horiz-adv-x="1200" 
d="M400 1400v-1000c0 -66.667 33.333 -100 100 -100h200c66.667 0 100 33.333 100 100v1000h300v-1000c0 -266.667 -133.333 -400 -400 -400h-200c-266.667 -0 -400 133.333 -400 400v1000h300z" />
    <glyph glyph-name="V" unicode="V" horiz-adv-x="1200" 
d="M900 1400h300l-370 -1400h-460l-370 1400h300l300 -1100z" />
    <glyph glyph-name="W" unicode="W" horiz-adv-x="1800" 
d="M1530 0h-460l-170 881l-170 -881h-460l-270 1400h300l200 -1000l200 1000h400l200 -1000l200 1000h300z" />
    <glyph glyph-name="X" unicode="X" horiz-adv-x="1400" 
d="M100 0l365 700l-365 700h330l270 -496l270 496h330l-365 -700l365 -700h-330l-270 495l-270 -495h-330z" />
    <glyph glyph-name="Y" unicode="Y" horiz-adv-x="1200" 
d="M310 1400l290 -500l290 500h310l-450 -800v-600h-300v600l-450 800h310z" />
    <glyph glyph-name="Z" unicode="Z" horiz-adv-x="1200" 
d="M1100 1400v-300l-630 -800h630v-300h-1000v300l630 800h-630v300h1000z" />
    <glyph glyph-name="bracketleft" unicode="[" horiz-adv-x="700" 
d="M600 1300h-200v-1200h200v-300h-500v1800h500v-300z" />
    <glyph glyph-name="backslash" unicode="\" horiz-adv-x="1020" 
d="M100 1600h300l520 -1800h-300z" />
    <glyph glyph-name="bracketright" unicode="]" horiz-adv-x="700" 
d="M100 1600h500v-1800h-500v300h200v1200h-200v300z" />
    <glyph glyph-name="asciicircum" unicode="^" horiz-adv-x="1200" 
d="M450 1400h300l350 -700h-300l-200 450l-200 -450h-300z" />
    <glyph glyph-name="underscore" unicode="_" horiz-adv-x="800" 
d="M800 -200v-200h-800v200h800z" />
    <glyph glyph-name="grave" unicode="`" horiz-adv-x="600" 
d="M190 1100l-90 300h310l90 -300h-310z" />
    <glyph glyph-name="a" unicode="a" 
d="M500 720h-300v280h300c333.333 0 500 -153.333 500 -460v-540h-270l-30 80c-33.333 -53.333 -100 -80 -200 -80h-100c-200 -0 -300 103.333 -300 310s100 310 300 310h100c100 0 166.667 -26.667 200 -80c0 120 -66.667 180 -200 180zM500 240
c100 0 166.667 16.667 200 50v60c-33.333 33.333 -100 50 -200 50c-66.667 0 -100 -26.667 -100 -80s33.333 -80 100 -80z" />
    <glyph glyph-name="b" unicode="b" 
d="M400 920c33.333 53.333 100 80 200 80c266.667 0 400 -133.333 400 -400v-200c0 -266.667 -133.333 -400 -400 -400c-100 0 -166.667 26.667 -200 80l-30 -80h-270v1400h300v-480zM600 300c66.667 0 100 33.333 100 100v200c0 66.667 -33.333 100 -100 100
c-100 0 -166.667 -16.667 -200 -50v-300c33.333 -33.333 100 -50 200 -50z" />
    <glyph glyph-name="c" unicode="c" horiz-adv-x="1000" 
d="M400 400c0 -66.667 33.333 -100 100 -100h400v-300h-400c-266.667 -0 -400 133.333 -400 400v200c0 266.667 133.333 400 400 400h400v-300h-400c-66.667 0 -100 -33.333 -100 -100v-200z" />
    <glyph glyph-name="d" unicode="d" 
d="M700 1400h300v-1400h-270l-30 80c-33.333 -53.333 -100 -80 -200 -80c-266.667 -0 -400 133.333 -400 400v200c0 266.667 133.333 400 400 400c100 0 166.667 -26.667 200 -80v480zM500 300c100 0 166.667 16.667 200 50v300c-33.333 33.333 -100 50 -200 50
c-66.667 0 -100 -33.333 -100 -100v-200c0 -66.667 33.333 -100 100 -100z" />
    <glyph glyph-name="e" unicode="e" 
d="M400 380v-30c0 -66.667 33.333 -100 100 -100h450v-250h-450c-266.667 -0 -400 133.333 -400 400v200c0 266.667 133.333 400 400 400h100c266.667 0 400 -133.333 400 -400v-220h-600zM400 640v-40h300v40c0 66.667 -33.333 100 -100 100h-100
c-66.667 0 -100 -33.333 -100 -100z" />
    <glyph glyph-name="f" unicode="f" horiz-adv-x="900" 
d="M550 1000h250v-300h-250v-700h-300v700h-150v300h150c0 266.667 133.333 400 400 400h150v-300h-150c-66.667 0 -100 -33.333 -100 -100z" />
    <glyph glyph-name="g" unicode="g" 
d="M700 80c-40 -53.333 -106.667 -80 -200 -80c-266.667 -0 -400 133.333 -400 400v200c0 266.667 133.333 400 400 400c93.333 0 160 -26.667 200 -80l30 80h270v-900c0 -333.333 -166.667 -500 -500 -500h-300v300h300c133.333 0 200 66.667 200 200v-20zM500 700
c-66.667 0 -100 -33.333 -100 -100v-200c0 -66.667 33.333 -100 100 -100c93.333 0 160 16.667 200 50v300c-40 33.333 -106.667 50 -200 50z" />
    <glyph glyph-name="h" unicode="h" 
d="M400 0h-300v1400h300v-480c33.333 53.333 100 80 200 80c266.667 0 400 -133.333 400 -400v-600h-300v600c0 66.667 -33.333 100 -100 100c-100 0 -166.667 -16.667 -200 -50v-650z" />
    <glyph glyph-name="i" unicode="i" horiz-adv-x="500" 
d="M400 1000v-1000h-300v1000h300zM400 1400v-300h-300v300h300z" />
    <glyph glyph-name="j" unicode="j" horiz-adv-x="500" 
d="M-100 -400v300h100c66.667 0 100 33.333 100 100v1000h300v-1000c0 -266.667 -133.333 -400 -400 -400h-100zM400 1400v-300h-300v300h300z" />
    <glyph glyph-name="k" unicode="k" 
d="M400 1400v-850l270 450h330l-310 -500l310 -500h-330l-270 450v-450h-300v1400h300z" />
    <glyph glyph-name="l" unicode="l" horiz-adv-x="500" 
d="M400 1400v-1400h-300v1400h300z" />
    <glyph glyph-name="m" unicode="m" horiz-adv-x="1700" 
d="M370 1000l30 -100c33.333 66.667 100 100 200 100c115.333 0 200.666 -43.333 255.999 -130c78.667 86.667 193.334 130 344.001 130c266.667 0 400 -116.667 400 -350v-650h-300v600c0 66.667 -50 100 -150 100s-150 -33.333 -150 -100v-600h-300v610
c0 60 -43.333 90 -130 90c-80 0 -136.667 -33.333 -170 -100v-600h-300v1000h270z" />
    <glyph glyph-name="n" unicode="n" 
d="M400 0h-300v1000h270l30 -80c33.333 53.333 100 80 200 80c266.667 0 400 -133.333 400 -400v-600h-300v600c0 66.667 -33.333 100 -100 100c-100 0 -166.667 -16.667 -200 -50v-650z" />
    <glyph glyph-name="o" unicode="o" 
d="M1000 400c0 -266.667 -133.333 -400 -400 -400h-100c-266.667 -0 -400 133.333 -400 400v200c0 266.667 133.333 400 400 400h100c266.667 0 400 -133.333 400 -400v-200zM400 400c0 -66.667 33.333 -100 100 -100h100c66.667 0 100 33.333 100 100v200
c0 60 -33.333 90 -100 90h-100c-66.667 0 -100 -30 -100 -90v-200z" />
    <glyph glyph-name="p" unicode="p" 
d="M400 -400h-300v1400h270l30 -80c33.333 53.333 100 80 200 80c266.667 0 400 -133.333 400 -400v-200c0 -266.667 -133.333 -400 -400 -400c-100 0 -166.667 26.667 -200 80v-480zM600 700c-100 0 -166.667 -16.667 -200 -50v-300c33.333 -33.333 100 -50 200 -50
c66.667 0 100 33.333 100 100v200c0 66.667 -33.333 100 -100 100z" />
    <glyph glyph-name="q" unicode="q" 
d="M700 80c-33.333 -53.333 -100 -80 -200 -80c-266.667 -0 -400 133.333 -400 400v200c0 266.667 133.333 400 400 400c100 0 166.667 -26.667 200 -80l30 80h270v-1400h-300v480zM500 700c-66.667 0 -100 -33.333 -100 -100v-200c0 -66.667 33.333 -100 100 -100
c100 0 166.667 16.667 200 50v300c-33.333 33.333 -100 50 -200 50z" />
    <glyph glyph-name="r" unicode="r" horiz-adv-x="750" 
d="M400 0h-300v1000h270l30 -80c33.333 53.333 100 80 200 80h100v-300h-100c-100 0 -166.667 -16.667 -200 -50v-650z" />
    <glyph glyph-name="s" unicode="s" horiz-adv-x="1050" 
d="M100 0v250h480c46.667 0 70 20 70 60c0 46.667 -23.333 70 -70 70h-180c-200 0 -300 90 -300 270v80c0 180 100 270 300 270h500v-250h-430c-46.667 0 -70 -20 -70 -60c0 -33.333 23.333 -50 70 -50h180c200 0 300 -96.667 300 -290v-80c0 -180 -100 -270 -300 -270h-550
z" />
    <glyph glyph-name="t" unicode="t" horiz-adv-x="900" 
d="M550 400c0 -66.667 33.333 -100 100 -100h150v-300h-150c-266.667 -0 -400 133.333 -400 400v300h-150v300h150v300l300 100v-400h250v-300h-250v-300z" />
    <glyph glyph-name="u" unicode="u" 
d="M700 1000h300v-1000h-270l-30 80c-33.333 -53.333 -100 -80 -200 -80c-266.667 -0 -400 133.333 -400 400v600h300v-600c0 -66.667 33.333 -100 100 -100c100 0 166.667 16.667 200 50v650z" />
    <glyph glyph-name="v" unicode="v" 
d="M770 0h-440l-280 1000h300l200 -750l200 750h300z" />
    <glyph glyph-name="w" unicode="w" horiz-adv-x="1500" 
d="M1040 310l110 690h300l-230 -1000h-350l-120 632l-120 -632h-350l-230 1000h300l110 -680l120 680h340z" />
    <glyph glyph-name="x" unicode="x" horiz-adv-x="1200" 
d="M420 1000l180 -362l180 362h320l-260 -500l260 -500h-320l-180 362l-180 -362h-320l260 500l-260 500h320z" />
    <glyph glyph-name="y" unicode="y" 
d="M700 1000h300v-1000c0 -266.667 -133.333 -400 -400 -400h-400v300h300c133.333 0 200 33.333 200 100v80c-40 -53.333 -106.667 -80 -200 -80c-266.667 -0 -400 133.333 -400 400v600h300v-600c0 -66.667 33.333 -100 100 -100c93.333 0 160 16.667 200 50v650z" />
    <glyph glyph-name="z" unicode="z" horiz-adv-x="1000" 
d="M900 1000v-300l-420 -400h420v-300h-800v300l420 400h-420v300h800z" />
    <glyph glyph-name="braceleft" unicode="{" horiz-adv-x="900" 
d="M100 850c133.333 0 200 50 200 150v100c0 333.333 166.667 500 500 500v-300c-133.333 0 -200 -66.667 -200 -200v-150c0 -146.667 -66.667 -230 -200 -250c133.333 -20 200 -103.333 200 -250v-150c0 -133.333 66.667 -200 200 -200v-300
c-333.333 0 -500 166.667 -500 500v100c0 100 -66.667 150 -200 150v300z" />
    <glyph glyph-name="bar" unicode="|" horiz-adv-x="500" 
d="M400 1600v-1800h-300v1800h300z" />
    <glyph glyph-name="braceright" unicode="}" horiz-adv-x="900" 
d="M800 550c-133.333 0 -200 -50 -200 -150v-100c0 -333.333 -166.667 -500 -500 -500v300c133.333 0 200 66.667 200 200v150c0 146.667 66.667 230 200 250c-133.333 20 -200 103.333 -200 250v150c0 133.333 -66.667 200 -200 200v300c333.333 0 500 -166.667 500 -500
v-100c0 -100 66.667 -150 200 -150v-300z" />
    <glyph glyph-name="asciitilde" unicode="~" horiz-adv-x="1200" 
d="M100 500c0 266.667 100 400 300 400c86.667 0 160 -33.333 220 -100s123.333 -100 190 -100c60 0 90 66.667 90 200h200c0 -266.667 -100 -400 -300 -400c-86.667 0 -160 31.667 -220 95s-123.333 95 -190 95c-60 0 -90 -63.333 -90 -190h-200z" />
    <glyph glyph-name="uni00A0" unicode="&#xa0;" horiz-adv-x="400" 
 />
    <glyph glyph-name="exclamdown" unicode="&#xa1;" horiz-adv-x="500" 
d="M400 600v-1000h-300v1000h300zM400 1000v-300h-300v300h300z" />
    <glyph glyph-name="cent" unicode="&#xa2;" horiz-adv-x="1000" 
d="M650 1400v-200h250v-300h-250v-400h250v-300h-250v-200h-100v200h-50c-266.667 0 -400 133.333 -400 400v200c0 266.667 133.333 400 400 400h50v200h100zM400 600c0 -66.667 33.333 -100 100 -100h50v400h-50c-66.667 0 -100 -33.333 -100 -100v-200z" />
    <glyph glyph-name="sterling" unicode="&#xa3;" 
d="M550 850h450v-300h-450v-250h450v-300h-900v300h150v250h-150v300h150v150c0 266.667 133.333 400 400 400h350v-300h-350c-66.667 0 -100 -33.333 -100 -100v-150z" />
    <glyph glyph-name="yen" unicode="&#xa5;" horiz-adv-x="1200" 
d="M310 1400l290 -500l290 500h310l-394 -700h244v-200h-300v-150h300v-200h-300v-150h-300v150h-300v200h300v150h-300v200h243l-393 700h310z" />
    <glyph glyph-name="brokenbar" unicode="&#xa6;" horiz-adv-x="500" 
d="M400 1600v-800h-300v800h300zM400 600v-800h-300v800h300z" />
    <glyph glyph-name="dieresis" unicode="&#xa8;" horiz-adv-x="1000" 
d="M100 1100v300h300v-300h-300zM600 1100v300h300v-300h-300z" />
    <glyph glyph-name="copyright" unicode="&#xa9;" horiz-adv-x="1395" 
d="M1295 698c0 -165.333 -58.333 -306.333 -175 -423s-257.334 -175 -422.001 -175c-165.333 0 -306.333 58.333 -423 175s-175 257.667 -175 423c0 164.667 58.333 305.334 175 422.001s257.667 175 423 175c164.667 0 305.334 -58.333 422.001 -175
s175 -257.334 175 -422.001zM698 1155c-126 0 -233.667 -44.667 -323 -134s-134 -197 -134 -323s44.667 -233.667 134 -323s197 -134 323 -134s233.667 44.667 323 134s134 197 134 323s-44.667 233.667 -134 323s-197 134 -323 134zM860 767c-8 20 -20.667 38.333 -38 55
c-34 34.667 -75.333 52 -124 52s-90.167 -17.167 -124.5 -51.5s-51.5 -75.833 -51.5 -124.5s17.167 -90.167 51.5 -124.5s75.833 -51.5 124.5 -51.5s90 17 124 51c18.667 18.667 32 39 40 61h146c-12 -60.667 -41 -114 -87 -160c-61.333 -62 -135.666 -93 -222.999 -93
s-162 31 -224 93s-93 136.667 -93 224s31 161.833 93 223.5s136.667 92.5 224 92.5s161.666 -31 222.999 -93c45.333 -44.667 74 -96 86 -154h-147z" />
    <glyph glyph-name="guillemotleft" unicode="&#xab;" horiz-adv-x="1328" 
d="M100 650l280 450h320l-280 -450l280 -450h-320zM628 650l280 450h320l-280 -450l280 -450h-320z" />
    <glyph glyph-name="logicalnot" unicode="&#xac;" horiz-adv-x="1000" 
d="M900 850v-550h-300v250h-500v300h800z" />
    <glyph glyph-name="registered" unicode="&#xae;" horiz-adv-x="1395" 
d="M1295 693c0 -165.333 -58.333 -306.333 -175 -423s-257.334 -175 -422.001 -175c-165.333 0 -306.333 58.333 -423 175s-175 257.667 -175 423c0 164.667 58.333 305.334 175 422.001s257.667 175 423 175c164.667 0 305.334 -58.333 422.001 -175
s175 -257.334 175 -422.001zM698 1150c-126 0 -233.667 -44.667 -323 -134s-134 -197 -134 -323s44.667 -233.667 134 -323s197 -134 323 -134s233.667 44.667 323 134s134 197 134 323s-44.667 233.667 -134 323s-197 134 -323 134zM748 1009
c140.667 0 211 -70.332 211 -210.999c0 -90.667 -32 -152.334 -96 -185.001l96 -237h-152l-82 211h-138v-211h-141v633h302zM748 728.001c46.667 0 70 23.333 70 70c0 47.333 -23.333 71 -70 71h-161v-141h161z" />
    <glyph glyph-name="degree" unicode="&#xb0;" horiz-adv-x="620" 
d="M520 1200c0 -58 -20.5 -107.5 -61.5 -148.5s-90.5 -61.5 -148.5 -61.5s-107.5 20.5 -148.5 61.5s-61.5 90.5 -61.5 148.5s20.5 107.5 61.5 148.5s90.5 61.5 148.5 61.5s107.5 -20.5 148.5 -61.5s61.5 -90.5 61.5 -148.5zM310 1290
c-24.667 0 -45.834 -8.83301 -63.501 -26.5s-26.5 -38.834 -26.5 -63.501s8.83301 -45.834 26.5 -63.501s38.834 -26.5 63.501 -26.5s45.834 8.83301 63.501 26.5s26.5 38.834 26.5 63.501s-8.83301 45.834 -26.5 63.501s-38.834 26.5 -63.501 26.5z" />
    <glyph glyph-name="plusminus" unicode="&#xb1;" horiz-adv-x="1000" 
d="M350 1000v250h300v-250h250v-300h-250v-250h-300v250h-250v300h250zM900 303v-300h-800v300h800z" />
    <glyph glyph-name="acute" unicode="&#xb4;" horiz-adv-x="600" 
d="M100 1100l90 300h310l-90 -300h-310z" />
    <glyph glyph-name="mu" unicode="&#xb5;" horiz-adv-x="1200" 
d="M400 1000v-600c33.333 -66.667 100 -100 200 -100s166.667 33.333 200 100v600h300v-1000h-300v100c-33.333 -66.667 -100 -100 -200 -100s-166.667 28 -200 84v-530h-300v1446h300z" />
    <glyph glyph-name="paragraph" unicode="&#xb6;" horiz-adv-x="1500" 
d="M1400 1400v-1800h-300v1500h-200v-1500h-300v800c-333.333 0 -500 166.667 -500 500s166.667 500 500 500h800z" />
    <glyph glyph-name="periodcentered" unicode="&#xb7;" horiz-adv-x="500" 
d="M100 550v300h300v-300h-300z" />
    <glyph glyph-name="cedilla" unicode="&#xb8;" horiz-adv-x="600" 
d="M200 -100c11.333 0.666992 22 1 32 1c178.667 0 268 -43.667 268 -131c0 -133.333 -73.333 -200 -220 -200c-66.667 0 -126.667 10 -180 30v130c53.333 -20 113.333 -30 180 -30c60 0 90 20 90 60s-56.667 60 -170 60v80z" />
    <glyph glyph-name="guillemotright" unicode="&#xbb;" horiz-adv-x="1328" 
d="M420 200h-320l280 450l-280 450h320l280 -450zM948 200h-320l280 450l-280 450h320l280 -450z" />
    <glyph glyph-name="questiondown" unicode="&#xbf;" 
d="M800 600v-400h-300c-66.667 0 -100 -33.333 -100 -100v-100c0 -66.667 33.333 -100 100 -100h500v-300h-500c-266.667 0 -400 133.333 -400 400v100c0 266.667 133.333 400 400 400v100h300zM500 700v300h300v-300h-300z" />
    <glyph glyph-name="Agrave" unicode="&#xc0;" horiz-adv-x="1300" 
d="M1300 0h-300l-93 300h-514l-93 -300h-300l420 1400h460zM484 600h332l-166 500zM473 1500l-90 300h310l90 -300h-310z" />
    <glyph glyph-name="Aacute" unicode="&#xc1;" horiz-adv-x="1300" 
d="M1300 0h-300l-93 300h-514l-93 -300h-300l420 1400h460zM484 600h332l-166 500zM517 1500l90 300h310l-90 -300h-310z" />
    <glyph glyph-name="Acircumflex" unicode="&#xc2;" horiz-adv-x="1300" 
d="M1300 0h-300l-93 300h-514l-93 -300h-300l420 1400h460zM484 600h332l-166 500zM510 1800h280l160 -300h-200l-100 200l-100 -200h-200z" />
    <glyph glyph-name="Atilde" unicode="&#xc3;" horiz-adv-x="1300" 
d="M1300 0h-300l-93 300h-514l-93 -300h-300l420 1400h460zM484 600h332l-166 500zM280 1500c0 166.667 63.333 250 190 250c66.667 0 126.667 -13.333 180 -40s103.333 -40 150 -40s70 26.667 70 80h150c0 -166.667 -63.333 -250 -190 -250
c-66.667 0 -126.667 13.333 -180 40s-103.333 40 -150 40s-70 -26.667 -70 -80h-150z" />
    <glyph glyph-name="Adieresis" unicode="&#xc4;" horiz-adv-x="1300" 
d="M1300 0h-300l-93 300h-514l-93 -300h-300l420 1400h460zM484 600h332l-166 500zM250 1500v300h300v-300h-300zM750 1500v300h300v-300h-300z" />
    <glyph glyph-name="Aring" unicode="&#xc5;" horiz-adv-x="1300" 
d="M1300 0h-300l-93 300h-514l-93 -300h-300l420 1400h460zM484 600h332l-166 500zM860 1700c0 -58 -20.5 -107.5 -61.5 -148.5s-90.5 -61.5 -148.5 -61.5s-107.5 20.5 -148.5 61.5s-61.5 90.5 -61.5 148.5s20.5 107.5 61.5 148.5s90.5 61.5 148.5 61.5
s107.5 -20.5 148.5 -61.5s61.5 -90.5 61.5 -148.5zM650 1790c-24.667 0 -45.834 -8.83301 -63.501 -26.5s-26.5 -38.834 -26.5 -63.501s8.83301 -45.834 26.5 -63.501s38.834 -26.5 63.501 -26.5s45.834 8.83301 63.501 26.5s26.5 38.834 26.5 63.501
s-8.83301 45.834 -26.5 63.501s-38.834 26.5 -63.501 26.5z" />
    <glyph glyph-name="AE" unicode="&#xc6;" horiz-adv-x="1700" 
d="M1600 850v-300h-500v-250h500v-300h-800v300h-407l-93 -300h-300l420 1400h1180v-300h-500v-250h500zM800 1100h-150l-156 -500h306v500z" />
    <glyph glyph-name="Ccedilla" unicode="&#xc7;" 
d="M400 400c0 -66.667 33.333 -100 100 -100h500v-300h-500c-266.667 -0 -400 133.333 -400 400v600c0 266.667 133.333 400 400 400h500v-300h-500c-66.667 0 -100 -33.333 -100 -100v-600zM500 -100c11.333 0.666992 22 1 32 1c178.667 0 268 -43.667 268 -131
c0 -133.333 -73.333 -200 -220 -200c-66.667 0 -126.667 10 -180 30v130c53.333 -20 113.333 -30 180 -30c60 0 90 20 90 60s-56.667 60 -170 60v80z" />
    <glyph glyph-name="Egrave" unicode="&#xc8;" 
d="M1000 850v-300h-600v-250h600v-300h-900v1400h900v-300h-600v-250h600zM373 1500l-90 300h310l90 -300h-310z" />
    <glyph glyph-name="Eacute" unicode="&#xc9;" 
d="M1000 850v-300h-600v-250h600v-300h-900v1400h900v-300h-600v-250h600zM417 1500l90 300h310l-90 -300h-310z" />
    <glyph glyph-name="Ecircumflex" unicode="&#xca;" 
d="M1000 850v-300h-600v-250h600v-300h-900v1400h900v-300h-600v-250h600zM410 1800h280l160 -300h-200l-100 200l-100 -200h-200z" />
    <glyph glyph-name="Edieresis" unicode="&#xcb;" 
d="M1000 850v-300h-600v-250h600v-300h-900v1400h900v-300h-600v-250h600zM150 1500v300h300v-300h-300zM650 1500v300h300v-300h-300z" />
    <glyph glyph-name="Igrave" unicode="&#xcc;" horiz-adv-x="500" 
d="M400 1400v-1400h-300v1400h300zM75 1500l-90 300h310l90 -300h-310z" />
    <glyph glyph-name="Iacute" unicode="&#xcd;" horiz-adv-x="500" 
d="M400 1400v-1400h-300v1400h300zM117 1500l90 300h310l-90 -300h-310z" />
    <glyph glyph-name="Icircumflex" unicode="&#xce;" horiz-adv-x="500" 
d="M400 1400v-1400h-300v1400h300zM112 1800h280l160 -300h-200l-100 200l-100 -200h-200z" />
    <glyph glyph-name="Idieresis" unicode="&#xcf;" horiz-adv-x="500" 
d="M400 1400v-1400h-300v1400h300zM-148 1500v300h300v-300h-300zM352 1500v300h300v-300h-300z" />
    <glyph glyph-name="Eth" unicode="&#xd0;" horiz-adv-x="1200" 
d="M700 1400c266.667 0 400 -133.333 400 -400v-600c0 -266.667 -133.333 -400 -400 -400h-600v600h-200v200h200v600h600zM800 1000c0 66.667 -33.333 100 -100 100h-300v-300h200v-200h-200v-300h300c66.667 0 100 33.333 100 100v600z" />
    <glyph glyph-name="Ntilde" unicode="&#xd1;" horiz-adv-x="1300" 
d="M400 1400l500 -850v850h300v-1400h-300l-500 850v-850h-300v1400h300zM280 1500c0 166.667 63.333 250 190 250c66.667 0 126.667 -13.333 180 -40s103.333 -40 150 -40s70 26.667 70 80h150c0 -166.667 -63.333 -250 -190 -250c-66.667 0 -126.667 13.333 -180 40
s-103.333 40 -150 40s-70 -26.667 -70 -80h-150z" />
    <glyph glyph-name="Ograve" unicode="&#xd2;" horiz-adv-x="1250" 
d="M1150 400c0 -266.667 -133.333 -400 -400 -400h-250c-266.667 -0 -400 133.333 -400 400v600c0 266.667 133.333 400 400 400h250c266.667 0 400 -133.333 400 -400v-600zM400 400c0 -66.667 33.333 -100 100 -100h250c66.667 0 100 33.333 100 100v600
c0 66.667 -33.333 100 -100 100h-250c-66.667 0 -100 -33.333 -100 -100v-600zM448 1500l-90 300h310l90 -300h-310z" />
    <glyph glyph-name="Oacute" unicode="&#xd3;" horiz-adv-x="1250" 
d="M1150 400c0 -266.667 -133.333 -400 -400 -400h-250c-266.667 -0 -400 133.333 -400 400v600c0 266.667 133.333 400 400 400h250c266.667 0 400 -133.333 400 -400v-600zM400 400c0 -66.667 33.333 -100 100 -100h250c66.667 0 100 33.333 100 100v600
c0 66.667 -33.333 100 -100 100h-250c-66.667 0 -100 -33.333 -100 -100v-600zM492 1500l90 300h310l-90 -300h-310z" />
    <glyph glyph-name="Ocircumflex" unicode="&#xd4;" horiz-adv-x="1250" 
d="M1150 400c0 -266.667 -133.333 -400 -400 -400h-250c-266.667 -0 -400 133.333 -400 400v600c0 266.667 133.333 400 400 400h250c266.667 0 400 -133.333 400 -400v-600zM400 400c0 -66.667 33.333 -100 100 -100h250c66.667 0 100 33.333 100 100v600
c0 66.667 -33.333 100 -100 100h-250c-66.667 0 -100 -33.333 -100 -100v-600zM485 1800h280l160 -300h-200l-100 200l-100 -200h-200z" />
    <glyph glyph-name="Otilde" unicode="&#xd5;" horiz-adv-x="1250" 
d="M1150 400c0 -266.667 -133.333 -400 -400 -400h-250c-266.667 -0 -400 133.333 -400 400v600c0 266.667 133.333 400 400 400h250c266.667 0 400 -133.333 400 -400v-600zM400 400c0 -66.667 33.333 -100 100 -100h250c66.667 0 100 33.333 100 100v600
c0 66.667 -33.333 100 -100 100h-250c-66.667 0 -100 -33.333 -100 -100v-600zM255 1500c0 166.667 63.333 250 190 250c66.667 0 126.667 -13.333 180 -40s103.333 -40 150 -40s70 26.667 70 80h150c0 -166.667 -63.333 -250 -190 -250c-66.667 0 -126.667 13.333 -180 40
s-103.333 40 -150 40s-70 -26.667 -70 -80h-150z" />
    <glyph glyph-name="Odieresis" unicode="&#xd6;" horiz-adv-x="1250" 
d="M1150 400c0 -266.667 -133.333 -400 -400 -400h-250c-266.667 -0 -400 133.333 -400 400v600c0 266.667 133.333 400 400 400h250c266.667 0 400 -133.333 400 -400v-600zM400 400c0 -66.667 33.333 -100 100 -100h250c66.667 0 100 33.333 100 100v600
c0 66.667 -33.333 100 -100 100h-250c-66.667 0 -100 -33.333 -100 -100v-600zM225 1500v300h300v-300h-300zM725 1500v300h300v-300h-300z" />
    <glyph glyph-name="multiply" unicode="&#xd7;" horiz-adv-x="1119" 
d="M347 700l-247 247l212 213l248 -248l247 248l212 -213l-247 -247l247 -247l-212 -213l-247 248l-248 -248l-212 213z" />
    <glyph glyph-name="Oslash" unicode="&#xd8;" horiz-adv-x="1250" 
d="M1150 300c0 -200 -100 -300 -300 -300h-352l-58 -200h-150l58 202c-165.333 16.667 -248 116 -248 298v800c0 200 100 300 300 300h352l58 200h150l-59 -203c166 -16 249 -115 249 -297v-800zM400 400c0 -41.333 12.667 -70 38 -86l227 786h-165
c-66.667 0 -100 -33.333 -100 -100v-600zM811 1085l-227 -785h166c66.667 0 100 33.333 100 100v600z" />
    <glyph glyph-name="Ugrave" unicode="&#xd9;" horiz-adv-x="1200" 
d="M400 1400v-1000c0 -66.667 33.333 -100 100 -100h200c66.667 0 100 33.333 100 100v1000h300v-1000c0 -266.667 -133.333 -400 -400 -400h-200c-266.667 -0 -400 133.333 -400 400v1000h300zM423 1500l-90 300h310l90 -300h-310z" />
    <glyph glyph-name="Uacute" unicode="&#xda;" horiz-adv-x="1200" 
d="M400 1400v-1000c0 -66.667 33.333 -100 100 -100h200c66.667 0 100 33.333 100 100v1000h300v-1000c0 -266.667 -133.333 -400 -400 -400h-200c-266.667 -0 -400 133.333 -400 400v1000h300zM467 1500l90 300h310l-90 -300h-310z" />
    <glyph glyph-name="Ucircumflex" unicode="&#xdb;" horiz-adv-x="1200" 
d="M400 1400v-1000c0 -66.667 33.333 -100 100 -100h200c66.667 0 100 33.333 100 100v1000h300v-1000c0 -266.667 -133.333 -400 -400 -400h-200c-266.667 -0 -400 133.333 -400 400v1000h300zM460 1800h280l160 -300h-200l-100 200l-100 -200h-200z" />
    <glyph glyph-name="Udieresis" unicode="&#xdc;" horiz-adv-x="1200" 
d="M400 1400v-1000c0 -66.667 33.333 -100 100 -100h200c66.667 0 100 33.333 100 100v1000h300v-1000c0 -266.667 -133.333 -400 -400 -400h-200c-266.667 -0 -400 133.333 -400 400v1000h300zM200 1500v300h300v-300h-300zM700 1500v300h300v-300h-300z" />
    <glyph glyph-name="Yacute" unicode="&#xdd;" horiz-adv-x="1200" 
d="M310 1400l290 -500l290 500h310l-450 -800v-600h-300v600l-450 800h310zM467 1500l90 300h310l-90 -300h-310z" />
    <glyph glyph-name="Thorn" unicode="&#xde;" horiz-adv-x="1200" 
d="M700 220h-300v-220h-300v1400h300v-230h300c266.667 0 400 -133.333 400 -400v-150c0 -266.667 -133.333 -400 -400 -400zM400 870v-350h300c66.667 0 100 33.333 100 100v150c0 66.667 -33.333 100 -100 100h-300z" />
    <glyph glyph-name="germandbls" unicode="&#xdf;" horiz-adv-x="1200" 
d="M700 300c66.667 0 100 33.333 100 100v50c0 66.667 -33.333 100 -100 100h-200v300h200c66.667 0 100 33.333 100 100v50c0 66.667 -33.333 100 -100 100h-200c-66.667 0 -100 -33.333 -100 -100v-1000h-300v1000c0 266.667 133.333 400 400 400h200
c266.667 0 400 -133.333 400 -400c0 -180 -56.667 -280 -170 -300c113.333 -20 170 -120 170 -300c0 -266.667 -133.333 -400 -400 -400h-200v300h200z" />
    <glyph glyph-name="agrave" unicode="&#xe0;" 
d="M500 720h-300v280h300c333.333 0 500 -153.333 500 -460v-540h-270l-30 80c-33.333 -53.333 -100 -80 -200 -80h-100c-200 -0 -300 103.333 -300 310s100 310 300 310h100c100 0 166.667 -26.667 200 -80c0 120 -66.667 180 -200 180zM500 240
c100 0 166.667 16.667 200 50v60c-33.333 33.333 -100 50 -200 50c-66.667 0 -100 -26.667 -100 -80s33.333 -80 100 -80zM373 1100l-90 300h310l90 -300h-310z" />
    <glyph glyph-name="aacute" unicode="&#xe1;" 
d="M500 720h-300v280h300c333.333 0 500 -153.333 500 -460v-540h-270l-30 80c-33.333 -53.333 -100 -80 -200 -80h-100c-200 -0 -300 103.333 -300 310s100 310 300 310h100c100 0 166.667 -26.667 200 -80c0 120 -66.667 180 -200 180zM500 240
c100 0 166.667 16.667 200 50v60c-33.333 33.333 -100 50 -200 50c-66.667 0 -100 -26.667 -100 -80s33.333 -80 100 -80zM417 1100l90 300h310l-90 -300h-310z" />
    <glyph glyph-name="acircumflex" unicode="&#xe2;" 
d="M500 720h-300v280h300c333.333 0 500 -153.333 500 -460v-540h-270l-30 80c-33.333 -53.333 -100 -80 -200 -80h-100c-200 -0 -300 103.333 -300 310s100 310 300 310h100c100 0 166.667 -26.667 200 -80c0 120 -66.667 180 -200 180zM500 240
c100 0 166.667 16.667 200 50v60c-33.333 33.333 -100 50 -200 50c-66.667 0 -100 -26.667 -100 -80s33.333 -80 100 -80zM410 1400h280l160 -300h-200l-100 200l-100 -200h-200z" />
    <glyph glyph-name="atilde" unicode="&#xe3;" 
d="M500 720h-300v280h300c333.333 0 500 -153.333 500 -460v-540h-270l-30 80c-33.333 -53.333 -100 -80 -200 -80h-100c-200 -0 -300 103.333 -300 310s100 310 300 310h100c100 0 166.667 -26.667 200 -80c0 120 -66.667 180 -200 180zM500 240
c100 0 166.667 16.667 200 50v60c-33.333 33.333 -100 50 -200 50c-66.667 0 -100 -26.667 -100 -80s33.333 -80 100 -80zM180 1100c0 166.667 63.333 250 190 250c66.667 0 126.667 -13.333 180 -40s103.333 -40 150 -40s70 26.667 70 80h150
c0 -166.667 -63.333 -250 -190 -250c-66.667 0 -126.667 13.333 -180 40s-103.333 40 -150 40s-70 -26.667 -70 -80h-150z" />
    <glyph glyph-name="adieresis" unicode="&#xe4;" 
d="M500 720h-300v280h300c333.333 0 500 -153.333 500 -460v-540h-270l-30 80c-33.333 -53.333 -100 -80 -200 -80h-100c-200 -0 -300 103.333 -300 310s100 310 300 310h100c100 0 166.667 -26.667 200 -80c0 120 -66.667 180 -200 180zM500 240
c100 0 166.667 16.667 200 50v60c-33.333 33.333 -100 50 -200 50c-66.667 0 -100 -26.667 -100 -80s33.333 -80 100 -80zM150 1100v300h300v-300h-300zM650 1100v300h300v-300h-300z" />
    <glyph glyph-name="aring" unicode="&#xe5;" 
d="M500 720h-300v280h300c333.333 0 500 -153.333 500 -460v-540h-270l-30 80c-33.333 -53.333 -100 -80 -200 -80h-100c-200 -0 -300 103.333 -300 310s100 310 300 310h100c100 0 166.667 -26.667 200 -80c0 120 -66.667 180 -200 180zM500 240
c100 0 166.667 16.667 200 50v60c-33.333 33.333 -100 50 -200 50c-66.667 0 -100 -26.667 -100 -80s33.333 -80 100 -80zM760 1300c0 -58 -20.5 -107.5 -61.5 -148.5s-90.5 -61.5 -148.5 -61.5s-107.5 20.5 -148.5 61.5s-61.5 90.5 -61.5 148.5s20.5 107.5 61.5 148.5
s90.5 61.5 148.5 61.5s107.5 -20.5 148.5 -61.5s61.5 -90.5 61.5 -148.5zM550 1390c-24.667 0 -45.834 -8.83301 -63.501 -26.5s-26.5 -38.834 -26.5 -63.501s8.83301 -45.834 26.5 -63.501s38.834 -26.5 63.501 -26.5s45.834 8.83301 63.501 26.5s26.5 38.834 26.5 63.501
s-8.83301 45.834 -26.5 63.501s-38.834 26.5 -63.501 26.5z" />
    <glyph glyph-name="ae" unicode="&#xe6;" horiz-adv-x="1655" 
d="M200 720v280h300c144.667 0 250 -45.333 316 -136c56.667 90.667 153 136 289 136h50c266.667 0 400 -133.333 400 -400v-220h-550v-30c0 -66.667 33.333 -100 100 -100h400v-250h-400c-128 0 -220.667 39.667 -278 119c-89.333 -79.333 -198.333 -119 -327 -119h-100
c-200 -0 -300 103.333 -300 310s100 310 300 310h100c100 0 166.667 -26.667 200 -80c0 120 -66.667 180 -200 180h-300zM500 240c100 0 166.667 16.667 200 50v60c-33.333 33.333 -100 50 -200 50c-66.667 0 -100 -26.667 -100 -80s33.333 -80 100 -80zM1005 600h250v40
c0 66.667 -33.333 100 -100 100h-50c-66.667 0 -100 -33.333 -100 -100v-40z" />
    <glyph glyph-name="ccedilla" unicode="&#xe7;" horiz-adv-x="1000" 
d="M400 400c0 -66.667 33.333 -100 100 -100h400v-300h-400c-266.667 -0 -400 133.333 -400 400v200c0 266.667 133.333 400 400 400h400v-300h-400c-66.667 0 -100 -33.333 -100 -100v-200zM500 -100c11.333 0.666992 22 1 32 1c178.667 0 268 -43.667 268 -131
c0 -133.333 -73.333 -200 -220 -200c-66.667 0 -126.667 10 -180 30v130c53.333 -20 113.333 -30 180 -30c60 0 90 20 90 60s-56.667 60 -170 60v80z" />
    <glyph glyph-name="egrave" unicode="&#xe8;" 
d="M400 380v-30c0 -66.667 33.333 -100 100 -100h450v-250h-450c-266.667 -0 -400 133.333 -400 400v200c0 266.667 133.333 400 400 400h100c266.667 0 400 -133.333 400 -400v-220h-600zM400 640v-40h300v40c0 66.667 -33.333 100 -100 100h-100
c-66.667 0 -100 -33.333 -100 -100zM373 1100l-90 300h310l90 -300h-310z" />
    <glyph glyph-name="eacute" unicode="&#xe9;" 
d="M400 380v-30c0 -66.667 33.333 -100 100 -100h450v-250h-450c-266.667 -0 -400 133.333 -400 400v200c0 266.667 133.333 400 400 400h100c266.667 0 400 -133.333 400 -400v-220h-600zM400 640v-40h300v40c0 66.667 -33.333 100 -100 100h-100
c-66.667 0 -100 -33.333 -100 -100zM417 1100l90 300h310l-90 -300h-310z" />
    <glyph glyph-name="ecircumflex" unicode="&#xea;" 
d="M400 380v-30c0 -66.667 33.333 -100 100 -100h450v-250h-450c-266.667 -0 -400 133.333 -400 400v200c0 266.667 133.333 400 400 400h100c266.667 0 400 -133.333 400 -400v-220h-600zM400 640v-40h300v40c0 66.667 -33.333 100 -100 100h-100
c-66.667 0 -100 -33.333 -100 -100zM410 1400h280l160 -300h-200l-100 200l-100 -200h-200z" />
    <glyph glyph-name="edieresis" unicode="&#xeb;" 
d="M400 380v-30c0 -66.667 33.333 -100 100 -100h450v-250h-450c-266.667 -0 -400 133.333 -400 400v200c0 266.667 133.333 400 400 400h100c266.667 0 400 -133.333 400 -400v-220h-600zM400 640v-40h300v40c0 66.667 -33.333 100 -100 100h-100
c-66.667 0 -100 -33.333 -100 -100zM150 1100v300h300v-300h-300zM650 1100v300h300v-300h-300z" />
    <glyph glyph-name="igrave" unicode="&#xec;" horiz-adv-x="500" 
d="M400 1000v-1000h-300v1000h300zM75 1100l-90 300h310l90 -300h-310z" />
    <glyph glyph-name="iacute" unicode="&#xed;" horiz-adv-x="500" 
d="M400 1000v-1000h-300v1000h300zM117 1100l90 300h310l-90 -300h-310z" />
    <glyph glyph-name="icircumflex" unicode="&#xee;" horiz-adv-x="500" 
d="M400 1000v-1000h-300v1000h300zM112 1400h280l160 -300h-200l-100 200l-100 -200h-200z" />
    <glyph glyph-name="idieresis" unicode="&#xef;" horiz-adv-x="500" 
d="M400 1000v-1000h-300v1000h300zM-148 1100v300h300v-300h-300zM352 1100v300h300v-300h-300z" />
    <glyph glyph-name="eth" unicode="&#xf0;" 
d="M700 1100h-200v200h200v100h300v-100h200v-200h-200v-1100h-270l-30 80c-33.333 -53.333 -100 -80 -200 -80c-266.667 -0 -400 133.333 -400 400v200c0 266.667 133.333 400 400 400c100 0 166.667 -26.667 200 -80v180zM500 300c100 0 166.667 16.667 200 50v300
c-33.333 33.333 -100 50 -200 50c-66.667 0 -100 -33.333 -100 -100v-200c0 -66.667 33.333 -100 100 -100z" />
    <glyph glyph-name="ntilde" unicode="&#xf1;" 
d="M400 0h-300v1000h270l30 -80c33.333 53.333 100 80 200 80c266.667 0 400 -133.333 400 -400v-600h-300v600c0 66.667 -33.333 100 -100 100c-100 0 -166.667 -16.667 -200 -50v-650zM180 1100c0 166.667 63.333 250 190 250c66.667 0 126.667 -13.333 180 -40
s103.333 -40 150 -40s70 26.667 70 80h150c0 -166.667 -63.333 -250 -190 -250c-66.667 0 -126.667 13.333 -180 40s-103.333 40 -150 40s-70 -26.667 -70 -80h-150z" />
    <glyph glyph-name="ograve" unicode="&#xf2;" 
d="M1000 400c0 -266.667 -133.333 -400 -400 -400h-100c-266.667 -0 -400 133.333 -400 400v200c0 266.667 133.333 400 400 400h100c266.667 0 400 -133.333 400 -400v-200zM400 400c0 -66.667 33.333 -100 100 -100h100c66.667 0 100 33.333 100 100v200
c0 60 -33.333 90 -100 90h-100c-66.667 0 -100 -30 -100 -90v-200zM373 1100l-90 300h310l90 -300h-310z" />
    <glyph glyph-name="oacute" unicode="&#xf3;" 
d="M1000 400c0 -266.667 -133.333 -400 -400 -400h-100c-266.667 -0 -400 133.333 -400 400v200c0 266.667 133.333 400 400 400h100c266.667 0 400 -133.333 400 -400v-200zM400 400c0 -66.667 33.333 -100 100 -100h100c66.667 0 100 33.333 100 100v200
c0 60 -33.333 90 -100 90h-100c-66.667 0 -100 -30 -100 -90v-200zM417 1100l90 300h310l-90 -300h-310z" />
    <glyph glyph-name="ocircumflex" unicode="&#xf4;" 
d="M1000 400c0 -266.667 -133.333 -400 -400 -400h-100c-266.667 -0 -400 133.333 -400 400v200c0 266.667 133.333 400 400 400h100c266.667 0 400 -133.333 400 -400v-200zM400 400c0 -66.667 33.333 -100 100 -100h100c66.667 0 100 33.333 100 100v200
c0 60 -33.333 90 -100 90h-100c-66.667 0 -100 -30 -100 -90v-200zM410 1400h280l160 -300h-200l-100 200l-100 -200h-200z" />
    <glyph glyph-name="otilde" unicode="&#xf5;" 
d="M1000 400c0 -266.667 -133.333 -400 -400 -400h-100c-266.667 -0 -400 133.333 -400 400v200c0 266.667 133.333 400 400 400h100c266.667 0 400 -133.333 400 -400v-200zM400 400c0 -66.667 33.333 -100 100 -100h100c66.667 0 100 33.333 100 100v200
c0 60 -33.333 90 -100 90h-100c-66.667 0 -100 -30 -100 -90v-200zM180 1100c0 166.667 63.333 250 190 250c66.667 0 126.667 -13.333 180 -40s103.333 -40 150 -40s70 26.667 70 80h150c0 -166.667 -63.333 -250 -190 -250c-66.667 0 -126.667 13.333 -180 40
s-103.333 40 -150 40s-70 -26.667 -70 -80h-150z" />
    <glyph glyph-name="odieresis" unicode="&#xf6;" 
d="M1000 400c0 -266.667 -133.333 -400 -400 -400h-100c-266.667 -0 -400 133.333 -400 400v200c0 266.667 133.333 400 400 400h100c266.667 0 400 -133.333 400 -400v-200zM400 400c0 -66.667 33.333 -100 100 -100h100c66.667 0 100 33.333 100 100v200
c0 60 -33.333 90 -100 90h-100c-66.667 0 -100 -30 -100 -90v-200zM150 1100v300h300v-300h-300zM650 1100v300h300v-300h-300z" />
    <glyph glyph-name="divide" unicode="&#xf7;" horiz-adv-x="1000" 
d="M900 800v-200h-800v200h800zM400 200v200h200v-200h-200zM400 1000v200h200v-200h-200z" />
    <glyph glyph-name="oslash" unicode="&#xf8;" 
d="M1000 400c0 -266.667 -133.334 -399.999 -400.001 -399.999h-100c-20.667 0 -40.667 0.666992 -60 2l-75 -202h-150l86 233c-134 55.333 -201 177.666 -201 366.999v200c0 266.667 133.333 400 400 400h100c20.667 0 40.334 -1 59.001 -3l76 203h150l-87 -234
c134.667 -54.667 202 -176.667 202 -366v-200zM699.999 600.001c0 24 -5.66699 43.333 -17 58l-133 -358h50c66.667 0 100 33.333 100 100v200zM399.999 400.001c0 -26 4.66699 -46.667 14 -62l131 352h-45c-66.667 0 -100 -30 -100 -90v-200z" />
    <glyph glyph-name="ugrave" unicode="&#xf9;" 
d="M700 1000h300v-1000h-270l-30 80c-33.333 -53.333 -100 -80 -200 -80c-266.667 -0 -400 133.333 -400 400v600h300v-600c0 -66.667 33.333 -100 100 -100c100 0 166.667 16.667 200 50v650zM373 1100l-90 300h310l90 -300h-310z" />
    <glyph glyph-name="uacute" unicode="&#xfa;" 
d="M700 1000h300v-1000h-270l-30 80c-33.333 -53.333 -100 -80 -200 -80c-266.667 -0 -400 133.333 -400 400v600h300v-600c0 -66.667 33.333 -100 100 -100c100 0 166.667 16.667 200 50v650zM417 1100l90 300h310l-90 -300h-310z" />
    <glyph glyph-name="ucircumflex" unicode="&#xfb;" 
d="M700 1000h300v-1000h-270l-30 80c-33.333 -53.333 -100 -80 -200 -80c-266.667 -0 -400 133.333 -400 400v600h300v-600c0 -66.667 33.333 -100 100 -100c100 0 166.667 16.667 200 50v650zM410 1400h280l160 -300h-200l-100 200l-100 -200h-200z" />
    <glyph glyph-name="udieresis" unicode="&#xfc;" 
d="M700 1000h300v-1000h-270l-30 80c-33.333 -53.333 -100 -80 -200 -80c-266.667 -0 -400 133.333 -400 400v600h300v-600c0 -66.667 33.333 -100 100 -100c100 0 166.667 16.667 200 50v650zM150 1100v300h300v-300h-300zM650 1100v300h300v-300h-300z" />
    <glyph glyph-name="yacute" unicode="&#xfd;" 
d="M700 1000h300v-1000c0 -266.667 -133.333 -400 -400 -400h-400v300h300c133.333 0 200 33.333 200 100v80c-40 -53.333 -106.667 -80 -200 -80c-266.667 -0 -400 133.333 -400 400v600h300v-600c0 -66.667 33.333 -100 100 -100c93.333 0 160 16.667 200 50v650z
M417 1100l90 300h310l-90 -300h-310z" />
    <glyph glyph-name="thorn" unicode="&#xfe;" 
d="M400 -400h-300v1800h300v-480c33.333 53.333 100 80 200 80c266.667 0 400 -133.333 400 -400v-200c0 -266.667 -133.333 -400 -400 -400c-100 0 -166.667 26.667 -200 80v-480zM600 700c-100 0 -166.667 -16.667 -200 -50v-300c33.333 -33.333 100 -50 200 -50
c66.667 0 100 33.333 100 100v200c0 66.667 -33.333 100 -100 100z" />
    <glyph glyph-name="ydieresis" unicode="&#xff;" 
d="M700 1000h300v-1000c0 -266.667 -133.333 -400 -400 -400h-400v300h300c133.333 0 200 33.333 200 100v80c-40 -53.333 -106.667 -80 -200 -80c-266.667 -0 -400 133.333 -400 400v600h300v-600c0 -66.667 33.333 -100 100 -100c93.333 0 160 16.667 200 50v650z
M150 1100v300h300v-300h-300zM650 1100v300h300v-300h-300z" />
    <glyph glyph-name="dotlessi" unicode="&#x131;" horiz-adv-x="500" 
d="M400 1000v-1000h-300v1000h300z" />
    <glyph glyph-name="OE" unicode="&#x152;" horiz-adv-x="1800" 
d="M1700 850v-300h-550v-250h550v-300h-850v91c-41.333 -60.667 -108 -91 -200 -91h-150c-266.667 -0 -400 133.333 -400 400v600c0 266.667 133.333 400 400 400h150c92 0 158.667 -30.667 200 -92v92h850v-300h-550v-250h550zM400 400c0 -66.667 33.333 -100 100 -100h150
c133.333 0 200 33.333 200 100v600c0 66.667 -66.667 100 -200 100h-150c-66.667 0 -100 -33.333 -100 -100v-600z" />
    <glyph glyph-name="oe" unicode="&#x153;" horiz-adv-x="1700" 
d="M1000 380v-30c0 -66.667 33.333 -100 100 -100h450v-250h-450c-118.667 0 -202 46.667 -250 140c-48.667 -93.333 -132 -140 -250 -140h-100c-266.667 -0 -400 133.333 -400 400v200c0 266.667 133.333 400 400 400h100c118 0 201.333 -46.667 250 -140
c48 93.333 131.333 140 250 140h100c266.667 0 400 -133.333 400 -400v-220h-600zM400 400c0 -66.667 33.333 -100 100 -100h100c66.667 0 100 33.333 100 100v200c0 60 -33.333 90 -100 90h-100c-66.667 0 -100 -30 -100 -90v-200zM1000 600h300v50
c0 66.667 -33.333 100 -100 100h-100c-66.667 0 -100 -33.333 -100 -100v-50z" />
    <glyph glyph-name="Scaron" unicode="&#x160;" horiz-adv-x="1200" 
d="M100 0v300h600c66.667 0 100 33.333 100 100v50c0 66.667 -33.333 100 -100 100h-200c-266.667 0 -400 133.333 -400 400v50c0 266.667 133.333 400 400 400h600v-300h-600c-66.667 0 -100 -33.333 -100 -100v-50c0 -66.667 33.333 -100 100 -100h200
c266.667 0 400 -133.333 400 -400v-50c0 -266.667 -133.333 -400 -400 -400h-600zM300 1800h200l100 -200l100 200h200l-160 -300h-280z" />
    <glyph glyph-name="scaron" unicode="&#x161;" horiz-adv-x="1050" 
d="M100 0v250h480c46.667 0 70 20 70 60c0 46.667 -23.333 70 -70 70h-180c-200 0 -300 90 -300 270v80c0 180 100 270 300 270h500v-250h-430c-46.667 0 -70 -20 -70 -60c0 -33.333 23.333 -50 70 -50h180c200 0 300 -96.667 300 -290v-80c0 -180 -100 -270 -300 -270h-550
zM225 1400h200l100 -200l100 200h200l-160 -300h-280z" />
    <glyph glyph-name="Ydieresis" unicode="&#x178;" horiz-adv-x="1200" 
d="M310 1400l290 -500l290 500h310l-450 -800v-600h-300v600l-450 800h310zM200 1500v300h300v-300h-300zM700 1500v300h300v-300h-300z" />
    <glyph glyph-name="Zcaron" unicode="&#x17d;" horiz-adv-x="1200" 
d="M1100 1400v-300l-630 -800h630v-300h-1000v300l630 800h-630v300h1000zM300 1800h200l100 -200l100 200h200l-160 -300h-280z" />
    <glyph glyph-name="zcaron" unicode="&#x17e;" horiz-adv-x="1000" 
d="M900 1000v-300l-420 -400h420v-300h-800v300l420 400h-420v300h800zM200 1400h200l100 -200l100 200h200l-160 -300h-280z" />
    <glyph glyph-name="florin" unicode="&#x192;" horiz-adv-x="900" 
d="M550 1000h250v-300h-250v-710c0 -260 -133.333 -390 -400 -390h-100v300h100c66.667 0 100 33.333 100 100v700h-150v300h150c0 266.667 133.333 400 400 400h150v-300h-150c-66.667 0 -100 -33.333 -100 -100z" />
    <glyph glyph-name="circumflex" unicode="&#x2c6;" horiz-adv-x="800" 
d="M260 1400h280l160 -300h-200l-100 200l-100 -200h-200z" />
    <glyph glyph-name="caron" unicode="&#x2c7;" horiz-adv-x="800" 
d="M100 1400h200l100 -200l100 200h200l-160 -300h-280z" />
    <glyph glyph-name="breve" unicode="&#x2d8;" horiz-adv-x="800" 
d="M100 1400h180c0 -80 40 -120 120 -120s120 40 120 120h180c0 -200 -100 -300 -300 -300s-300 100 -300 300z" />
    <glyph glyph-name="dotaccent" unicode="&#x2d9;" horiz-adv-x="500" 
d="M100 1100v300h300v-300h-300z" />
    <glyph glyph-name="ring" unicode="&#x2da;" horiz-adv-x="620" 
d="M520 1300c0 -58 -20.5 -107.5 -61.5 -148.5s-90.5 -61.5 -148.5 -61.5s-107.5 20.5 -148.5 61.5s-61.5 90.5 -61.5 148.5s20.5 107.5 61.5 148.5s90.5 61.5 148.5 61.5s107.5 -20.5 148.5 -61.5s61.5 -90.5 61.5 -148.5zM310 1390
c-24.667 0 -45.834 -8.83301 -63.501 -26.5s-26.5 -38.834 -26.5 -63.501s8.83301 -45.834 26.5 -63.501s38.834 -26.5 63.501 -26.5s45.834 8.83301 63.501 26.5s26.5 38.834 26.5 63.501s-8.83301 45.834 -26.5 63.501s-38.834 26.5 -63.501 26.5z" />
    <glyph glyph-name="ogonek" unicode="&#x2db;" horiz-adv-x="550" 
d="M300 -100c-33.333 -40 -50 -73.332 -50 -99.999c0 -33.333 16.667 -50 50 -50c53.333 0 103.333 10 150 30v-130c-46.667 -20 -96.667 -30 -150 -30c-133.333 0 -200 50 -200 150c0 53.333 33.333 96.666 100 129.999h100z" />
    <glyph glyph-name="tilde" unicode="&#x2dc;" horiz-adv-x="940" 
d="M100 1100c0 166.667 63.333 250 190 250c66.667 0 126.667 -13.333 180 -40s103.333 -40 150 -40s70 26.667 70 80h150c0 -166.667 -63.333 -250 -190 -250c-66.667 0 -126.667 13.333 -180 40s-103.333 40 -150 40s-70 -26.667 -70 -80h-150z" />
    <glyph glyph-name="hungarumlaut" unicode="&#x2dd;" horiz-adv-x="1000" 
d="M100 1100l90 300h310l-90 -300h-310zM500 1100l90 300h310l-90 -300h-310z" />
    <glyph glyph-name="endash" unicode="&#x2013;" horiz-adv-x="800" 
d="M700 850v-300h-600v300h600z" />
    <glyph glyph-name="emdash" unicode="&#x2014;" horiz-adv-x="1000" 
d="M900 850v-300h-800v300h800z" />
    <glyph glyph-name="quoteleft" unicode="&#x2018;" horiz-adv-x="600" 
d="M400 1400l100 -300h-300l-100 300h300z" />
    <glyph glyph-name="quoteright" unicode="&#x2019;" horiz-adv-x="600" 
d="M500 1400l-100 -300h-300l100 300h300z" />
    <glyph glyph-name="quotesinglbase" unicode="&#x201a;" horiz-adv-x="600" 
d="M500 200l-100 -300h-300l100 300h300z" />
    <glyph glyph-name="quotedblleft" unicode="&#x201c;" horiz-adv-x="1000" 
d="M800 1400l100 -300h-300l-100 300h300zM400 1400l100 -300h-300l-100 300h300z" />
    <glyph glyph-name="quotedblright" unicode="&#x201d;" horiz-adv-x="1000" 
d="M500 1400l-100 -300h-300l100 300h300zM900 1400l-100 -300h-300l100 300h300z" />
    <glyph glyph-name="quotedblbase" unicode="&#x201e;" horiz-adv-x="1000" 
d="M500 200l-100 -300h-300l100 300h300zM900 200l-100 -300h-300l100 300h300z" />
    <glyph glyph-name="dagger" unicode="&#x2020;" 
d="M1000 800h-300v-800h-300v800h-300v300h300v300h300v-300h300v-300z" />
    <glyph glyph-name="daggerdbl" unicode="&#x2021;" 
d="M1000 300h-300v-300h-300v300h-300v300h300v200h-300v300h300v300h300v-300h300v-300h-300v-200h300v-300z" />
    <glyph glyph-name="bullet" unicode="&#x2022;" horiz-adv-x="500" 
d="M400 900v-300h-300v300h300z" />
    <glyph glyph-name="ellipsis" unicode="&#x2026;" horiz-adv-x="1500" 
d="M100 0v300h300v-300h-300zM600 0v300h300v-300h-300zM1100 0v300h300v-300h-300z" />
    <glyph glyph-name="perthousand" unicode="&#x2030;" horiz-adv-x="2700" 
d="M400 600c-200 0 -300 100 -300 300v200c0 200 100 300 300 300h100c200 0 300 -100 300 -300v-200c0 -200 -100 -300 -300 -300h-100zM375 920c0 -53.333 26.667 -80 80 -80c46.667 0 70 26.667 70 80v160c0 53.333 -23.333 80 -70 80c-53.333 0 -80 -26.667 -80 -80
v-160zM500 0l590 1400h310l-590 -1400h-310zM1400 0c-200 0 -300 100 -300 300v200c0 200 100 300 300 300h100c200 0 300 -100 300 -300v-200c0 -200 -100 -300 -300 -300h-100zM1375 320c0 -53.333 26.667 -80 80 -80c46.667 0 70 26.667 70 80v160
c0 53.333 -23.333 80 -70 80c-53.333 0 -80 -26.667 -80 -80v-160zM2200 0c-200 0 -300 100 -300 300v200c0 200 100 300 300 300h100c200 0 300 -100 300 -300v-200c0 -200 -100 -300 -300 -300h-100zM2175 320c0 -53.333 26.667 -80 80 -80c46.667 0 70 26.667 70 80v160
c0 53.333 -23.333 80 -70 80c-53.333 0 -80 -26.667 -80 -80v-160z" />
    <glyph glyph-name="guilsinglleft" unicode="&#x2039;" horiz-adv-x="800" 
d="M100 650l280 450h320l-280 -450l280 -450h-320z" />
    <glyph glyph-name="guilsinglright" unicode="&#x203a;" horiz-adv-x="800" 
d="M420 200h-320l280 450l-280 450h320l280 -450z" />
    <glyph glyph-name="Euro" unicode="&#x20ac;" horiz-adv-x="1200" 
d="M550 775v-150h390l-36 -200h-354v-25c0 -66.667 33.333 -100 100 -100h450v-300h-450c-266.667 -0 -400 133.333 -400 400v25h-150v200h150v150h-150v200h150c7.33301 283.333 140.666 425 399.999 425h450v-300h-450c-61.333 0 -94.666 -41.667 -99.999 -125h475
l-35 -200h-440z" />
    <glyph glyph-name="trademark" unicode="&#x2122;" horiz-adv-x="1450" 
d="M850 1400l150 -350l150 350h200v-600h-150v350l-150 -350h-100l-150 350v-350h-150v600h200zM550 1400v-150h-150v-450h-150v450h-150v150h450z" />
  </font>
</defs>
</svg>
