<?xml version="1.0" standalone="no"?>
<!DOCTYPE svg PUBLIC "-//W3C//DTD SVG 1.1//EN" "http://www.w3.org/Graphics/SVG/1.1/DTD/svg11.dtd" >
<svg>
<metadata>
Created by FontForge 20090914 at Thu Sep 24 10:26:55 2015
 By www-data
&#194;&#169; 2009, 2010, 2011, 2012 GrandChaos9000. Some Rights Reserved. (Under licensed of Creative Commons CC-BY-NC-SA 3.0)
</metadata>
<defs>
<font id="AeroMaticsDisplayLightItalic" horiz-adv-x="1100" >
  <font-face 
    font-family="Aero Matics Display Light"
    font-weight="300"
    font-style="italic"
    font-stretch="normal"
    units-per-em="2048"
    panose-1="2 11 3 3 6 1 1 1 1 1"
    ascent="1638"
    descent="-410"
    x-height="1005"
    cap-height="1400"
    bbox="-107 -400.001 2575 1900"
    underline-thickness="150"
    underline-position="-142"
    unicode-range="U+0020-U+2122"
  />
<missing-glyph horiz-adv-x="1000" 
d="M100 1400h800v-1400h-800v1400zM200 1300v-1200h600v1200h-600z" />
    <glyph glyph-name=".notdef" horiz-adv-x="1000" 
d="M100 1400h800v-1400h-800v1400zM200 1300v-1200h600v1200h-600z" />
    <glyph glyph-name="space" unicode=" " horiz-adv-x="400" 
 />
    <glyph glyph-name="exclam" unicode="!" horiz-adv-x="300" 
d="M156 400l141 1000h100l-141 -1000h-100zM100 0l28 200h100l-28 -200h-100z" />
    <glyph glyph-name="quotedbl" unicode="&#x22;" horiz-adv-x="600" 
d="M497 1400l-142 -300h-100l142 300h100zM697 1400l-142 -300h-100l142 300h100z" />
    <glyph glyph-name="numbersign" unicode="#" horiz-adv-x="1300" 
d="M612 1050l155 350h100l-155 -350h400l155 350h100l-155 -350h135l-14 -100h-165l-220 -500h215l-14 -100h-245l-154 -350h-100l154 350h-400l-154 -350h-100l154 350h-155l14 100h185l220 500h-235l14 100h265zM448 450h400l220 500h-400z" />
    <glyph glyph-name="dollar" unicode="$" 
d="M600 0l-28 -199.999h-100l28 200h-400l14 100h400l77 550h-100c-174.667 0 -262 76.667 -262 230c0 21.333 1.66699 44.666 5 69.999l21 150c28 200 142 300 342 300h100l28 200h100l-28 -200h400l-14 -100h-400l-78 -550h100c175.333 0 263 -77 263 -231
c0 -21.333 -1.66699 -44.333 -5 -69l-21 -150c-28 -200 -142 -300 -342 -300h-100zM334 950.001c-2.66699 -16.667 -4 -32.333 -4 -47c0 -102 58.333 -153 175 -153h100l78 550h-100c-133.333 0 -209.333 -66.667 -228 -200zM691 650.002l-77 -550h100
c133.333 0 209.333 66.667 228 200l21 150c2 16.667 3 32 3 46c0 102.667 -58.333 154 -175 154h-100z" />
    <glyph glyph-name="percent" unicode="%" horiz-adv-x="1800" 
d="M484 600c-175.333 0 -263 77 -263 231c0 21.333 1.66699 44.333 5 69l28 200c28 200 142 300 342 300h100c175.333 0 263 -77 263 -231c0 -21.333 -1.66699 -44.333 -5 -69l-28 -200c-28 -200 -142 -300 -342 -300h-100zM1742 300c-28 -200 -142 -300 -342 -300h-100
c-175.333 0 -263 77 -263 231c0 21.333 1.66699 44.333 5 69l28 200c28 200 142 300 342 300h100c175.333 0 263 -77 263 -231c0 -21.333 -1.66699 -44.333 -5 -69zM326 900c-2 -16.667 -3 -32 -3 -46c0 -102.667 58.333 -154 175 -154h100
c133.333 0 209.333 66.667 228 200l28 200c2 16.667 3 32 3 46c0 102.667 -58.333 154 -175 154h-100c-133.333 0 -209.333 -66.667 -228 -200zM1142 300c-2 -16.667 -3 -32 -3 -46c0 -102.667 58.333 -154 175 -154h100c133.333 0 209.333 66.667 228 200l28 200
c2 16.667 3 32 3 46c0 102.667 -58.333 154 -175 154h-100c-133.333 0 -209.333 -66.667 -228 -200zM500 0l886 1400h110l-886 -1400h-110z" />
    <glyph glyph-name="ampersand" unicode="&#x26;" 
d="M400 0c-175.333 0 -263 77 -263 231c0 21.333 1.66699 44.333 5 69l21 150c20.667 146.667 89 230 205 250c-92.667 16.667 -139 78.334 -139 185.001c0 20 1.66699 41.667 5 65l21 150c28 200 142 300 342 300h500l-14 -100h-500c-133.333 0 -209.333 -66.667 -228 -200
l-21 -150c-2.66699 -16.667 -4 -32.334 -4 -47.001c0 -102 58.333 -153 175 -153h400l29 200h100l-29 -200h100l-14 -100h-100l-91 -650h-500zM242 300c-2 -16.667 -3 -32 -3 -46c0 -102.667 58.333 -154 175 -154h400l77 550h-400c-133.333 0 -209.333 -66.667 -228 -200z
" />
    <glyph glyph-name="quotesingle" unicode="'" horiz-adv-x="400" 
d="M497 1400l-142 -300h-100l142 300h100z" />
    <glyph glyph-name="parenleft" unicode="(" horiz-adv-x="600" 
d="M352 -200c-114 203.333 -171.001 426 -171.001 668c0 75.333 5.66699 152.666 17 231.999c47.333 333.333 183 633.333 407 900h120c-237.333 -266.667 -379.666 -566.667 -426.999 -900c-10.667 -74 -16 -146.667 -16 -218c0 -247.333 63.333 -474.666 190 -681.999
h-120z" />
    <glyph glyph-name="parenright" unicode=")" horiz-adv-x="600" 
d="M72 -200c237.333 266.667 379.333 566.668 426 900.001c10.667 75.333 16 148.666 16 219.999c0 246.667 -63 473.334 -189 680.001h120c113.333 -202.667 170 -424.334 170 -665.001c0 -76.667 -5.66699 -155 -17 -235c-46.667 -333.333 -182 -633.333 -406 -900h-120z
" />
    <glyph glyph-name="asterisk" unicode="*" horiz-adv-x="700" 
d="M282 940l145 183l-167 17l24 100l187 -20l26 180h100l-26 -180l193 20l-4 -100l-172 -17l94 -183l-96 -40l-86 170l-134 -170z" />
    <glyph glyph-name="plus" unicode="+" horiz-adv-x="900" 
d="M505 750l42 300h100l-42 -300h300l-14 -100h-300l-42 -300h-100l42 300h-300l14 100h300z" />
    <glyph glyph-name="comma" unicode="," horiz-adv-x="400" 
d="M328 200l-142 -300h-100l142 300h100z" />
    <glyph glyph-name="hyphen" unicode="-" horiz-adv-x="700" 
d="M705 750l-14 -100h-500l14 100h500z" />
    <glyph glyph-name="period" unicode="." horiz-adv-x="300" 
d="M100 0l28 200h100l-28 -200h-100z" />
    <glyph glyph-name="slash" unicode="/" horiz-adv-x="820" 
d="M172 -200h-100l773 1800h100z" />
    <glyph glyph-name="zero" unicode="0" horiz-adv-x="1150" 
d="M1092 300c-28 -200 -142 -300 -342 -300h-350c-175.333 0 -263 77 -263 231c0 21.333 1.66699 44.333 5 69l113 800c28 200 142 300 342 300h350c175.333 0 263 -77 263 -231c0 -21.333 -1.66699 -44.333 -5 -69zM1075 890l-819 -490l-14 -100c-2 -16.667 -3 -32 -3 -46
c0 -102.667 58.333 -154 175 -154h350c133.333 0 209.333 66.667 228 200zM272 510l819 490l14 100c2 16.667 3 32 3 46c0 102.667 -58.333 154 -175 154h-350c-133.333 0 -209.333 -66.667 -228 -200z" />
    <glyph glyph-name="one" unicode="1" horiz-adv-x="500" 
d="M483 1300h-200l14 100h300l-197 -1400h-100z" />
    <glyph glyph-name="two" unicode="2" 
d="M100 0l63.001 450c28 200 142 300 342 300h300c133.333 0 209.666 66.667 228.999 200l21 150c2 16.667 3 32 3 46c0 102.667 -58.333 154 -175 154h-600l14 100h600c175.333 0 263 -77 263 -231c0 -21.333 -1.66699 -44.333 -5 -69l-21 -150
c-28.667 -200 -143 -300 -343 -300h-300c-133.333 0 -209.333 -66.667 -228 -200l-49 -350h800l-14 -100h-900z" />
    <glyph glyph-name="three" unicode="3" horiz-adv-x="1000" 
d="M205 750l500.002 -0.000976562c133.333 0 209.666 66.667 228.999 200l21 150c2 16.667 3 32 3 46c0 102.667 -58.333 154 -175 154h-500l14 100h500c175.333 0 263 -77 263 -231c0 -21.333 -1.66699 -44.333 -5 -69l-21 -150
c-20.667 -146.667 -89.334 -230 -206.001 -250c93.333 -16.667 140 -78.667 140 -186c0 -19.333 -1.66699 -40.666 -5 -63.999l-21 -150c-28 -200 -142 -300 -342 -300h-500l14 100h500c133.333 0 209.333 66.667 228 200l21 150c2 16.667 3 32 3 46
c0 102.667 -58.333 154 -175 154h-500z" />
    <glyph glyph-name="four" unicode="4" 
d="M686 1400h110l-502 -800h690l112 800h100l-196 -1400h-100l70 500h-800l14 100z" />
    <glyph glyph-name="five" unicode="5" horiz-adv-x="1050" 
d="M100 0l14 100h550c133.333 0 209.333 66.667 228 200l28 200c2 16.667 3 32 3 46c0 102.667 -58.333 154 -175 154h-550l99 700h850l-14 -100h-750l-71 -500h450c175.333 0 263 -77 263 -231c0 -21.333 -1.66699 -44.333 -5 -69l-28 -200c-28 -200 -142 -300 -342 -300
h-550z" />
    <glyph glyph-name="six" unicode="6" 
d="M312 800h500c175.333 0 263 -77 263 -231c0 -21.333 -1.66699 -44.333 -5 -69l-28 -200c-28 -200 -142 -300 -342 -300h-300c-175.333 0 -263 77 -263 231c0 21.333 1.66699 44.333 5 69l99 700c37.333 266.667 189.333 400 456 400h400l-14 -100h-400
c-200 0 -314 -100 -342 -300zM298 700l-56 -400c-2 -16.667 -3 -32 -3 -46c0 -102.667 58.333 -154 175 -154h300c133.333 0 209.333 66.667 228 200l28 200c2 16.667 3 32 3 46c0 102.667 -58.333 154 -175 154h-500z" />
    <glyph glyph-name="seven" unicode="7" 
d="M1197 1400l-14 -100l-873 -1300h-110l873 1300h-790l14 100h900z" />
    <glyph glyph-name="eight" unicode="8" 
d="M255 1100c28 200 142.001 299.998 342.001 299.998h300c175.333 0 263 -77 263 -231c0 -21.333 -1.66699 -44.333 -5 -69l-21 -150c-20.667 -146.667 -89.334 -230 -206.001 -250c93.333 -16.667 140 -78.667 140 -186c0 -19.333 -1.66699 -40.666 -5 -63.999l-21 -150
c-28 -200 -142 -300 -342 -300h-300c-175.333 0 -263 77 -263 231c0 21.333 1.66699 44.333 5 69l21 150c20.667 146.667 89 230 205 250c-92.667 16.667 -139 78.334 -139 185.001c0 20 1.66699 41.667 5 65zM805.001 749.998c133.333 0 209.667 66.668 229 200.001l21 150
c2 16.667 3 32 3 46c0 102.667 -58.333 154 -175 154h-300c-133.333 0 -209.333 -66.667 -228 -200l-21 -150c-2.66699 -16.667 -4 -32.334 -4 -47.001c0 -102 58.333 -153 175 -153h300zM491.002 649.999c-133.333 0 -209.333 -66.667 -228 -200l-21 -150
c-2 -16.667 -3 -32 -3 -46c0 -102.667 58.333 -154 175 -154h300c133.333 0 209.333 66.667 228 200l21 150c2 16.667 3 32 3 46c0 102.667 -58.333 154 -175 154h-300z" />
    <glyph glyph-name="nine" unicode="9" 
d="M984 600h-500c-175.333 0 -263 77 -263 231c0 21.333 1.66699 44.333 5 69l28 200c28 200 142 300 342 300h300c175.333 0 263 -77 263 -231c0 -21.333 -1.66699 -44.333 -5 -69l-98 -700c-37.333 -266.667 -189.333 -400 -456 -400h-400l14 100h400
c200 0 314 100 342 300zM998 700l56 400c2 16.667 3 32 3 46c0 102.667 -58.333 154 -175 154h-300c-133.333 0 -209.333 -66.667 -228 -200l-28 -200c-2 -16.667 -3 -32 -3 -46c0 -102.667 58.333 -154 175 -154h500z" />
    <glyph glyph-name="colon" unicode=":" horiz-adv-x="300" 
d="M100 0l28 200h100l-28 -200h-100zM212 800l29 200h100l-29 -200h-100z" />
    <glyph glyph-name="semicolon" unicode=";" horiz-adv-x="400" 
d="M312 800l29 200h100l-29 -200h-100zM328 200l-142 -300h-100l142 300h100z" />
    <glyph glyph-name="less" unicode="&#x3c;" horiz-adv-x="900" 
d="M191 650l14 100l749 350l-14 -100l-642 -300l558 -300l-14 -100z" />
    <glyph glyph-name="equal" unicode="=" horiz-adv-x="700" 
d="M726 900l-14 -100h-500l14 100h500zM684 600l-14 -100h-500l14 100h500z" />
    <glyph glyph-name="greater" unicode="&#x3e;" horiz-adv-x="900" 
d="M142 300l14 100l642 300l-558 300l14 100l651 -350l-14 -100z" />
    <glyph glyph-name="question" unicode="?" 
d="M457 400l49 350h300c133.333 0 209.333 66.667 228 200l21 150c2 16.667 3 32 3 46c0 102.667 -58.333 154 -175 154h-600l14 100h600c175.333 0 263 -77 263 -231c0 -21.333 -1.66699 -44.333 -5 -69l-21 -150c-28 -200 -142 -300 -342 -300h-200l-35 -250h-100z
M528 200l-28 -200h-100l28 200h100z" />
    <glyph glyph-name="at" unicode="@" horiz-adv-x="1600" 
d="M1328 200c-101.333 0 -159 38.333 -173 115c-101.333 -76.667 -210.333 -115 -327 -115h-100c-175.333 0 -263 77 -263 231c0 21.333 1.66699 44.333 5 69l57 400c28 200 142 300 342 300h100c133.333 0 228.666 -33.333 285.999 -100l14 100h100l-113 -800
c-1.33301 -8 -2 -15.667 -2 -23c0 -51.333 29.333 -77 88 -77c66.667 0 109.334 66.667 128.001 200l71 500c4.66699 32.667 7 63.334 7 92.001c0 205.333 -117 308 -351 308h-400c-266.667 0 -418.667 -133.333 -456 -400l-85 -600c-4.66699 -32.667 -7 -63.334 -7 -92.001
c0 -205.333 117 -308 351 -308h700l-14 -100h-700c-292.667 0 -439 128.333 -439 385c0 36 3 74.333 9 115l85 600c46.667 333.333 236.667 500 570 500h400c292.667 0 439 -128.333 439 -385c0 -36 -3 -74.333 -9 -115l-71 -500c-28 -200 -108.667 -300 -242 -300zM842 300
c133.333 0 237.999 33.333 313.999 100l85 600c-57.333 66.667 -152.666 100 -285.999 100h-100c-133.333 0 -209.333 -66.667 -228 -200l-57 -400c-2 -16.667 -3 -32 -3 -46c0 -102.667 58.333 -154 175 -154h100z" />
    <glyph glyph-name="A" unicode="A" horiz-adv-x="1000" 
d="M1000 0h-100l-67 400h-554l-179 -400h-100l617 1400h160zM324 500h492l-133 800z" />
    <glyph glyph-name="B" unicode="B" 
d="M897 1400c175.333 0 263.001 -77.001 263.001 -231.001c0 -21.333 -1.66699 -44.333 -5 -69l-21 -150c-20.667 -146.667 -89.334 -230 -206.001 -250c93.333 -16.667 140 -78.667 140 -186c0 -19.333 -1.66699 -40.666 -5 -63.999l-21 -150c-28 -200 -142 -300 -342 -300
h-600l197 1400h600zM383.001 1300l-77.999 -550h500c133.333 0 209.666 66.667 228.999 200l21 150c2 16.667 3 32 3 46c0 102.667 -58.333 154 -175 154h-500zM291.002 649.999l-77 -550h500c133.333 0 209.333 66.667 228 200l21 150c2 16.667 3 32 3 46
c0 102.667 -58.333 154 -175 154h-500z" />
    <glyph glyph-name="C" unicode="C" horiz-adv-x="1000" 
d="M242 300c-2 -16.667 -3 -32 -3 -46c0 -102.667 58.333 -154 175 -154h500l-14 -100h-500c-175.333 0 -263 77 -263 231c0 21.333 1.66699 44.333 5 69l113 800c28 200 142 300 342 300h500l-14 -100h-500c-133.333 0 -209.333 -66.667 -228 -200z" />
    <glyph glyph-name="D" unicode="D" 
d="M897 1400c175.333 0 263 -77 263 -231c0 -21.333 -1.66699 -44.333 -5 -69l-113 -800c-28 -200 -142 -300 -342 -300h-600l197 1400h600zM1055 1100c2 16.667 3 32 3 46c0 102.667 -58.333 154 -175 154h-500l-169 -1200h500c133.333 0 209.333 66.667 228 200z" />
    <glyph glyph-name="E" unicode="E" horiz-adv-x="1000" 
d="M1005 750l-14 -100h-700l-77 -550h700l-14 -100h-800l197 1400h800l-14 -100h-700l-78 -550h700z" />
    <glyph glyph-name="F" unicode="F" horiz-adv-x="1000" 
d="M1005 750l-14 -100h-700l-91 -650h-100l197 1400h800l-14 -100h-700l-78 -550h700z" />
    <glyph glyph-name="G" unicode="G" 
d="M242 300c-2 -16.667 -3 -32 -3 -46c0 -102.667 58.333 -154 175 -154h300c133.333 0 209.333 66.667 228 200l49 350h-400l14 100h500l-63 -450c-28 -200 -142 -300 -342 -300h-300c-175.333 0 -263 77 -263 231c0 21.333 1.66699 44.333 5 69l113 800
c28 200 142 300 342 300h600l-14 -100h-600c-133.333 0 -209.333 -66.667 -228 -200z" />
    <glyph glyph-name="H" unicode="H" 
d="M397 1400l-92 -650h700l92 650h100l-197 -1400h-100l91 650h-700l-91 -650h-100l197 1400h100z" />
    <glyph glyph-name="I" unicode="I" horiz-adv-x="300" 
d="M397 1400l-197 -1400h-100l197 1400h100z" />
    <glyph glyph-name="J" unicode="J" horiz-adv-x="700" 
d="M697 1400h100l-155 -1100c-28 -200 -142 -300 -342 -300h-200l14 100h200c133.333 0 209.333 66.667 228 200z" />
    <glyph glyph-name="K" unicode="K" horiz-adv-x="1050" 
d="M100 0l197 1400h100l-92 -650h90l682 650h120l-719 -700l522 -700h-120l-499 650h-90l-91 -650h-100z" />
    <glyph glyph-name="L" unicode="L" horiz-adv-x="1000" 
d="M214 100h700l-14 -100h-800l197 1400h100z" />
    <glyph glyph-name="M" unicode="M" horiz-adv-x="1400" 
d="M297 1400h170l247 -1300l613 1300h170l-197 -1400h-100l183 1300l-603 -1300h-160l-237 1300l-183 -1300h-100z" />
    <glyph glyph-name="N" unicode="N" 
d="M397 1400l531 -1200l169 1200h100l-197 -1400h-100l-531 1200l-169 -1200h-100l197 1400h100z" />
    <glyph glyph-name="O" unicode="O" horiz-adv-x="1150" 
d="M1092 300c-28 -200 -142 -300 -342 -300h-350c-175.333 0 -263 77 -263 231c0 21.333 1.66699 44.333 5 69l113 800c28 200 142 300 342 300h350c175.333 0 263 -77 263 -231c0 -21.333 -1.66699 -44.333 -5 -69zM242 300c-2 -16.667 -3 -32 -3 -46
c0 -102.667 58.333 -154 175 -154h350c133.333 0 209.333 66.667 228 200l113 800c2 16.667 3 32 3 46c0 102.667 -58.333 154 -175 154h-350c-133.333 0 -209.333 -66.667 -228 -200z" />
    <glyph glyph-name="P" unicode="P" 
d="M291 650l-91 -650h-100l197 1400h600c175.333 0 263 -77 263 -231c0 -21.333 -1.66699 -44.333 -5 -69l-21 -150c-28.667 -200 -143 -300 -343 -300h-500zM383 1300l-77.999 -550h500c133.333 0 209.666 66.667 228.999 200l21 150c2 16.667 3 32 3 46
c0 102.667 -58.333 154 -175 154h-500z" />
    <glyph glyph-name="Q" unicode="Q" horiz-adv-x="1150" 
d="M670 0h-270.001c-175.333 0 -263 77 -263 231c0 21.333 1.66699 44.333 5 69l113 800c28 200 142 300 342 300h350c175.333 0 263 -77 263 -231c0 -21.333 -1.66699 -44.333 -5 -69l-113 -800c-27.333 -193.333 -134.666 -293.333 -321.999 -300l52 -200h-100z
M691.999 300l52 -200h20c133.333 0 209.333 66.667 228 200l113 800c2 16.667 3 32 3 46c0 102.667 -58.333 154 -175 154h-350c-133.333 0 -209.333 -66.667 -228 -200l-113 -800c-2 -16.667 -3 -32 -3 -46c0 -102.667 58.333 -154 175 -154h230l-52 200h100z" />
    <glyph glyph-name="R" unicode="R" 
d="M759 650l-468 0.000976562l-91 -650h-100l197 1400h600c175.333 0 263 -77 263 -231c0 -21.333 -1.66699 -44.333 -5 -69l-21 -150c-25.333 -176.667 -117.333 -275.334 -276 -296.001l142 -654h-100zM383 1300l-77.999 -550h500c133.333 0 209.666 66.667 228.999 200
l21 150c2 16.667 3 32 3 46c0 102.667 -58.333 154 -175 154h-500z" />
    <glyph glyph-name="S" unicode="S" 
d="M100 0l14 100.002h600c133.333 0 209.333 66.667 228 200l21 150c2 16.667 3 32 3 46c0 102.667 -58.333 154 -175 154h-300c-174.667 0 -262 76.667 -262 230c0 21.333 1.66699 44.666 5 69.999l21 150c28 200 142 300 342 300h600l-14 -100h-600
c-133.333 0 -209.333 -66.667 -228 -200l-21 -150c-2.66699 -16.667 -4 -32.334 -4 -47.001c0 -102 58.333 -153 175 -153h300c175.333 0 263 -77 263 -231c0 -21.333 -1.66699 -44.333 -5 -69l-21 -150c-28 -200 -142 -300 -342 -300h-600z" />
    <glyph glyph-name="T" unicode="T" 
d="M1197 1400l-14 -100h-400l-183 -1300h-100l183 1300h-400l14 100h900z" />
    <glyph glyph-name="U" unicode="U" 
d="M397 1400l-155 -1100c-2 -16.667 -3 -32 -3 -46c0 -102.667 58.333 -154 175 -154h300c133.333 0 209.333 66.667 228 200l155 1100h100l-155 -1100c-28 -200 -142 -300 -342 -300h-300c-175.333 0 -263 77 -263 231c0 21.333 1.66699 44.333 5 69l155 1100h100z" />
    <glyph glyph-name="V" unicode="V" horiz-adv-x="1000" 
d="M580 0h-160l-223 1400h100l217 -1300l583 1300h100z" />
    <glyph glyph-name="W" unicode="W" horiz-adv-x="1500" 
d="M1180 0h-160l-104 1181l-436 -1181h-160l-123 1400h100l117 -1300l483 1300h100l117 -1300l483 1300h100z" />
    <glyph glyph-name="X" unicode="X" horiz-adv-x="1200" 
d="M100 0l533 700l-336 700h130l286 -596l454 596h130l-534 -700l337 -700h-130l-286 595l-454 -595h-130z" />
    <glyph glyph-name="Y" unicode="Y" horiz-adv-x="1000" 
d="M307 1400l292 -700l488 700h110l-562 -800l-85 -600h-100l85 600l-338 800h110z" />
    <glyph glyph-name="Z" unicode="Z" 
d="M1197 1400l-14 -100l-949 -1200h780l-14 -100h-900l14 100l949 1200h-780l14 100h900z" />
    <glyph glyph-name="bracketleft" unicode="[" horiz-adv-x="500" 
d="M611 1500h-200l-225 -1600h200l-14 -100h-300l253 1800h300z" />
    <glyph glyph-name="backslash" unicode="\" horiz-adv-x="820" 
d="M325 1600h100l267 -1800h-100z" />
    <glyph glyph-name="bracketright" unicode="]" horiz-adv-x="500" 
d="M325 1600h300l-253 -1800h-300l14 100h200l225 1600h-200z" />
    <glyph glyph-name="asciicircum" unicode="^" horiz-adv-x="1000" 
d="M646 1400h100l252 -700h-100l-216 600l-384 -600h-100z" />
    <glyph glyph-name="underscore" unicode="_" horiz-adv-x="700" 
d="M658 -300l-14 -100h-700l14 100h700z" />
    <glyph glyph-name="grave" unicode="`" horiz-adv-x="400" 
d="M345 1100l-48 300h110l48 -300h-110z" />
    <glyph glyph-name="a" unicode="a" horiz-adv-x="805" 
d="M804 -8h-117l-53 278h-387l-131 -278h-117l470 1013h149zM300 380h313l-91 472z" />
    <glyph glyph-name="b" unicode="b" horiz-adv-x="865" 
d="M686 1005c144.667 0 217 -59.333 217 -178c0 -16 -1.33301 -32.667 -4 -50l-14 -105c-14.667 -100 -64.334 -157.667 -149.001 -173c68.667 -13.333 103 -57.333 103 -132c0 -13.333 -1 -27.333 -3 -42l-15 -104c-21.333 -152.667 -113.666 -229 -276.999 -229h-470
l142 1013h470zM316 896l-48 -343h355c86.667 0 135.667 39.667 147 119l14 105c1.33301 9.33301 2 18 2 26c0 62 -38.333 93 -115 93h-355zM253 444l-49 -342h355c86.667 0 135.667 39.667 147 119l15 104c1.33301 9.33301 2 18 2 26c0 62 -38.333 93 -115 93h-355z" />
    <glyph glyph-name="c" unicode="c" horiz-adv-x="790" 
d="M221 221c-1.33301 -9.33301 -1.99902 -18 -1.99902 -26c0 -62 38.333 -93 115 -93h395l-15 -110h-395c-144.667 0 -217 59.667 -217 179c0 16 1.33301 32.667 4 50l78 556c21.333 152 113.666 228 276.999 228h395l-15 -109h-395c-86.667 0 -135.667 -39.667 -147 -119z
" />
    <glyph glyph-name="d" unicode="d" horiz-adv-x="865" 
d="M686 1005c144.667 0 216.999 -59.333 216.999 -178c0 -16 -1.33301 -32.667 -4 -50l-78 -556c-21.333 -152.667 -113.666 -229 -276.999 -229h-470l142 1013h470zM783.999 777c1.33301 9.33301 2 18 2 26c0 62 -38.333 93 -115 93h-355l-112 -794h355
c86.667 0 135.667 39.667 147 119z" />
    <glyph glyph-name="e" unicode="e" horiz-adv-x="790" 
d="M793 553l-15 -109h-525l-49 -342h525l-15 -110h-640l142 1013h640l-15 -109h-525l-48 -343h525z" />
    <glyph glyph-name="f" unicode="f" horiz-adv-x="790" 
d="M793 553l-15 -109h-525l-64 -452h-115l142 1013h640l-15 -109h-525l-48 -343h525z" />
    <glyph glyph-name="g" unicode="g" horiz-adv-x="865" 
d="M221 221c-1.33301 -9.33301 -2 -18 -2 -26c0 -62 38.333 -93 115 -93h225c86.667 0 135.667 39.667 147 119l32 223h-300l15 109h415l-47 -332c-21.333 -152.667 -113.666 -229 -276.999 -229h-225c-144.667 0 -217 59.667 -217 179c0 16 1.33301 32.667 4 50l78 556
c21.333 152 113.666 228 276.999 228h470l-15 -109h-470c-86.667 0 -135.667 -39.667 -147 -119z" />
    <glyph glyph-name="h" unicode="h" horiz-adv-x="865" 
d="M331 1005l-63 -452h485l63 452h115l-142 -1013h-115l64 452h-485l-64 -452h-115l142 1013h115z" />
    <glyph glyph-name="i" unicode="i" horiz-adv-x="265" 
d="M331 1005l-142 -1013h-115l142 1013h115z" />
    <glyph glyph-name="j" unicode="j" horiz-adv-x="565" 
d="M516 1005h114.999l-110 -784c-21.333 -152.667 -113.666 -229 -276.999 -229h-170l15 110h170c86.667 0 135.667 39.667 147 119z" />
    <glyph glyph-name="k" unicode="k" horiz-adv-x="855" 
d="M74 -8l142 1013h115l-63 -452h39l506 452h145l-555 -506l413 -507h-145l-379 452h-39l-64 -452h-115z" />
    <glyph glyph-name="l" unicode="l" horiz-adv-x="790" 
d="M204 102h525l-15 -110h-640l142 1013h115z" />
    <glyph glyph-name="m" unicode="m" horiz-adv-x="1090" 
d="M216 1005h162l187 -864l429 864h162l-142 -1013h-115l113 805l-394 -805h-148l-168 805l-113 -805h-115z" />
    <glyph glyph-name="n" unicode="n" horiz-adv-x="865" 
d="M322 1005l384 -785l110 785h115l-142 -1013h-106l-384 785l-110 -785h-115l142 1013h106z" />
    <glyph glyph-name="o" unicode="o" horiz-adv-x="903" 
d="M859 221c-21.333 -152.667 -113.666 -229 -276.999 -229h-263c-144.667 0 -217 59.667 -217 179c0 16 1.33301 32.667 4 50l78 556c21.333 152 113.666 228 276.999 228h263c144.667 0 217 -59.333 217 -178c0 -16 -1.33301 -32.667 -4 -50zM221 221
c-1.33301 -9.33301 -2 -18 -2 -26c0 -62 38.333 -93 115 -93h263c86.667 0 135.667 39.667 147 119l78 556c1.33301 9.33301 2 18 2 26c0 62 -38.333 93 -115 93h-263c-86.667 0 -135.667 -39.667 -147 -119z" />
    <glyph glyph-name="p" unicode="p" horiz-adv-x="865" 
d="M253 444l-64.001 -452h-115l142 1013h470c144.667 0 217 -59.333 217 -178c0 -16 -1.33301 -32.667 -4 -50l-14 -105c-21.333 -152 -113.666 -228 -276.999 -228h-355zM315.999 896l-48 -343h355c86.667 0 135.667 39.667 147 119l14 105c1.33301 9.33301 2 18 2 26
c0 62 -38.333 93 -115 93h-355z" />
    <glyph glyph-name="q" unicode="q" horiz-adv-x="903" 
d="M508 -8h-188.998c-144.667 0 -217 59.667 -217 179c0 16 1.33301 32.667 4 50l78 556c21.333 152 113.666 228 276.999 228h263c144.667 0 217 -59.333 217 -178c0 -16 -1.33301 -32.667 -4 -50l-78 -556c-20.667 -147.333 -98.334 -223.333 -233.001 -228l41 -140h-119z
M555.002 241l40 -139h2c86.667 0 135.667 39.667 147 119l78 556c1.33301 9.33301 2 18 2 26c0 62 -38.333 93 -115 93h-263c-86.667 0 -135.667 -39.667 -147 -119l-78 -556c-1.33301 -9.33301 -2 -18 -2 -26c0 -62 38.333 -93 115 -93h142l-40 139h119z" />
    <glyph glyph-name="r" unicode="r" horiz-adv-x="874" 
d="M570 444h-317l-64 -452h-115l142 1013h470c144.667 0 217 -59.333 217 -178c0 -16 -1.33301 -32.667 -4 -50l-14 -105c-19.333 -134.667 -86 -208.667 -200 -222l113 -458h-118zM316 896l-48 -343h355c86.667 0 135.667 39.667 147 119l14 105c1.33301 9.33301 2 18 2 26
c0 62 -38.333 93 -115 93h-355z" />
    <glyph glyph-name="s" unicode="s" horiz-adv-x="865" 
d="M74 -8l15 110h470c86.667 0 135.667 39.667 147 119l15 104c1.33301 9.33301 2 18 2 26c0 62 -38.333 93 -115 93h-225c-144.667 0 -217 59.333 -217 178c0 16 1.33301 32.667 4 50l14 105c21.333 152 113.666 228 276.999 228h470l-15 -109h-470
c-86.667 0 -135.667 -39.667 -147 -119l-14 -105c-1.33301 -9.33301 -2 -18 -2 -26c0 -62 38.333 -93 115 -93h225c144.667 0 217 -59.333 217 -178c0 -16 -1.33301 -32.667 -4 -50l-15 -104c-21.333 -152.667 -113.666 -229 -276.999 -229h-470z" />
    <glyph glyph-name="t" unicode="t" horiz-adv-x="865" 
d="M931 1005l-15 -109h-300l-127 -904h-115l127 904h-300l15 109h715z" />
    <glyph glyph-name="u" unicode="u" horiz-adv-x="865" 
d="M331 1005l-110.001 -784c-1.33301 -9.33301 -2 -18 -2 -26c0 -62 38.333 -93 115 -93h225c86.667 0 135.667 39.667 147 119l110 784h115l-110 -784c-21.333 -152.667 -113.666 -229 -276.999 -229h-225c-144.667 0 -217 59.667 -217 179c0 16 1.33301 32.667 4 50
l110 784h115z" />
    <glyph glyph-name="v" unicode="v" horiz-adv-x="805" 
d="M476 -8h-149l-186 1013h117l164 -860l407 860h117z" />
    <glyph glyph-name="w" unicode="w" horiz-adv-x="1176" 
d="M925 -8h-151l-81 757l-293 -757h-151l-108 1013h116l92 -841l327 841h106l92 -841l327 841h116z" />
    <glyph glyph-name="x" unicode="x" horiz-adv-x="975" 
d="M74 -8l411 507l-269 506h146l210 -398l323 398h146l-411 -506l269 -507h-146l-211 398l-322 -398h-146z" />
    <glyph glyph-name="y" unicode="y" horiz-adv-x="821" 
d="M270 1005l216 -468l347 468h129l-435 -582l-60 -431h-115l60 431l-271 582h129z" />
    <glyph glyph-name="z" unicode="z" horiz-adv-x="865" 
d="M931 1005l-13 -96l-681 -807h567l-15 -110h-715l13 96l681 808h-567l15 109h715z" />
    <glyph glyph-name="braceleft" unicode="{" horiz-adv-x="700" 
d="M205 750c133.333 0 209.333 66.666 228 199.999l49 350c28.667 200 143 300 343 300l-15 -100c-133.333 0 -209.333 -66.667 -228 -200l-49 -350c-20.667 -146.667 -89 -230 -205 -250c93.333 -16.667 140 -78.667 140 -186c0 -19.333 -1.66699 -40.666 -5 -63.999
l-49 -350c-2 -16.667 -3 -32 -3 -46c0 -102.667 58.333 -154 175 -154l-14 -100c-175.333 0 -263 77 -263 231c0 21.333 1.66699 44.333 5 69l49 350c2 16.667 3 32 3 46c0 102.667 -58.333 154 -175 154z" />
    <glyph glyph-name="bar" unicode="|" horiz-adv-x="300" 
d="M425 1600l-253 -1800h-100l253 1800h100z" />
    <glyph glyph-name="braceright" unicode="}" horiz-adv-x="700" 
d="M691 650c-133.333 0 -209.333 -66.668 -228 -200.001l-49 -350c-28 -200 -142 -300 -342 -300l14 100c133.333 0 209.333 66.667 228 200l49 350c20.667 146.667 89 230 205 250c-92.667 16.667 -139 78.334 -139 185.001c0 20 1.66699 41.667 5 65l49 350
c2 16.667 3 32 3 46c0 102.667 -58.333 154 -175 154l14 100c175.333 0 263 -77 263 -231c0 -21.333 -1.66699 -44.333 -5 -69l-49 -350c-2 -16.667 -3 -32 -3 -46c0 -102.667 58.333 -154 175 -154z" />
    <glyph glyph-name="asciitilde" unicode="~" 
d="M170 500c28 200 125.333 300 292 300c86.667 0 155.334 -33.333 206.001 -100s109.334 -100 176.001 -100c93.333 0 149.333 66.667 168 200h100c-28 -200 -125.333 -300 -292 -300c-86.667 0 -155.334 33.333 -206.001 100s-109.334 100 -176.001 100
c-93.333 0 -149.333 -66.667 -168 -200h-100z" />
    <glyph glyph-name="uni00A0" unicode="&#xa0;" horiz-adv-x="400" 
 />
    <glyph glyph-name="exclamdown" unicode="&#xa1;" horiz-adv-x="300" 
d="M285 600l-141 -1000h-100l141 1000h100zM341 1000l-28 -200h-100l28 200h100z" />
    <glyph glyph-name="cent" unicode="&#xa2;" horiz-adv-x="900" 
d="M747 1400l-28 -200h250l-15 -100h-250l-112 -800h250l-14 -100h-250l-28 -200h-100l28 200h-50c-175.333 0 -263 77 -263 231c0 21.333 1.66699 44.333 5 69l56 400c28.667 200 143 300 343 300h50l28 200h100zM270 500c-2 -16.667 -3 -32 -3 -46
c0 -102.667 58.333 -154 175 -154h50l112 800h-50c-133.333 0 -209.333 -66.667 -228 -200z" />
    <glyph glyph-name="sterling" unicode="&#xa3;" 
d="M455 750h650l-14 -100h-650l-77 -550h650l-14 -100h-900l14 100h150l77 550h-150l14 100h150l36 250c37.333 266.667 189.333 400 456 400h350l-14 -100h-350c-200 0 -314 -100 -342 -300z" />
    <glyph glyph-name="yen" unicode="&#xa5;" horiz-adv-x="1000" 
d="M307 1400l291 -700l489 700h110l-563 -800h350l-14 -100h-350l-28 -200h350l-14 -100h-350l-28 -200h-100l28 200h-350l14 100h350l28 200h-350l14 100h350l-337 800h110z" />
    <glyph glyph-name="brokenbar" unicode="&#xa6;" horiz-adv-x="300" 
d="M425 1600l-112 -800h-100l112 800h100zM284 600l-112 -800h-100l112 800h100z" />
    <glyph glyph-name="dieresis" unicode="&#xa8;" horiz-adv-x="600" 
d="M255 1100l28 200h100l-28 -200h-100zM555 1100l28 200h100l-28 -200h-100z" />
    <glyph glyph-name="copyright" unicode="&#xa9;" horiz-adv-x="1395" 
d="M1393 699c-23.333 -165.333 -101.501 -306.335 -234.501 -423.002s-281.833 -175 -446.5 -175c-165.333 0 -298 58.333 -398 175c-82 94.667 -123 205.334 -123 332.001c0 29.333 2.33301 59.666 7 90.999c23.333 164.667 101.5 305.334 234.5 422.001
s282.167 175 447.5 175c164.667 0 297.334 -58.333 398.001 -175c81.333 -94.667 122 -205 122 -331c0 -29.333 -2.33301 -59.666 -7 -90.999zM866.999 1206c-146 0 -273.667 -48 -383 -144s-174.333 -217 -195 -363c-4 -29.333 -6 -57.666 -6 -84.999
c0 -108.667 33 -201.334 99 -278.001c82.667 -96 197 -144 343 -144s273.667 48 383 144s174.333 217 195 363c4 29.333 6 57.666 6 84.999c0 108.667 -33 201.334 -99 278.001c-82.667 96 -197 144 -343 144zM999.999 744.998
c-2.66699 36.667 -15.999 69.332 -39.999 97.999c-34 38.667 -78.667 58 -134 58s-105.166 -19.5 -149.499 -58.5s-70.5 -86.167 -78.5 -141.5c-1.33301 -10.667 -2 -21 -2 -31c0 -42 13.667 -78.667 41 -110c33.333 -39.333 77.666 -59 132.999 -59s105.333 19.667 150 59
c27.333 24 47.666 51 60.999 81h103c-18.667 -57.333 -53.334 -108 -104.001 -152c-66.667 -58.667 -141.334 -88 -224.001 -88s-149 29.333 -199 88c-41.333 48 -62 104 -62 168c0 14 1 28.667 3 44c12 82.667 51.333 153.334 118 212.001s141.334 88 224.001 88
s149.334 -29.333 200.001 -88c40.667 -47.333 61 -102.333 61 -165v-3h-101z" />
    <glyph glyph-name="guillemotleft" unicode="&#xab;" horiz-adv-x="852" 
d="M191 650l343 450h120l-343 -450l217 -450h-120zM443 650l343 450h120l-343 -450l217 -450h-120z" />
    <glyph glyph-name="logicalnot" unicode="&#xac;" horiz-adv-x="900" 
d="M905 750l-56 -400h-100l42 300h-600l14 100h700z" />
    <glyph glyph-name="registered" unicode="&#xae;" horiz-adv-x="1395" 
d="M890 1010c125.333 0 188 -47.667 188 -143c0 -12 -1 -24.667 -3 -38c-14.667 -104 -68.667 -165.667 -162 -185l99 -267h-102l-96 261h-188l-36 -261h-91l89 633h302zM850 729c80 0 124.667 33.333 134 100c0.666992 6 1 11.667 1 17c0 49.333 -36 74 -108 74h-211
l-27 -191h211zM1393 699c-23.333 -165.333 -101.501 -306.335 -234.501 -423.002s-281.833 -175 -446.5 -175c-165.333 0 -298 58.333 -398 175c-82 94.667 -123 205.334 -123 332.001c0 29.333 2.33301 59.666 7 90.999c23.333 164.667 101.5 305.334 234.5 422.001
s282.167 175 447.5 175c164.667 0 297.334 -58.333 398.001 -175c81.333 -94.667 122 -205 122 -331c0 -29.333 -2.33301 -59.666 -7 -90.999zM866.999 1206c-146 0 -273.667 -48 -383 -144s-174.333 -217 -195 -363c-4 -29.333 -6 -57.666 -6 -84.999
c0 -108.667 33 -201.334 99 -278.001c82.667 -96 197 -144 343 -144s273.667 48 383 144s174.333 217 195 363c4 29.333 6 57.666 6 84.999c0 108.667 -33 201.334 -99 278.001c-82.667 96 -197 144 -343 144z" />
    <glyph glyph-name="degree" unicode="&#xb0;" horiz-adv-x="600" 
d="M669 1200c-8 -55.333 -34.168 -102.5 -78.501 -141.5s-94.166 -58.5 -149.499 -58.5s-99.666 19.667 -132.999 59c-27.333 31.333 -41 68 -41 110c0 10 0.666992 20.333 2 31c7.33301 55.333 33.333 102.5 78 141.5s94.667 58.5 150 58.5s99.666 -19.333 132.999 -58
c27.333 -32 41 -69.667 41 -113c0 -9.33301 -0.666992 -19 -2 -29zM482.999 1300c-27.333 0 -52.332 -9.83398 -74.999 -29.501s-35.667 -43.167 -39 -70.5c-0.666992 -5.33301 -1 -10.333 -1 -15c0 -21.333 7 -39.666 21 -54.999c16.667 -20 38.667 -30 66 -30
s52.166 9.83301 74.499 29.5s35.5 43.167 39.5 70.5c0.666992 4.66699 1 9 1 13c0 22 -7 41.333 -21 58c-16.667 19.333 -38.667 29 -66 29z" />
    <glyph glyph-name="plusminus" unicode="&#xb1;" horiz-adv-x="900" 
d="M505 750l43 300h100l-43 -300h300l-14 -100h-300l-42 -300h-100l42 300h-300l14 100h300zM814 100l-14 -100h-700l14 100h700z" />
    <glyph glyph-name="acute" unicode="&#xb4;" horiz-adv-x="400" 
d="M255 1100l132 300h110l-132 -300h-110z" />
    <glyph glyph-name="mu" unicode="&#xb5;" horiz-adv-x="1090" 
d="M216 1005h162l187 -864l429 864h162l-142 -1013h-115l113 805l-394 -805h-148l-168 805l-113 -805h-115z" />
    <glyph glyph-name="paragraph" unicode="&#xb6;" 
d="M1196 1400l-253 -1800h-100l239 1700h-200l-239 -1700h-100l141 1000h-100c-234 0 -351 102.667 -351 308c0 28.667 2.33301 59.334 7 92.001c37.333 266.667 189.333 400 456 400h500z" />
    <glyph glyph-name="periodcentered" unicode="&#xb7;" horiz-adv-x="300" 
d="M184 600l28 200h100l-28 -200h-100z" />
    <glyph glyph-name="cedilla" unicode="&#xb8;" horiz-adv-x="550" 
d="M186 -100c11.333 0.666992 22 0.999023 32 0.999023c134 0 201 -37.333 201 -112c0 -6 -0.333008 -12.333 -1 -19c-14 -100 -77.667 -150 -191 -150c-66.667 0 -125.334 10 -176.001 30l11 80c50.667 -20 109.334 -30 176.001 -30c60 0 93.333 23.333 100 70
c0.666992 2.66699 1 5.33398 1 8.00098c0 41.333 -53.667 62 -161 62z" />
    <glyph glyph-name="guillemotright" unicode="&#xbb;" horiz-adv-x="852" 
d="M248 200h-120l343 450l-217 450h120l217 -450zM500 200h-120l343 450l-217 450h120l217 -450z" />
    <glyph glyph-name="questiondown" unicode="&#xbf;" 
d="M785 600l-50 -350h-300c-133.333 0 -209.333 -66.667 -228 -200l-21 -150c-2 -16.667 -3 -32 -3 -46c0 -102.667 58.333 -154 175 -154h600l-14 -100h-600c-175.333 0 -263 77 -263 231c0 21.333 1.66699 44.333 5 69l21 150c28 200 142 300 342 300h200l36 250h100z
M713 800l28 200h100l-28 -200h-100z" />
    <glyph glyph-name="Agrave" unicode="&#xc0;" horiz-adv-x="1000" 
d="M1000 0h-100l-67 400h-554l-179 -400h-100l617 1400h160zM324 500h492l-133 800zM668 1500l-48 300h110l48 -300h-110z" />
    <glyph glyph-name="Aacute" unicode="&#xc1;" horiz-adv-x="1000" 
d="M1000 0h-100l-67 400h-554l-179 -400h-100l617 1400h160zM324 500h492l-133 800zM644 1500l132 300h110l-132 -300h-110z" />
    <glyph glyph-name="Acircumflex" unicode="&#xc2;" horiz-adv-x="1000" 
d="M1000 0h-100l-67 400h-554l-179 -400h-100l617 1400h160zM324 500h492l-133 800zM683 1800h140l138 -300h-120l-102 200l-158 -200h-120z" />
    <glyph glyph-name="Atilde" unicode="&#xc3;" horiz-adv-x="1000" 
d="M1000 0h-100l-67 400h-554l-179 -400h-100l617 1400h160zM324 500h492l-133 800zM341 1500c23.333 166.667 98.333 250 225 250c86.667 0 148.167 -25 184.5 -75s87.833 -75 154.5 -75c60 0 97 50 111 150h100c-23.333 -166.667 -98.333 -250 -225 -250
c-86.667 0 -148.167 25 -184.5 75s-87.833 75 -154.5 75c-60 0 -97 -50 -111 -150h-100z" />
    <glyph glyph-name="Adieresis" unicode="&#xc4;" horiz-adv-x="1000" 
d="M1000 0h-100l-67 400h-554l-179 -400h-100l617 1400h160zM324 500h492l-133 800zM511 1500l28 200h100l-28 -200h-100zM811 1500l28 200h100l-28 -200h-100z" />
    <glyph glyph-name="Aring" unicode="&#xc5;" horiz-adv-x="1000" 
d="M1000 0h-100l-67 400h-554l-179 -400h-100l617 1400h160zM324 500h492l-133 800zM939 1700c-8 -55.333 -34.168 -102.5 -78.501 -141.5s-94.166 -58.5 -149.499 -58.5s-99.666 19.667 -132.999 59c-27.333 31.333 -41 68 -41 110c0 10 0.666992 20.333 2 31
c8 55.333 34.167 102.5 78.5 141.5s94.166 58.5 149.499 58.5s100 -19.333 134 -58c26.667 -32 40 -69 40 -111c0 -10 -0.666992 -20.333 -2 -31zM752.999 1800c-27.333 0 -52.167 -9.83398 -74.5 -29.501s-35.5 -43.167 -39.5 -70.5c-0.666992 -5.33301 -1 -10.333 -1 -15
c0 -21.333 7 -39.666 21 -54.999c16.667 -20 38.667 -30 66 -30s52.166 9.83301 74.499 29.5s35.5 43.167 39.5 70.5c0.666992 5.33301 1 10.333 1 15c0 21.333 -6.66699 40 -20 56c-17.333 19.333 -39.666 29 -66.999 29z" />
    <glyph glyph-name="AE" unicode="&#xc6;" horiz-adv-x="1600" 
d="M1605 750l-14 -100h-600l-77 -550h600l-14 -100h-700l56 400h-577l-179 -400h-100l617 1400h1080l-14 -100h-600l-78 -550h600zM983 1300h-300l-359 -800h546z" />
    <glyph glyph-name="Ccedilla" unicode="&#xc7;" horiz-adv-x="1000" 
d="M242 300c-2 -16.667 -3 -32 -3 -46c0 -102.667 58.333 -154 175 -154h500l-14 -100h-500c-175.333 0 -263 77 -263 231c0 21.333 1.66699 44.333 5 69l113 800c28 200 142 300 342 300h500l-14 -100h-500c-133.333 0 -209.333 -66.667 -228 -200zM486 -100
c11.333 0.666992 22 0.999023 32 0.999023c134 0 201 -37.333 201 -112c0 -6 -0.333008 -12.333 -1 -19c-14 -100 -77.667 -150 -191 -150c-66.667 0 -125.334 10 -176.001 30l11 80c50.667 -20 109.334 -30 176.001 -30c60 0 93.333 23.333 100 70
c0.666992 2.66699 1 5.33398 1 8.00098c0 41.333 -53.667 62 -161 62z" />
    <glyph glyph-name="Egrave" unicode="&#xc8;" horiz-adv-x="1000" 
d="M1005 750l-14 -100h-700l-77 -550h700l-14 -100h-800l197 1400h800l-14 -100h-700l-78 -550h700zM668 1500l-48 300h110l48 -300h-110z" />
    <glyph glyph-name="Eacute" unicode="&#xc9;" horiz-adv-x="1000" 
d="M1005 750l-14 -100h-700l-77 -550h700l-14 -100h-800l197 1400h800l-14 -100h-700l-78 -550h700zM644 1500l132 300h110l-132 -300h-110z" />
    <glyph glyph-name="Ecircumflex" unicode="&#xca;" horiz-adv-x="1000" 
d="M1005 750l-14 -100h-700l-77 -550h700l-14 -100h-800l197 1400h800l-14 -100h-700l-78 -550h700zM683 1800h140l138 -300h-120l-102 200l-158 -200h-120z" />
    <glyph glyph-name="Edieresis" unicode="&#xcb;" horiz-adv-x="1000" 
d="M1005 750l-14 -100h-700l-77 -550h700l-14 -100h-800l197 1400h800l-14 -100h-700l-78 -550h700zM511 1500l28 200h100l-28 -200h-100zM811 1500l28 200h100l-28 -200h-100z" />
    <glyph glyph-name="Igrave" unicode="&#xcc;" horiz-adv-x="300" 
d="M397 1400l-197 -1400h-100l197 1400h100zM319 1500l-48 300h110l48 -300h-110z" />
    <glyph glyph-name="Iacute" unicode="&#xcd;" horiz-adv-x="300" 
d="M397 1400l-197 -1400h-100l197 1400h100zM295 1500l132 300h110l-132 -300h-110z" />
    <glyph glyph-name="Icircumflex" unicode="&#xce;" horiz-adv-x="300" 
d="M397 1400l-197 -1400h-100l197 1400h100zM334 1800h140l138 -300h-120l-102 200l-158 -200h-120z" />
    <glyph glyph-name="Idieresis" unicode="&#xcf;" horiz-adv-x="300" 
d="M397 1400l-197 -1400h-100l197 1400h100zM162 1500l28 200h100l-28 -200h-100zM462 1500l28 200h100l-28 -200h-100z" />
    <glyph glyph-name="Eth" unicode="&#xd0;" 
d="M896 1400c175.333 0 263 -77 263 -231c0 -21.333 -1.66699 -44.333 -5 -69l-112 -800c-28 -200 -142 -300 -342 -300h-600l91 650h-200l14 100h200l91 650h600zM1054 1100c2 16.667 3 32 3 46c0 102.667 -58.333 154 -175 154h-500l-77 -550h200l-14 -100h-200l-77 -550
h500c133.333 0 209.333 66.667 228 200z" />
    <glyph glyph-name="Ntilde" unicode="&#xd1;" 
d="M397 1400l531 -1200l169 1200h100l-197 -1400h-100l-531 1200l-169 -1200h-100l197 1400h100zM391 1500c23.333 166.667 98.333 250 225 250c86.667 0 148.167 -25 184.5 -75s87.833 -75 154.5 -75c60 0 97 50 111 150h100c-23.333 -166.667 -98.333 -250 -225 -250
c-86.667 0 -148.167 25 -184.5 75s-87.833 75 -154.5 75c-60 0 -97 -50 -111 -150h-100z" />
    <glyph glyph-name="Ograve" unicode="&#xd2;" horiz-adv-x="1150" 
d="M1092 300c-28 -200 -142 -300 -342 -300h-350c-175.333 0 -263 77 -263 231c0 21.333 1.66699 44.333 5 69l113 800c28 200 142 300 342 300h350c175.333 0 263 -77 263 -231c0 -21.333 -1.66699 -44.333 -5 -69zM242 300c-2 -16.667 -3 -32 -3 -46
c0 -102.667 58.333 -154 175 -154h350c133.333 0 209.333 66.667 228 200l113 800c2 16.667 3 32 3 46c0 102.667 -58.333 154 -175 154h-350c-133.333 0 -209.333 -66.667 -228 -200zM743 1500l-48 300h110l48 -300h-110z" />
    <glyph glyph-name="Oacute" unicode="&#xd3;" horiz-adv-x="1150" 
d="M1092 300c-28 -200 -142 -300 -342 -300h-350c-175.333 0 -263 77 -263 231c0 21.333 1.66699 44.333 5 69l113 800c28 200 142 300 342 300h350c175.333 0 263 -77 263 -231c0 -21.333 -1.66699 -44.333 -5 -69zM242 300c-2 -16.667 -3 -32 -3 -46
c0 -102.667 58.333 -154 175 -154h350c133.333 0 209.333 66.667 228 200l113 800c2 16.667 3 32 3 46c0 102.667 -58.333 154 -175 154h-350c-133.333 0 -209.333 -66.667 -228 -200zM719 1500l132 300h110l-132 -300h-110z" />
    <glyph glyph-name="Ocircumflex" unicode="&#xd4;" horiz-adv-x="1150" 
d="M1092 300c-28 -200 -142 -300 -342 -300h-350c-175.333 0 -263 77 -263 231c0 21.333 1.66699 44.333 5 69l113 800c28 200 142 300 342 300h350c175.333 0 263 -77 263 -231c0 -21.333 -1.66699 -44.333 -5 -69zM242 300c-2 -16.667 -3 -32 -3 -46
c0 -102.667 58.333 -154 175 -154h350c133.333 0 209.333 66.667 228 200l113 800c2 16.667 3 32 3 46c0 102.667 -58.333 154 -175 154h-350c-133.333 0 -209.333 -66.667 -228 -200zM758 1800h140l138 -300h-120l-102 200l-158 -200h-120z" />
    <glyph glyph-name="Otilde" unicode="&#xd5;" horiz-adv-x="1150" 
d="M1092 300c-28 -200 -142 -300 -342 -300h-350c-175.333 0 -263 77 -263 231c0 21.333 1.66699 44.333 5 69l113 800c28 200 142 300 342 300h350c175.333 0 263 -77 263 -231c0 -21.333 -1.66699 -44.333 -5 -69zM242 300c-2 -16.667 -3 -32 -3 -46
c0 -102.667 58.333 -154 175 -154h350c133.333 0 209.333 66.667 228 200l113 800c2 16.667 3 32 3 46c0 102.667 -58.333 154 -175 154h-350c-133.333 0 -209.333 -66.667 -228 -200zM416 1500c23.333 166.667 98.333 250 225 250c86.667 0 148.167 -25 184.5 -75
s87.833 -75 154.5 -75c60 0 97 50 111 150h100c-23.333 -166.667 -98.333 -250 -225 -250c-86.667 0 -148.167 25 -184.5 75s-87.833 75 -154.5 75c-60 0 -97 -50 -111 -150h-100z" />
    <glyph glyph-name="Odieresis" unicode="&#xd6;" horiz-adv-x="1150" 
d="M1092 300c-28 -200 -142 -300 -342 -300h-350c-175.333 0 -263 77 -263 231c0 21.333 1.66699 44.333 5 69l113 800c28 200 142 300 342 300h350c175.333 0 263 -77 263 -231c0 -21.333 -1.66699 -44.333 -5 -69zM242 300c-2 -16.667 -3 -32 -3 -46
c0 -102.667 58.333 -154 175 -154h350c133.333 0 209.333 66.667 228 200l113 800c2 16.667 3 32 3 46c0 102.667 -58.333 154 -175 154h-350c-133.333 0 -209.333 -66.667 -228 -200zM586 1500l28 200h100l-28 -200h-100zM886 1500l28 200h100l-28 -200h-100z" />
    <glyph glyph-name="multiply" unicode="&#xd7;" horiz-adv-x="907" 
d="M482 700l-243 283l81 71l243 -283l322 283l61 -71l-323 -283l243 -283l-81 -71l-242 283l-323 -283l-61 71z" />
    <glyph glyph-name="Oslash" unicode="&#xd8;" horiz-adv-x="1150" 
d="M1045 1390c110 -25.333 165 -99 165 -221c0 -21.333 -1.66699 -44.333 -5 -69l-113 -800c-28 -200 -142 -300 -342 -300h-302l-86 -200h-100l86 202c-140.667 14.667 -211 91 -211 229c0 21.333 1.66699 44.333 5 69l113 800c28 200 142 300 342 300h352l86 200h100z
M242 300c-2 -16 -3 -31.333 -3 -46c0 -96 50.667 -147.333 152 -154l515 1200h-323c-133.333 0 -209.333 -66.667 -228 -200zM1105 1100c2 16 3 31 3 45c0 80 -35 129 -105 147l-512 -1192h273c133.333 0 209.333 66.667 228 200z" />
    <glyph glyph-name="Ugrave" unicode="&#xd9;" 
d="M397 1400l-155 -1100c-2 -16.667 -3 -32 -3 -46c0 -102.667 58.333 -154 175 -154h300c133.333 0 209.333 66.667 228 200l155 1100h100l-155 -1100c-28 -200 -142 -300 -342 -300h-300c-175.333 0 -263 77 -263 231c0 21.333 1.66699 44.333 5 69l155 1100h100z
M718 1500l-48 300h110l48 -300h-110z" />
    <glyph glyph-name="Uacute" unicode="&#xda;" 
d="M397 1400l-155 -1100c-2 -16.667 -3 -32 -3 -46c0 -102.667 58.333 -154 175 -154h300c133.333 0 209.333 66.667 228 200l155 1100h100l-155 -1100c-28 -200 -142 -300 -342 -300h-300c-175.333 0 -263 77 -263 231c0 21.333 1.66699 44.333 5 69l155 1100h100z
M694 1500l132 300h110l-132 -300h-110z" />
    <glyph glyph-name="Ucircumflex" unicode="&#xdb;" 
d="M397 1400l-155 -1100c-2 -16.667 -3 -32 -3 -46c0 -102.667 58.333 -154 175 -154h300c133.333 0 209.333 66.667 228 200l155 1100h100l-155 -1100c-28 -200 -142 -300 -342 -300h-300c-175.333 0 -263 77 -263 231c0 21.333 1.66699 44.333 5 69l155 1100h100z
M733 1800h140l138 -300h-120l-102 200l-158 -200h-120z" />
    <glyph glyph-name="Udieresis" unicode="&#xdc;" 
d="M397 1400l-155 -1100c-2 -16.667 -3 -32 -3 -46c0 -102.667 58.333 -154 175 -154h300c133.333 0 209.333 66.667 228 200l155 1100h100l-155 -1100c-28 -200 -142 -300 -342 -300h-300c-175.333 0 -263 77 -263 231c0 21.333 1.66699 44.333 5 69l155 1100h100z
M561 1500l28 200h100l-28 -200h-100zM861 1500l28 200h100l-28 -200h-100z" />
    <glyph glyph-name="Yacute" unicode="&#xdd;" horiz-adv-x="1000" 
d="M307 1400l292 -700l488 700h110l-562 -800l-85 -600h-100l85 600l-338 800h110zM644 1500l132 300h110l-132 -300h-110z" />
    <glyph glyph-name="Thorn" unicode="&#xde;" 
d="M745 320h-500l-45 -320h-100l197 1400h100l-47 -330h500c175.333 0 263 -77 263 -231c0 -21.333 -1.66699 -44.333 -5 -69l-21 -150c-28 -200 -142 -300 -342 -300zM336 970l-77 -550h500c133.333 0 209.333 66.667 228 200l21 150c2 16.667 3 32 3 46
c0 102.667 -58.333 154 -175 154h-500z" />
    <glyph glyph-name="germandbls" unicode="&#xdf;" horiz-adv-x="1690" 
d="M74 -8l15 110h470c86.667 0 135.667 39.667 147 119l15 104c1.33301 9.33301 2 18 2 26c0 62 -38.333 93 -115 93h-225c-144.667 0 -217 59.333 -217 178c0 16 1.33301 32.667 4 50l14 105c21.333 152 113.666 228 276.999 228h470l-15 -109h-470
c-86.667 0 -135.667 -39.667 -147 -119l-14 -105c-1.33301 -9.33301 -2 -18 -2 -26c0 -62 38.333 -93 115 -93h225c144.667 0 217 -59.333 217 -178c0 -16 -1.33301 -32.667 -4 -50l-15 -104c-21.333 -152.667 -113.666 -229 -276.999 -229h-470zM899 -8l15 110h470
c86.667 0 135.667 39.667 147 119l15 104c1.33301 9.33301 2 18 2 26c0 62 -38.333 93 -115 93h-225c-144.667 0 -217 59.333 -217 178c0 16 1.33301 32.667 4 50l14 105c21.333 152 113.666 228 276.999 228h470l-15 -109h-470c-86.667 0 -135.667 -39.667 -147 -119
l-14 -105c-1.33301 -9.33301 -2 -18 -2 -26c0 -62 38.333 -93 115 -93h225c144.667 0 217 -59.333 217 -178c0 -16 -1.33301 -32.667 -4 -50l-15 -104c-21.333 -152.667 -113.666 -229 -276.999 -229h-470z" />
    <glyph glyph-name="agrave" unicode="&#xe0;" horiz-adv-x="805" 
d="M804 -8h-117l-53 278h-387l-131 -278h-117l470 1013h149zM300 380h313l-91 472zM514 1100l-48 300h110l48 -300h-110z" />
    <glyph glyph-name="aacute" unicode="&#xe1;" horiz-adv-x="805" 
d="M804 -8h-117l-53 278h-387l-131 -278h-117l470 1013h149zM300 380h313l-91 472zM491 1100l132 300h110l-132 -300h-110z" />
    <glyph glyph-name="acircumflex" unicode="&#xe2;" horiz-adv-x="805" 
d="M804 -8h-117l-53 278h-387l-131 -278h-117l470 1013h149zM300 380h313l-91 472zM530 1400h140l138 -300h-120l-102 200l-158 -200h-120z" />
    <glyph glyph-name="atilde" unicode="&#xe3;" horiz-adv-x="805" 
d="M804 -8h-117l-53 278h-387l-131 -278h-117l470 1013h149zM300 380h313l-91 472zM188 1100c23.333 166.667 98.333 250 225 250c86.667 0 148.167 -25 184.5 -75s87.833 -75 154.5 -75c60 0 97 50 111 150h100c-23.333 -166.667 -98.333 -250 -225 -250
c-86.667 0 -148.167 25 -184.5 75s-87.833 75 -154.5 75c-60 0 -97 -50 -111 -150h-100z" />
    <glyph glyph-name="adieresis" unicode="&#xe4;" horiz-adv-x="805" 
d="M804 -8h-117l-53 278h-387l-131 -278h-117l470 1013h149zM300 380h313l-91 472zM358 1100l28 200h100l-28 -200h-100zM658 1100l28 200h100l-28 -200h-100z" />
    <glyph glyph-name="aring" unicode="&#xe5;" horiz-adv-x="805" 
d="M804 -8h-117l-53 278h-387l-131 -278h-117l470 1013h149zM300 380h313l-91 472zM786 1300c-8 -55.333 -34.168 -102.5 -78.501 -141.5s-94.166 -58.5 -149.499 -58.5s-99.666 19.667 -132.999 59c-27.333 31.333 -41 68 -41 110c0 10 0.666992 20.333 2 31
c7.33301 55.333 33.333 102.5 78 141.5s94.667 58.5 150 58.5s99.666 -19.333 132.999 -58c27.333 -32 41 -69.667 41 -113c0 -9.33301 -0.666992 -19 -2 -29zM599.999 1400c-27.333 0 -52.167 -9.83398 -74.5 -29.501s-35.5 -43.167 -39.5 -70.5
c-0.666992 -5.33301 -1 -10.333 -1 -15c0 -21.333 7 -39.666 21 -54.999c16.667 -20 38.667 -30 66 -30s52.166 9.83301 74.499 29.5s35.5 43.167 39.5 70.5c0.666992 5.33301 1 10.333 1 15c0 21.333 -6.66699 40 -20 56c-17.333 19.333 -39.666 29 -66.999 29z" />
    <glyph glyph-name="ae" unicode="&#xe6;" horiz-adv-x="1247" 
d="M1250 553l-15 -109h-450l-49 -342h450l-15 -110h-565l39 278h-398l-131 -278h-117l470 1013h844l-15 -109h-450l-48 -343h450zM733 896h-190l-243 -516h361z" />
    <glyph glyph-name="ccedilla" unicode="&#xe7;" horiz-adv-x="790" 
d="M221 221c-1.33301 -9.33301 -1.99902 -18 -1.99902 -26c0 -62 38.333 -93 115 -93h395l-15 -110h-395c-144.667 0 -217 59.667 -217 179c0 16 1.33301 32.667 4 50l78 556c21.333 152 113.666 228 276.999 228h395l-15 -109h-395c-86.667 0 -135.667 -39.667 -147 -119z
M336.001 -101c11.333 0.666992 22 1 32 1c134 0 201 -37.333 201 -112c0 -6 -0.333008 -12.333 -1 -19c-14 -100 -77.667 -150 -191 -150c-66.667 0 -125.334 10 -176.001 30l11 80c50.667 -20 109.334 -30 176.001 -30c60 0 93.333 23.333 100 70v7
c0 42 -53.667 63 -161 63z" />
    <glyph glyph-name="egrave" unicode="&#xe8;" horiz-adv-x="790" 
d="M793 553l-15 -109h-525l-49 -342h525l-15 -110h-640l142 1013h640l-15 -109h-525l-48 -343h525zM507 1100l-48 300h110l48 -300h-110z" />
    <glyph glyph-name="eacute" unicode="&#xe9;" horiz-adv-x="790" 
d="M793 553l-15 -109h-525l-49 -342h525l-15 -110h-640l142 1013h640l-15 -109h-525l-48 -343h525zM483 1100l132 300h110l-132 -300h-110z" />
    <glyph glyph-name="ecircumflex" unicode="&#xea;" horiz-adv-x="790" 
d="M793 553l-15 -109h-525l-49 -342h525l-15 -110h-640l142 1013h640l-15 -109h-525l-48 -343h525zM522 1400h140l138 -300h-120l-102 200l-158 -200h-120z" />
    <glyph glyph-name="edieresis" unicode="&#xeb;" horiz-adv-x="790" 
d="M793 553l-15 -109h-525l-49 -342h525l-15 -110h-640l142 1013h640l-15 -109h-525l-48 -343h525zM350 1100l28 200h100l-28 -200h-100zM650 1100l28 200h100l-28 -200h-100z" />
    <glyph glyph-name="igrave" unicode="&#xec;" horiz-adv-x="265" 
d="M331 1005l-142 -1013h-115l142 1013h115zM244 1100l-48 300h110l48 -300h-110z" />
    <glyph glyph-name="iacute" unicode="&#xed;" horiz-adv-x="265" 
d="M331 1005l-142 -1013h-115l142 1013h115zM221 1100l132 300h110l-132 -300h-110z" />
    <glyph glyph-name="icircumflex" unicode="&#xee;" horiz-adv-x="265" 
d="M333 1005l-143 -1013h-115l143 1013h115zM260 1400h140l138 -300h-120l-102 200l-158 -200h-120z" />
    <glyph glyph-name="idieresis" unicode="&#xef;" horiz-adv-x="265" 
d="M332 1005l-142 -1013h-115l142 1013h115zM88 1100l28 200h100l-28 -200h-100zM388 1100l28 200h100l-28 -200h-100z" />
    <glyph glyph-name="eth" unicode="&#xf0;" horiz-adv-x="865" 
d="M686 1005c144.667 0 217 -59.333 217 -178c0 -16 -1.33301 -32.667 -4 -50l-78 -556c-22 -152.667 -114.667 -229 -278 -229h-470l64 452h-150l15 109h150l64 452h470zM784 777c1.33301 9.33301 2 18 2 26c0 62 -38.333 93 -115 93h-355l-49 -343h150l-15 -109h-150
l-48 -342h355c86.667 0 135.667 39.667 147 119z" />
    <glyph glyph-name="ntilde" unicode="&#xf1;" horiz-adv-x="865" 
d="M323 1005l384 -785l110 785h115l-142 -1013h-106l-384 785l-110 -785h-115l142 1013h106zM218 1100c23.333 166.667 98.333 250 225 250c86.667 0 148.167 -25 184.5 -75s87.833 -75 154.5 -75c60 0 97 50 111 150h100c-23.333 -166.667 -98.333 -250 -225 -250
c-86.667 0 -148.167 25 -184.5 75s-87.833 75 -154.5 75c-60 0 -97 -50 -111 -150h-100z" />
    <glyph glyph-name="ograve" unicode="&#xf2;" horiz-adv-x="903" 
d="M859 221c-21.333 -152.667 -113.666 -229 -276.999 -229h-263c-144.667 0 -217 59.667 -217 179c0 16 1.33301 32.667 4 50l78 556c21.333 152 113.666 228 276.999 228h263c144.667 0 217 -59.333 217 -178c0 -16 -1.33301 -32.667 -4 -50zM221 221
c-1.33301 -9.33301 -2 -18 -2 -26c0 -62 38.333 -93 115 -93h263c86.667 0 135.667 39.667 147 119l78 556c1.33301 9.33301 2 18 2 26c0 62 -38.333 93 -115 93h-263c-86.667 0 -135.667 -39.667 -147 -119zM563 1100l-48 300h110l48 -300h-110z" />
    <glyph glyph-name="oacute" unicode="&#xf3;" horiz-adv-x="903" 
d="M859 221c-21.333 -152.667 -113.666 -229 -276.999 -229h-263c-144.667 0 -217 59.667 -217 179c0 16 1.33301 32.667 4 50l78 556c21.333 152 113.666 228 276.999 228h263c144.667 0 217 -59.333 217 -178c0 -16 -1.33301 -32.667 -4 -50zM221 221
c-1.33301 -9.33301 -2 -18 -2 -26c0 -62 38.333 -93 115 -93h263c86.667 0 135.667 39.667 147 119l78 556c1.33301 9.33301 2 18 2 26c0 62 -38.333 93 -115 93h-263c-86.667 0 -135.667 -39.667 -147 -119zM540 1100l132 300h110l-132 -300h-110z" />
    <glyph glyph-name="ocircumflex" unicode="&#xf4;" horiz-adv-x="903" 
d="M859 221c-21.333 -152.667 -113.666 -229 -276.999 -229h-263c-144.667 0 -217 59.667 -217 179c0 16 1.33301 32.667 4 50l78 556c21.333 152 113.666 228 276.999 228h263c144.667 0 217 -59.333 217 -178c0 -16 -1.33301 -32.667 -4 -50zM221 221
c-1.33301 -9.33301 -2 -18 -2 -26c0 -62 38.333 -93 115 -93h263c86.667 0 135.667 39.667 147 119l78 556c1.33301 9.33301 2 18 2 26c0 62 -38.333 93 -115 93h-263c-86.667 0 -135.667 -39.667 -147 -119zM579 1400h140l138 -300h-120l-102 200l-158 -200h-120z" />
    <glyph glyph-name="otilde" unicode="&#xf5;" horiz-adv-x="903" 
d="M859 221c-21.333 -152.667 -113.666 -229 -276.999 -229h-263c-144.667 0 -217 59.667 -217 179c0 16 1.33301 32.667 4 50l78 556c21.333 152 113.666 228 276.999 228h263c144.667 0 217 -59.333 217 -178c0 -16 -1.33301 -32.667 -4 -50zM221 221
c-1.33301 -9.33301 -2 -18 -2 -26c0 -62 38.333 -93 115 -93h263c86.667 0 135.667 39.667 147 119l78 556c1.33301 9.33301 2 18 2 26c0 62 -38.333 93 -115 93h-263c-86.667 0 -135.667 -39.667 -147 -119zM237 1100c23.333 166.667 98.333 250 225 250
c86.667 0 148.167 -25 184.5 -75s87.833 -75 154.5 -75c60 0 97 50 111 150h100c-23.333 -166.667 -98.333 -250 -225 -250c-86.667 0 -148.167 25 -184.5 75s-87.833 75 -154.5 75c-60 0 -97 -50 -111 -150h-100z" />
    <glyph glyph-name="odieresis" unicode="&#xf6;" horiz-adv-x="903" 
d="M859 221c-21.333 -152.667 -113.666 -229 -276.999 -229h-263c-144.667 0 -217 59.667 -217 179c0 16 1.33301 32.667 4 50l78 556c21.333 152 113.666 228 276.999 228h263c144.667 0 217 -59.333 217 -178c0 -16 -1.33301 -32.667 -4 -50zM221 221
c-1.33301 -9.33301 -2 -18 -2 -26c0 -62 38.333 -93 115 -93h263c86.667 0 135.667 39.667 147 119l78 556c1.33301 9.33301 2 18 2 26c0 62 -38.333 93 -115 93h-263c-86.667 0 -135.667 -39.667 -147 -119zM407 1100l28 200h100l-28 -200h-100zM707 1100l28 200h100
l-28 -200h-100z" />
    <glyph glyph-name="divide" unicode="&#xf7;" horiz-adv-x="900" 
d="M905 750l-14 -100h-700l14 100h700zM428 200l28 200h100l-28 -200h-100zM540 1000l28 200h100l-28 -200h-100z" />
    <glyph glyph-name="oslash" unicode="&#xf8;" horiz-adv-x="903" 
d="M822 993c79.333 -16.667 119 -70.332 119 -160.999c0 -16.667 -1.33301 -35 -4 -55l-78 -556c-21.333 -152.667 -113.666 -229 -276.999 -229h-212l-63 -139h-117l65 143c-102 10 -153 66.667 -153 170c0 17.333 1.33301 35.666 4 54.999l78 556
c21.333 152 113.666 228 276.999 228h249l64 139h117zM221 221.002c-1.33301 -10.667 -2 -20.333 -2 -29c0 -56 28 -86 84 -90l358 794h-215c-86.667 0 -135.667 -39.667 -147 -119zM822 777.003c2 11.333 2.99902 22 2.99902 32c0 44 -17 69.667 -51 77l-354 -784h178
c86.667 0 135.334 39.667 146.001 119z" />
    <glyph glyph-name="ugrave" unicode="&#xf9;" horiz-adv-x="865" 
d="M331 1005l-110.001 -784c-1.33301 -9.33301 -2 -18 -2 -26c0 -62 38.333 -93 115 -93h225c86.667 0 135.667 39.667 147 119l110 784h115l-110 -784c-21.333 -152.667 -113.666 -229 -276.999 -229h-225c-144.667 0 -217 59.667 -217 179c0 16 1.33301 32.667 4 50
l110 784h115zM543.999 1100l-48 300h110l48 -300h-110z" />
    <glyph glyph-name="uacute" unicode="&#xfa;" horiz-adv-x="865" 
d="M331 1005l-110.001 -784c-1.33301 -9.33301 -2 -18 -2 -26c0 -62 38.333 -93 115 -93h225c86.667 0 135.667 39.667 147 119l110 784h115l-110 -784c-21.333 -152.667 -113.666 -229 -276.999 -229h-225c-144.667 0 -217 59.667 -217 179c0 16 1.33301 32.667 4 50
l110 784h115zM520.999 1100l132 300h110l-132 -300h-110z" />
    <glyph glyph-name="ucircumflex" unicode="&#xfb;" horiz-adv-x="865" 
d="M331 1005l-110.001 -784c-1.33301 -9.33301 -2 -18 -2 -26c0 -62 38.333 -93 115 -93h225c86.667 0 135.667 39.667 147 119l110 784h115l-110 -784c-21.333 -152.667 -113.666 -229 -276.999 -229h-225c-144.667 0 -217 59.667 -217 179c0 16 1.33301 32.667 4 50
l110 784h115zM559.999 1400h140l138 -300h-120l-102 200l-158 -200h-120z" />
    <glyph glyph-name="udieresis" unicode="&#xfc;" horiz-adv-x="865" 
d="M331 1005l-110.001 -784c-1.33301 -9.33301 -2 -18 -2 -26c0 -62 38.333 -93 115 -93h225c86.667 0 135.667 39.667 147 119l110 784h115l-110 -784c-21.333 -152.667 -113.666 -229 -276.999 -229h-225c-144.667 0 -217 59.667 -217 179c0 16 1.33301 32.667 4 50
l110 784h115zM387.999 1100l28 200h100l-28 -200h-100zM687.999 1100l28 200h100l-28 -200h-100z" />
    <glyph glyph-name="yacute" unicode="&#xfd;" horiz-adv-x="821" 
d="M270 1005l216 -468l347 468h129l-435 -582l-60 -431h-115l60 431l-271 582h129zM498 1100l133 300h110l-133 -300h-110z" />
    <glyph glyph-name="thorn" unicode="&#xfe;" horiz-adv-x="865" 
d="M575 214h-355.001l-31 -222h-115l142 1013h115l-32 -229h355c144.667 0 217 -59.667 217 -179c0 -16 -1.33301 -32.667 -4 -50l-15 -104c-21.333 -152.667 -113.666 -229 -276.999 -229zM283.999 666l-48.001 -342h355c86.667 0 135.334 39.667 146.001 119l15 104
c1.33301 9.33301 2 18 2 26c0 62 -38.333 93 -115 93h-355z" />
    <glyph glyph-name="ydieresis" unicode="&#xff;" horiz-adv-x="821" 
d="M270 1005l216 -468l347 468h129l-435 -582l-60 -431h-115l60 431l-271 582h129zM365 1100l28 200h100l-28 -200h-100zM665 1100l28 200h100l-28 -200h-100z" />
    <glyph glyph-name="dotlessi" unicode="&#x131;" horiz-adv-x="265" 
d="M331 1005l-142 -1013h-115l142 1013h115z" />
    <glyph glyph-name="OE" unicode="&#x152;" horiz-adv-x="1700" 
d="M1705 750l-14 -100h-600l-77 -550h600l-14 -100h-700l13 91c-50 -60.667 -121 -91 -213 -91h-300c-175.333 0 -263 77 -263 231c0 21.333 1.66699 44.333 5 69l113 800c28 200 142 300 342 300h300c92 0 154.333 -30.667 187 -92l13 92h700l-14 -100h-600l-78 -550h600z
M242 300c-2 -16.667 -3 -32 -3 -46c0 -102.667 58.333 -154 175 -154h300c133.333 0 209.333 66.667 228 200l113 800c2 16.667 3 32 3 46c0 102.667 -58.333 154 -175 154h-300c-133.333 0 -209.333 -66.667 -228 -200z" />
    <glyph glyph-name="oe" unicode="&#x153;" horiz-adv-x="1315" 
d="M1318 553l-14.999 -109h-450l-49 -342h450l-15 -110h-565l10 72c-17.333 -48 -64 -72 -140 -72h-225c-144.667 0 -217 59.667 -217 179c0 16 1.33301 32.667 4 50l78 556c21.333 152 113.666 228 276.999 228h225c76 0 116 -24 120 -72l10 72h565l-15 -109h-450l-48 -343
h450zM221.001 221c-1.33301 -9.33301 -2 -18 -2 -26c0 -62 38.333 -93 115 -93h225c86.667 0 135.667 39.667 147 119l78 556c1.33301 9.33301 2 18 2 26c0 62 -38.333 93 -115 93h-225c-86.667 0 -135.667 -39.667 -147 -119z" />
    <glyph glyph-name="Scaron" unicode="&#x160;" 
d="M100 0l14 100.002h600c133.333 0 209.333 66.667 228 200l21 150c2 16.667 3 32 3 46c0 102.667 -58.333 154 -175 154h-300c-174.667 0 -262 76.667 -262 230c0 21.333 1.66699 44.666 5 69.999l21 150c28 200 142 300 342 300h600l-14 -100h-600
c-133.333 0 -209.333 -66.667 -228 -200l-21 -150c-2.66699 -16.667 -4 -32.334 -4 -47.001c0 -102 58.333 -153 175 -153h300c175.333 0 263 -77 263 -231c0 -21.333 -1.66699 -44.333 -5 -69l-21 -150c-28 -200 -142 -300 -342 -300h-600zM553 1800h120l102 -200l158 200
h120l-222 -300h-140z" />
    <glyph glyph-name="scaron" unicode="&#x161;" horiz-adv-x="865" 
d="M74 -8l15 110h470c86.667 0 135.667 39.667 147 119l15 104c1.33301 9.33301 2 18 2 26c0 62 -38.333 93 -115 93h-225c-144.667 0 -217 59.333 -217 178c0 16 1.33301 32.667 4 50l14 105c21.333 152 113.666 228 276.999 228h470l-15 -109h-470
c-86.667 0 -135.667 -39.667 -147 -119l-14 -105c-1.33301 -9.33301 -2 -18 -2 -26c0 -62 38.333 -93 115 -93h225c144.667 0 217 -59.333 217 -178c0 -16 -1.33301 -32.667 -4 -50l-15 -104c-21.333 -152.667 -113.666 -229 -276.999 -229h-470zM380 1400h120l102 -200
l158 200h120l-222 -300h-140z" />
    <glyph glyph-name="Ydieresis" unicode="&#x178;" horiz-adv-x="1000" 
d="M307 1400l292 -700l488 700h110l-562 -800l-85 -600h-100l85 600l-338 800h110zM511 1500l28 200h100l-28 -200h-100zM811 1500l28 200h100l-28 -200h-100z" />
    <glyph glyph-name="Zcaron" unicode="&#x17d;" 
d="M1197 1400l-14 -100l-949 -1200h780l-14 -100h-900l14 100l949 1200h-780l14 100h900zM553 1800h120l102 -200l158 200h120l-222 -300h-140z" />
    <glyph glyph-name="zcaron" unicode="&#x17e;" horiz-adv-x="865" 
d="M931 1005l-13 -96l-681 -807h567l-15 -110h-715l13 96l681 808h-567l15 109h715zM380 1400h120l102 -200l158 200h120l-222 -300h-140z" />
    <glyph glyph-name="florin" unicode="&#x192;" horiz-adv-x="799" 
d="M483 950h350l-14 -100h-350l-134 -950c-28 -200 -142 -300 -342 -300h-100l14 100h100c133.333 0 209.333 66.667 228 200l134 950h-150l14 100h150l21 150c28 200 142 300 342 300h150l-14 -100h-150c-133.333 0 -209.333 -66.667 -228 -200z" />
    <glyph glyph-name="circumflex" unicode="&#x2c6;" horiz-adv-x="700" 
d="M477 1400h140l138 -300h-120l-102 200l-158 -200h-120z" />
    <glyph glyph-name="caron" unicode="&#x2c7;" horiz-adv-x="700" 
d="M297 1400h120l102 -200l158 200h120l-222 -300h-140z" />
    <glyph glyph-name="breve" unicode="&#x2d8;" horiz-adv-x="700" 
d="M297 1400l100 -0.000976562c-2.66699 -20.667 -4 -40 -4 -58c0 -94.667 42 -142 126 -142c100 0 159.333 66.667 178 200h100c-28 -200 -125.333 -300 -292 -300c-142.667 0 -214 73.333 -214 220c0 24.667 2 51.334 6 80.001z" />
    <glyph glyph-name="dotaccent" unicode="&#x2d9;" horiz-adv-x="300" 
d="M269 1200l28 200h100l-28 -200h-100z" />
    <glyph glyph-name="ring" unicode="&#x2da;" horiz-adv-x="600" 
d="M683 1300c-8 -55.333 -34.168 -102.5 -78.501 -141.5s-94.166 -58.5 -149.499 -58.5s-99.666 19.667 -132.999 59c-27.333 31.333 -41 68 -41 110c0 10 0.666992 20.333 2 31c7.33301 55.333 33.333 102.5 78 141.5s94.667 58.5 150 58.5s99.666 -19.333 132.999 -58
c27.333 -32 41 -69.667 41 -113c0 -9.33301 -0.666992 -19 -2 -29zM496.999 1400c-27.333 0 -52.332 -9.83398 -74.999 -29.501s-35.667 -43.167 -39 -70.5c-0.666992 -5.33301 -1 -10.333 -1 -15c0 -21.333 7 -39.666 21 -54.999c16.667 -20 38.667 -30 66 -30
s52.166 9.83301 74.499 29.5s35.5 43.167 39.5 70.5c0.666992 4.66699 1 9 1 13c0 22 -7 41.333 -21 58c-16.667 19.333 -38.667 29 -66 29z" />
    <glyph glyph-name="ogonek" unicode="&#x2db;" horiz-adv-x="550" 
d="M286 -100c-85.333 -40 -131.332 -83.332 -137.999 -129.999c-0.666992 -4.66699 -1 -9 -1 -13c0 -38 27 -57 81 -57c66.667 0 128 10 184 30l-11 -80c-56 -20 -117.333 -30 -184 -30c-100.667 0 -151 39.667 -151 119c0 10 0.666992 20.333 2 31
c7.33301 53.333 46.666 96.666 117.999 129.999h100z" />
    <glyph glyph-name="tilde" unicode="&#x2dc;" horiz-adv-x="940" 
d="M255 1100c23.333 166.667 98.333 250 225 250c86.667 0 148.167 -25 184.5 -75s87.833 -75 154.5 -75c60 0 97 50 111 150h100c-23.333 -166.667 -98.333 -250 -225 -250c-86.667 0 -148.167 25 -184.5 75s-87.833 75 -154.5 75c-60 0 -97 -50 -111 -150h-100z" />
    <glyph glyph-name="hungarumlaut" unicode="&#x2dd;" horiz-adv-x="600" 
d="M255 1100l132 300h110l-132 -300h-110zM455 1100l132 300h110l-132 -300h-110z" />
    <glyph glyph-name="endash" unicode="&#x2013;" horiz-adv-x="700" 
d="M705 750l-14 -100h-500l14 100h500z" />
    <glyph glyph-name="emdash" unicode="&#x2014;" horiz-adv-x="900" 
d="M905 750l-14 -100h-700l14 100h700z" />
    <glyph glyph-name="quoteleft" unicode="&#x2018;" horiz-adv-x="400" 
d="M397 1400l58 -300h-100l-58 300h100z" />
    <glyph glyph-name="quoteright" unicode="&#x2019;" horiz-adv-x="400" 
d="M497 1400l-142 -300h-100l142 300h100z" />
    <glyph glyph-name="quotesinglbase" unicode="&#x201a;" horiz-adv-x="400" 
d="M328 200l-142 -300h-100l142 300h100z" />
    <glyph glyph-name="quotedblleft" unicode="&#x201c;" horiz-adv-x="600" 
d="M597 1400l58 -300h-100l-58 300h100zM397 1400l58 -300h-100l-58 300h100z" />
    <glyph glyph-name="quotedblright" unicode="&#x201d;" horiz-adv-x="600" 
d="M497 1400l-142 -300h-100l142 300h100zM697 1400l-142 -300h-100l142 300h100z" />
    <glyph glyph-name="quotedblbase" unicode="&#x201e;" horiz-adv-x="600" 
d="M314 100l-142 -300h-100l142 300h100zM514 100l-142 -300h-100l142 300h100z" />
    <glyph glyph-name="dagger" unicode="&#x2020;" 
d="M1141 1000h-400l-141 -1000h-100l141 1000h-400l14 100h400l42 300h100l-42 -300h400z" />
    <glyph glyph-name="daggerdbl" unicode="&#x2021;" 
d="M1042 300h-400l-42 -300h-100l42 300h-400l14 100h400l84 600h-400l14 100h400l43 300h100l-43 -300h400l-14 -100h-400l-84 -600h400z" />
    <glyph glyph-name="bullet" unicode="&#x2022;" horiz-adv-x="500" 
d="M526 900l-42 -300h-300l42 300h300z" />
    <glyph glyph-name="ellipsis" unicode="&#x2026;" horiz-adv-x="900" 
d="M100 0l28 200h100l-28 -200h-100zM400 0l28 200h100l-28 -200h-100zM700 0l28 200h100l-28 -200h-100z" />
    <glyph glyph-name="perthousand" unicode="&#x2030;" horiz-adv-x="2600" 
d="M2100 0c-175.333 0 -263 77 -263 231c0 21.333 1.66699 44.333 5 69l28 200c28 200 142 300 342 300h100c175.333 0 263 -77 263 -231c0 -21.333 -1.66699 -44.333 -5 -69l-28 -200c-28 -200 -142 -300 -342 -300h-100zM926 900c-28 -200 -142 -300 -342 -300h-100
c-175.333 0 -263 77 -263 231c0 21.333 1.66699 44.333 5 69l28 200c28 200 142 300 342 300h100c175.333 0 263 -77 263 -231c0 -21.333 -1.66699 -44.333 -5 -69zM1300 0c-175.333 0 -263 77 -263 231c0 21.333 1.66699 44.333 5 69l28 200c28 200 142 300 342 300h100
c175.333 0 263 -77 263 -231c0 -21.333 -1.66699 -44.333 -5 -69l-28 -200c-28 -200 -142 -300 -342 -300h-100zM1142 300c-2 -16.667 -3 -32 -3 -46c0 -102.667 58.333 -154 175 -154h100c133.333 0 209.333 66.667 228 200l28 200c2 16.667 3 32 3 46
c0 102.667 -58.333 154 -175 154h-100c-133.333 0 -209.333 -66.667 -228 -200zM1942 300c-2 -16.667 -3 -32 -3 -46c0 -102.667 58.333 -154 175 -154h100c133.333 0 209.333 66.667 228 200l28 200c2 16.667 3 32 3 46c0 102.667 -58.333 154 -175 154h-100
c-133.333 0 -209.333 -66.667 -228 -200zM326 900c-2 -16.667 -3 -32 -3 -46c0 -102.667 58.333 -154 175 -154h100c133.333 0 209.333 66.667 228 200l28 200c2 16.667 3 32 3 46c0 102.667 -58.333 154 -175 154h-100c-133.333 0 -209.333 -66.667 -228 -200zM500 0
l886 1400h110l-886 -1400h-110z" />
    <glyph glyph-name="guilsinglleft" unicode="&#x2039;" horiz-adv-x="600" 
d="M191 650l343 450h120l-343 -450l217 -450h-120z" />
    <glyph glyph-name="guilsinglright" unicode="&#x203a;" horiz-adv-x="600" 
d="M248 200h-120l343 450l-217 450h120l217 -450z" />
    <glyph glyph-name="Euro" unicode="&#x20ac;" 
d="M462 800l-28 -200h500l-40 -100h-474l-28 -200c-2 -16.667 -3 -32 -3 -46c0 -102.667 58.333 -154 175 -154h450l-14 -100h-450c-175.333 0 -263 77 -263 231c0 21.333 1.66699 44.333 5 69l28 200h-150l14 100h150l28 200h-150l14 100h150l28 200
c28 200 142 300 342 300h450l-14 -100h-450c-133.333 0 -209.333 -66.667 -228 -200l-28 -200h575l-39 -100h-550z" />
    <glyph glyph-name="trademark" unicode="&#x2122;" horiz-adv-x="1300" 
d="M947 1400l87 -450l213 450h150l-84 -600h-100l63 450l-213 -450h-100l-87 450l-63 -450h-100l84 600h150zM697 1400l-14 -100h-150l-70 -500h-100l70 500h-150l14 100h400z" />
  </font>
</defs>
</svg>
