<?xml version="1.0" standalone="no"?>
<!DOCTYPE svg PUBLIC "-//W3C//DTD SVG 1.1//EN" "http://www.w3.org/Graphics/SVG/1.1/DTD/svg11.dtd" >
<svg>
<metadata>
Created by FontForge 20090914 at Thu Sep 24 10:26:32 2015
 By www-data
&#194;&#169; 2009, 2010, 2011, 2012 GrandChaos9000. Some Rights Reserved. (Under licensed of Creative Commons CC-BY-NC-SA 3.0)
</metadata>
<defs>
<font id="AeroMaticsBoldItalic" horiz-adv-x="1100" >
  <font-face 
    font-family="Aero Matics"
    font-weight="700"
    font-style="italic"
    font-stretch="normal"
    units-per-em="2048"
    panose-1="2 11 8 3 6 1 1 1 1 1"
    ascent="1638"
    descent="-410"
    x-height="999.999"
    cap-height="1400"
    bbox="-156 -446 2675 1910"
    underline-thickness="150"
    underline-position="-142"
    slope="-8"
    unicode-range="U+0020-U+2122"
  />
<missing-glyph horiz-adv-x="1000" 
d="M100 1400h800v-1400h-800v1400zM200 1300v-1200h600v1200h-600z" />
    <glyph glyph-name=".notdef" horiz-adv-x="1000" 
d="M100 1400h800v-1400h-800v1400zM200 1300v-1200h600v1200h-600z" />
    <glyph glyph-name="space" unicode=" " horiz-adv-x="400" 
 />
    <glyph glyph-name="exclam" unicode="!" horiz-adv-x="500" 
d="M156 400l141 1000h300l-141 -1000h-300zM100 0l42 300h300l-42 -300h-300z" />
    <glyph glyph-name="quotedbl" unicode="&#x22;" horiz-adv-x="1000" 
d="M697 1400l-142 -300h-300l142 300h300zM1097 1400l-142 -300h-300l142 300h300z" />
    <glyph glyph-name="numbersign" unicode="#" horiz-adv-x="1500" 
d="M613 1050l154 350h300l-154 -350h200l154 350h300l-154 -350h135l-36 -250h-215l-88 -200h175l-35 -250h-245l-154 -350h-300l154 350h-200l-154 -350h-300l154 350h-155l35 250h235l88 200h-195l36 250h265zM719 600h190l88 200h-190z" />
    <glyph glyph-name="dollar" unicode="$" horiz-adv-x="1200" 
d="M700 0l-28.001 -200h-200l28 200h-400l42 300h400l35 250c-232.667 0 -349 106.333 -349 319c0 31.333 2.66699 65 8 101c40.667 286.667 194.334 430 461.001 430l28 200h200l-28 -200h400l-42 -300h-400l-36 -250c232 0 348 -108.333 348 -325
c0 -32.667 -2.66699 -67.667 -8 -105c-39.333 -280 -192.333 -420 -459 -420zM535.999 970c-1.33301 -11.333 -1.99902 -22 -1.99902 -32c0 -58.667 28.333 -88 85 -88l36 250c-66.667 0 -106.334 -43.333 -119.001 -130zM777 550l-35 -249.999c66.667 0 105.667 40 117 120
c2 13.333 3 25.666 3 36.999c0 62 -28.333 93 -85 93z" />
    <glyph glyph-name="percent" unicode="%" horiz-adv-x="1900" 
d="M484 600c-175.333 0 -263 77 -263 231c0 21.333 1.66699 44.333 5 69l29 200c28 200 142 300 342 300h100c175.333 0 263 -77 263 -231c0 -21.333 -1.66699 -44.333 -5 -69l-29 -200c-28 -200 -142 -300 -342 -300h-100zM504 920
c-0.666992 -6.66699 -1.00098 -12.667 -1.00098 -18c0 -41.333 23.333 -62 70 -62s73.667 26.667 81 80l23 160c0.666992 7.33301 1 14 1 20c0 40 -20 60 -60 60c-53.333 0 -83.666 -26.667 -90.999 -80zM499.999 0l787 1400h310l-787 -1400h-310zM1400 0
c-175.333 0 -263 77 -263 231c0 21.333 1.66699 44.333 5 69l28 200c28 200 142 300 342 300h100c175.333 0 263 -77 263 -231c0 -21.333 -1.66699 -44.333 -5 -69l-28 -200c-28 -200 -142 -300 -342 -300h-100zM1420 320c-0.666992 -6.66699 -1 -12.667 -1 -18
c0 -41.333 23.333 -62 70 -62s73.667 26.667 81 80l22 160c1.33301 8 2 15.333 2 22c0 38.667 -20 58 -60 58c-53.333 0 -84 -26.667 -92 -80z" />
    <glyph glyph-name="ampersand" unicode="&#x26;" horiz-adv-x="1300" 
d="M500 0c-234 0 -351 102.666 -351 307.999c0 28.667 2.33301 59.334 7 92.001c25.333 180 96 280 212 300c-89.333 16 -134 85 -134 207c0 28 2.33301 59 7 93c37.333 266.667 189.333 400 456 400h500l-42 -300h-500c-66.667 0 -104.667 -33.333 -114 -100l-7 -50
c-1.33301 -8.66699 -2 -16.667 -2 -24c0 -50.667 29 -76 87 -76h300l15 100h300l-15 -100h100l-42 -300h-100l-77 -550h-600zM456 399.999c-1.33301 -8 -2 -15.667 -2 -23c0 -51.333 29.333 -77 88 -77h300l35 250h-300c-66.667 0 -104.667 -33.333 -114 -100z" />
    <glyph glyph-name="quotesingle" unicode="'" horiz-adv-x="600" 
d="M697 1400l-142 -300h-300l142 300h300z" />
    <glyph glyph-name="parenleft" unicode="(" horiz-adv-x="800" 
d="M352 -200c-114 203.333 -171.001 426 -171.001 668c0 75.333 5.66699 152.666 17 231.999c47.333 333.333 183 633.333 407 900h320c-237.333 -266.667 -379.666 -566.667 -426.999 -900c-10.667 -74 -16 -146.667 -16 -218c0 -247.333 63.333 -474.666 190 -681.999
h-320z" />
    <glyph glyph-name="parenright" unicode=")" horiz-adv-x="800" 
d="M72 -200c237.333 266.667 379.333 566.668 426 900.001c10.667 75.333 16 148.666 16 219.999c0 246.667 -63 473.334 -189 680.001h320c113.333 -202.667 170 -424.334 170 -665.001c0 -76.667 -5.66699 -155 -17 -235c-46.667 -333.333 -182 -633.333 -406 -900h-320z
" />
    <glyph glyph-name="asterisk" unicode="*" horiz-adv-x="762" 
d="M296 926l109 159l-147 36l48 120l168 -10l24 169h160l-34 -169l180 10l16 -120l-160 -36l66 -159l-119 -69l-87 135l-125 -135z" />
    <glyph glyph-name="plus" unicode="+" horiz-adv-x="1000" 
d="M469 850l36 250h300l-36 -250h250l-42 -300h-250l-35 -250h-300l35 250h-250l42 300h250z" />
    <glyph glyph-name="comma" unicode="," horiz-adv-x="600" 
d="M528 200l-142 -300h-300l142 300h300z" />
    <glyph glyph-name="hyphen" unicode="-" horiz-adv-x="800" 
d="M819 850l-42 -300h-600l42 300h600z" />
    <glyph glyph-name="period" unicode="." horiz-adv-x="500" 
d="M100 0l42 300h300l-42 -300h-300z" />
    <glyph glyph-name="slash" unicode="/" horiz-adv-x="1020" 
d="M372 -200h-300l773 1800h300z" />
    <glyph glyph-name="zero" unicode="0" horiz-adv-x="1150" 
d="M1106 400c-37.333 -266.667 -189.333 -400 -456 -400h-150c-234 0 -351 102.667 -351 308c0 28.667 2.33301 59.334 7 92.001l85 600c37.333 266.667 189.333 400 456 400h150c234 0 351 -102.667 351 -308c0 -28.667 -2.33301 -59.334 -7 -92.001zM847 690l-391 -290
c-1.33301 -8 -2 -15.667 -2 -23c0 -51.333 29.333 -77 88 -77h150c66.667 0 104.667 33.333 114 100zM500 710l391 290c1.33301 8 2 15.667 2 23c0 51.333 -29.333 77 -88 77h-150c-66.667 0 -104.667 -33.333 -114 -100z" />
    <glyph glyph-name="one" unicode="1" horiz-adv-x="700" 
d="M455 1100h-200l42 300h500l-197 -1400h-300z" />
    <glyph glyph-name="two" unicode="2" horiz-adv-x="1150" 
d="M100 0l63 450.001c37.333 266.667 189.333 400 456 400h150c66.667 0 105 33.333 115 100l7 50c1.33301 8 2 15.667 2 23c0 51.333 -29.333 77 -88 77h-550l42 300h550c234 0 351 -102.667 351 -308c0 -28.667 -2.33301 -59.334 -7 -92.001l-7 -50
c-38 -266.667 -190.333 -400 -457 -400h-150c-66.667 0 -104.667 -33.333 -114 -100l-21 -150h650l-42 -300h-950z" />
    <glyph glyph-name="three" unicode="3" 
d="M219 850l500 0.000976562c66.667 0 105 33.333 115 100l7 50c1.33301 8 2 15.667 2 23c0 51.333 -29.333 77 -88 77h-500l42 300h500c234 0 351 -102.667 351 -308c0 -28.667 -2.33301 -59.334 -7 -92.001c-25.333 -180 -96.333 -280 -213 -300
c90 -16 135 -85.333 135 -208c0 -28 -2.33301 -58.667 -7 -92c-37.333 -266.667 -189.333 -400 -456 -400h-500l42 300h500c66.667 0 104.667 33.333 114 100l7 50c1.33301 8 2 15.667 2 23c0 51.333 -29.333 77 -88 77h-500z" />
    <glyph glyph-name="four" unicode="4" horiz-adv-x="1200" 
d="M487 1400h310l-289 -700h390l99 700h300l-197 -1400h-300l56 400h-700l42 300z" />
    <glyph glyph-name="five" unicode="5" horiz-adv-x="1150" 
d="M100 0l42 300.001h550c66.667 0 104.667 33.333 114 100l7 50c1.33301 8 2 15.667 2 23c0 51.333 -29.333 77 -88 77h-550l120 850h950l-42 -300h-650l-36 -250h250c234 0 351 -102.667 351 -308c0 -28.667 -2.33301 -59.334 -7 -92.001l-7 -50
c-37.333 -266.667 -189.333 -400 -456 -400h-550z" />
    <glyph glyph-name="six" unicode="6" horiz-adv-x="1200" 
d="M519 850h300c234 0 351 -102.667 351 -308c0 -28.667 -2.33301 -59.334 -7 -92.001l-7 -50c-37.333 -266.667 -189.333 -400 -456 -400h-200c-234 0 -351 102.667 -351 308c0 28.667 2.33301 59.334 7 92.001l70 500c47.333 333.333 237.666 500 570.999 500h400
l-42 -300h-400c-133.333 0 -209.666 -66.667 -228.999 -200zM477 550l-21 -150c-1.33301 -8 -2 -15.667 -2 -23c0 -51.333 29.333 -77 88 -77h200c66.667 0 104.667 33.333 114 100l7 50c1.33301 8 2 15.667 2 23c0 51.333 -29.333 77 -88 77h-300z" />
    <glyph glyph-name="seven" unicode="7" horiz-adv-x="1200" 
d="M1297 1400l-42 -300l-615 -1100h-340l615 1100h-660l42 300h1000z" />
    <glyph glyph-name="eight" unicode="8" horiz-adv-x="1200" 
d="M241 1000c37.333 266.667 189.333 400 456 400h200c234 0 351 -102.667 351 -308c0 -28.667 -2.33301 -59.334 -7 -92.001c-25.333 -180 -96.333 -280 -213 -300c90 -16 135 -85.333 135 -208c0 -28 -2.33301 -58.667 -7 -92c-37.333 -266.667 -189.333 -400 -456 -400
h-200c-234 0 -351 102.667 -351 308c0 28.667 2.33301 59.334 7 92.001c25.333 180 96 280 212 300c-89.333 16 -134 85 -134 207c0 28 2.33301 59 7 93zM819 850c66.667 0 105 33.333 115 100l7 50c1.33301 8 2 15.667 2 23c0 51.333 -29.333 77 -88 77h-200
c-66.667 0 -104.667 -33.333 -114 -100l-7 -50c-1.33301 -8.66699 -2 -16.667 -2 -24c0 -50.667 29 -76 87 -76h200zM577 550c-66.667 0 -104.667 -33.333 -114 -100l-7 -50c-1.33301 -8 -2 -15.667 -2 -23c0 -51.333 29.333 -77 88 -77h200
c66.667 0 104.667 33.333 114 100l7 50c1.33301 8 2 15.667 2 23c0 51.333 -29.333 77 -88 77h-200z" />
    <glyph glyph-name="nine" unicode="9" horiz-adv-x="1200" 
d="M877 550l-300 0.00195312c-233.333 0 -350 102 -350 306c0 29.333 2.33301 60.666 7 93.999l7 50c37.333 266.667 189.333 400 456 400h200c234 0 351 -102.667 351 -308c0 -28.667 -2.33301 -59.334 -7 -92.001l-71 -500c-46.667 -333.333 -236.667 -500 -570 -500h-400
l42 300h400c133.333 0 209.333 66.667 228 200zM919 850.002l22 150c1.33301 8 2 15.667 2 23c0 51.333 -29.333 77 -88 77h-200c-66.667 0 -104.667 -33.333 -114 -100l-7 -50c-1.33301 -8.66699 -2 -16.667 -2 -24c0 -50.667 29 -76 87 -76h300z" />
    <glyph glyph-name="colon" unicode=":" horiz-adv-x="500" 
d="M100 0l42 300h300l-42 -300h-300zM198 700l43 300h300l-43 -300h-300z" />
    <glyph glyph-name="semicolon" unicode=";" horiz-adv-x="600" 
d="M298 700l43 300h300l-43 -300h-300zM528 200l-142 -300h-300l142 300h300z" />
    <glyph glyph-name="less" unicode="&#x3c;" horiz-adv-x="1000" 
d="M184 600l28 200l857 400l-43 -300l-478 -200l422 -200l-42 -300z" />
    <glyph glyph-name="equal" unicode="=" horiz-adv-x="800" 
d="M855 1100l-43 -300h-600l43 300h600zM784 600l-42 -300h-600l42 300h600z" />
    <glyph glyph-name="greater" unicode="&#x3e;" horiz-adv-x="1000" 
d="M128 200l42 300l478 200l-422 200l43 300l743 -400l-28 -200z" />
    <glyph glyph-name="question" unicode="?" 
d="M356 400l56 400.001h300c66.667 0 104.667 33.333 114 100l15 100c1.33301 8 2 15.667 2 23c0 51.333 -29.333 77 -88 77h-500l42 300h500c234 0 351 -102.667 351 -308c0 -28.667 -2.33301 -59.334 -7 -92.001l-15 -100c-37.333 -266.667 -189.333 -400 -456 -400
l-14 -100h-300zM642 300.001l-42 -300h-300l42 300h300z" />
    <glyph glyph-name="at" unicode="@" horiz-adv-x="1500" 
d="M1192 300c-134.667 0 -208.998 38.334 -222.998 115.001c-51.333 -76.667 -127 -115 -227 -115c-175.333 0 -263 77 -263 231c0 21.333 1.66699 44.333 5 69l28 200c28.667 200 143 300 343 300c100 0 162 -33.333 186 -100l14 100h200l-71 -500
c-2 -14.667 -3 -27.667 -3 -39c0 -40.667 13 -61 39 -61c33.333 0 54.666 33.333 63.999 100l42 300c3.33301 25.333 5 48.666 5 69.999c0 153.333 -87.333 230 -262 230h-300c-200 0 -314.333 -100 -343 -300l-56 -400c-3.33301 -24.667 -5 -47.667 -5 -69
c0 -154 87.667 -231 263 -231h600l-28 -200h-600c-292.667 -0 -439 128.333 -439 385c0 36 3 74.333 9 115l56 400c47.333 333.333 237.666 500 570.999 500h300c292 0 438 -127.667 438 -383c0 -36.667 -3 -75.667 -9 -117l-42 -300c-28 -200 -125.333 -300 -292 -300z
M770.002 500.001c100 0 171.333 33.333 214 100l28 200c-24 66.667 -86 100 -186 100c-66.667 0 -104.667 -33.333 -114 -100l-28 -200c-1.33301 -8 -2 -15.667 -2 -23c0 -51.333 29.333 -77 88 -77z" />
    <glyph glyph-name="A" unicode="A" horiz-adv-x="1300" 
d="M1300 0h-300l-51 300h-514l-135 -300h-300l617 1400h460zM568 600h332l-95 500z" />
    <glyph glyph-name="B" unicode="B" horiz-adv-x="1200" 
d="M897 1400c234 0 351 -102.666 351 -307.999c0 -28.667 -2.33301 -59.334 -7 -92.001c-25.333 -180 -96.333 -280 -213 -300c90 -16 135 -85.333 135 -208c0 -28 -2.33301 -58.667 -7 -92c-37.333 -266.667 -189.333 -400 -456 -400h-600l197 1400h600zM555 1100l-36 -250
h300c66.667 0 105 33.333 115 100l7 50c1.33301 8 2 15.667 2 23c0 51.333 -29.333 77 -88 77h-300zM477 550.001l-35 -250h300c66.667 0 104.667 33.333 114 100l7 50c1.33301 8 2 15.667 2 23c0 51.333 -29.333 77 -88 77h-300z" />
    <glyph glyph-name="C" unicode="C" 
d="M456 400c-1.33301 -8 -2 -15.668 -2 -23.001c0 -51.333 29.333 -77 88 -77h500l-42 -300h-500c-234 0 -351 102.667 -351 308c0 28.667 2.33301 59.334 7 92.001l85 600c37.333 266.667 189.333 400 456 400h500l-42 -300h-500c-66.667 0 -104.667 -33.333 -114 -100z
" />
    <glyph glyph-name="D" unicode="D" horiz-adv-x="1200" 
d="M897 1400c234 0 351 -102.666 351 -307.999c0 -28.667 -2.33301 -59.334 -7 -92.001l-85 -600c-37.333 -266.667 -189.333 -400 -456 -400h-600l197 1400h600zM941 1000c1.33301 8 2 15.667 2 23c0 51.333 -29.333 77 -88 77h-300l-113 -800h300
c66.667 0 104.667 33.333 114 100z" />
    <glyph glyph-name="E" unicode="E" 
d="M1119 850l-42 -300h-600l-35 -250h600l-42 -300h-900l197 1400h900l-42 -300h-600l-36 -250h600z" />
    <glyph glyph-name="F" unicode="F" 
d="M1119 850l-42 -300h-600l-77 -550h-300l197 1400h900l-42 -300h-600l-36 -250h600z" />
    <glyph glyph-name="G" unicode="G" horiz-adv-x="1200" 
d="M456 400c-1.33301 -8 -2 -15.668 -2 -23.001c0 -51.333 29.333 -77 88 -77h200c66.667 0 104.667 33.333 114 100l21 150h-200l42 300h500l-63 -450c-37.333 -266.667 -189.333 -400 -456 -400h-200c-234 0 -351 102.667 -351 308c0 28.667 2.33301 59.334 7 92.001
l85 600c37.333 266.667 189.333 400 456 400h600l-42 -300h-600c-66.667 0 -104.667 -33.333 -114 -100z" />
    <glyph glyph-name="H" unicode="H" horiz-adv-x="1200" 
d="M597 1400l-78 -550h400l78 550h300l-197 -1400h-300l77 550h-400l-77 -550h-300l197 1400h300z" />
    <glyph glyph-name="I" unicode="I" horiz-adv-x="500" 
d="M597 1400l-197 -1400h-300l197 1400h300z" />
    <glyph glyph-name="J" unicode="J" horiz-adv-x="800" 
d="M597 1400h300l-141 -1000c-37.333 -266.667 -189.333 -400 -456 -400h-200l42 300h200c66.667 0 104.667 33.333 114 100z" />
    <glyph glyph-name="K" unicode="K" horiz-adv-x="1150" 
d="M100 0l197 1400h300l-92 -650l472 650h320l-519 -700l322 -700h-320l-289 650l-91 -650h-300z" />
    <glyph glyph-name="L" unicode="L" 
d="M442 300h600l-42 -300h-900l197 1400h300z" />
    <glyph glyph-name="M" unicode="M" horiz-adv-x="1700" 
d="M297 1400h420l210 -850l450 850h420l-197 -1400h-300l119 850l-439 -850h-260l-201 850l-119 -850h-300z" />
    <glyph glyph-name="N" unicode="N" horiz-adv-x="1300" 
d="M597 1400l380 -850l120 850h300l-197 -1400h-300l-381 850l-119 -850h-300l197 1400h300z" />
    <glyph glyph-name="O" unicode="O" horiz-adv-x="1250" 
d="M1206 400c-37.333 -266.667 -189.333 -400 -456 -400h-250c-234 0 -351 102.667 -351 308c0 28.667 2.33301 59.334 7 92.001l85 600c37.333 266.667 189.333 400 456 400h250c234 0 351 -102.667 351 -308c0 -28.667 -2.33301 -59.334 -7 -92.001zM456 400
c-1.33301 -8 -2 -15.667 -2 -23c0 -51.333 29.333 -77 88 -77h250c66.667 0 104.667 33.333 114 100l85 600c1.33301 8 2 15.667 2 23c0 51.333 -29.333 77 -88 77h-250c-66.667 0 -104.667 -33.333 -114 -100z" />
    <glyph glyph-name="P" unicode="P" horiz-adv-x="1200" 
d="M470 500l-70 -499.999h-300l197 1400h600c234 0 351 -102.667 351 -308c0 -28.667 -2.33301 -59.334 -7 -92.001l-15 -100c-37.333 -266.667 -189.333 -400 -456 -400h-300zM555 1100l-43 -300h300c66.667 0 104.667 33.333 114 100l15 100c1.33301 8 2 15.667 2 23
c0 51.333 -29.333 77 -88 77h-300z" />
    <glyph glyph-name="Q" unicode="Q" horiz-adv-x="1250" 
d="M690 0h-190c-234 0 -351 102.667 -351 308c0 28.667 2.33301 59.334 7 92.001l85 600c37.333 266.667 189.333 400 456 400h250c234 0 351 -102.667 351 -308c0 -28.667 -2.33301 -59.334 -7 -92.001l-85 -600c-28 -200 -130 -333.333 -306 -400l42 -200h-200zM780 500
l42 -199.999c48.667 13.333 76.667 46.666 84 99.999l85 600c1.33301 8 2 15.667 2 23c0 51.333 -29.333 77 -88 77h-250c-66.667 0 -104.667 -33.333 -114 -100l-85 -600c-1.33301 -8 -2 -15.667 -2 -23c0 -51.333 29.333 -77 88 -77h80l-42 200h200z" />
    <glyph glyph-name="R" unicode="R" horiz-adv-x="1200" 
d="M670 500h-200l-70 -500h-300l197 1400h600c234 0 351 -102.667 351 -308c0 -28.667 -2.33301 -59.334 -7 -92.001l-15 -100c-22.667 -163.333 -100 -278.666 -232 -345.999l106 -554h-300zM555 1100l-43 -300h300c66.667 0 104.667 33.333 114 100l15 100
c1.33301 8 2 15.667 2 23c0 51.333 -29.333 77 -88 77h-300z" />
    <glyph glyph-name="S" unicode="S" horiz-adv-x="1200" 
d="M100 0l42 300.002h600c66.667 0 104.667 33.333 114 100l7 50c1.33301 8 2 15.667 2 23c0 51.333 -29.333 77 -88 77h-200c-233.333 0 -350 102 -350 306c0 29.333 2.33301 60.666 7 93.999l7 50c37.333 266.667 189.333 400 456 400h600l-42 -300h-600
c-66.667 0 -104.667 -33.333 -114 -100l-7 -50c-1.33301 -8.66699 -2 -16.667 -2 -24c0 -50.667 29 -76 87 -76h200c234 0 351 -102.667 351 -308c0 -28.667 -2.33301 -59.334 -7 -92.001l-7 -50c-37.333 -266.667 -189.333 -400 -456 -400h-600z" />
    <glyph glyph-name="T" unicode="T" horiz-adv-x="1200" 
d="M1297 1400l-42 -300h-350l-155 -1100h-300l155 1100h-350l42 300h1000z" />
    <glyph glyph-name="U" unicode="U" horiz-adv-x="1200" 
d="M597 1400l-141 -1000c-1.33301 -8 -2 -15.667 -2 -23c0 -51.333 29.333 -77 88 -77h200c66.667 0 104.667 33.333 114 100l141 1000h300l-141 -1000c-37.333 -266.667 -189.333 -400 -456 -400h-200c-234 0 -351 102.667 -351 308c0 28.667 2.33301 59.334 7 92.001
l141 1000h300z" />
    <glyph glyph-name="V" unicode="V" horiz-adv-x="1200" 
d="M1097 1400h300l-567 -1400h-460l-173 1400h300l145 -1100z" />
    <glyph glyph-name="W" unicode="W" horiz-adv-x="1800" 
d="M1530 0h-460l-46 881l-294 -881h-460l-73 1400h300l59 -1000l341 1000h400l59 -1000l341 1000h300z" />
    <glyph glyph-name="X" unicode="X" horiz-adv-x="1400" 
d="M100 0l463 700l-266 700h330l200 -496l340 496h330l-464 -700l267 -700h-330l-200 495l-340 -495h-330z" />
    <glyph glyph-name="Y" unicode="Y" horiz-adv-x="1200" 
d="M507 1400l219 -500l361 500h310l-563 -800l-84 -600h-300l84 600l-337 800h310z" />
    <glyph glyph-name="Z" unicode="Z" horiz-adv-x="1200" 
d="M1297 1400l-42 -300l-743 -800h630l-42 -300h-1000l42 300l743 800h-630l42 300h1000z" />
    <glyph glyph-name="bracketleft" unicode="[" horiz-adv-x="700" 
d="M783 1300h-200l-169 -1200h200l-42 -300h-500l253 1800h500z" />
    <glyph glyph-name="backslash" unicode="\" horiz-adv-x="1020" 
d="M325 1600h300l267 -1800h-300z" />
    <glyph glyph-name="bracketright" unicode="]" horiz-adv-x="700" 
d="M325 1600h500l-253 -1800h-500l42 300h200l169 1200h-200z" />
    <glyph glyph-name="asciicircum" unicode="^" horiz-adv-x="1200" 
d="M647 1400h300l251 -700h-300l-136 450l-264 -450h-300z" />
    <glyph glyph-name="underscore" unicode="_" horiz-adv-x="800" 
d="M772 -200l-28 -200h-800l28 200h800z" />
    <glyph glyph-name="grave" unicode="`" horiz-adv-x="600" 
d="M345 1100l-48 300h310l48 -300h-310z" />
    <glyph glyph-name="a" unicode="a" 
d="M601 720l-300 -0.00195312l40 280h300c294.667 0 442 -120 442 -360c0 -31.333 -2.33301 -64.666 -7 -99.999l-76 -540h-280l-9 80c-40.667 -53.333 -111 -80 -211 -80h-100c-174.667 0 -262 78.667 -262 236c0 22.667 2 47.334 6 74.001c28.667 206.667 143 310 343 310
h100c100 0 163 -26.667 189 -80c2 13.333 3 26 3 38c0 94.667 -59.333 142 -178 142zM534 239.998c100 0 169 16.667 207 50l8 60c-28.667 33.333 -93 50 -193 50c-66.667 0 -103.667 -26.667 -111 -80c-0.666992 -5.33301 -1 -10.333 -1 -15c0 -43.333 30 -65 90 -65z" />
    <glyph glyph-name="b" unicode="b" 
d="M529 920c41.333 53.333 112 79.999 212 79.999c233.333 0 350 -102 350 -306c0 -29.333 -2.33301 -60.666 -7 -93.999l-28 -200c-37.333 -266.667 -189.333 -400 -456 -400c-100 0 -163 26.667 -189 80l-31 -80h-280l197 1400h300zM642 299.999
c66.667 0 104.667 33.333 114 100l28 200c1.33301 8 2 15.667 2 23c0 51.333 -29.333 77 -88 77c-100 0 -169 -16.667 -207 -50l-42 -300c28.667 -33.333 93 -50 193 -50z" />
    <glyph glyph-name="c" unicode="c" horiz-adv-x="1000" 
d="M456 400c-1.33301 -8 -2 -15.668 -2 -23.001c0 -51.333 29.333 -77 88 -77h400l-42 -300h-400c-234 0 -351 102.667 -351 308c0 28.667 2.33301 59.334 7 92.001l28 200c38 266.667 190.333 400 457 400h400l-43 -300h-400c-66.667 0 -104.667 -33.333 -114 -100z" />
    <glyph glyph-name="d" unicode="d" 
d="M897 1400l300 -0.000976562l-197 -1400h-280l-9 80c-40.667 -53.333 -111 -80 -211 -80c-234 0 -351 102.667 -351 308c0 28.667 2.33301 59.334 7 92.001l28 200c38 266.667 190.333 400 457 400c100 0 162.667 -26.667 188 -80zM542 299.999c100 0 169 16.667 207 50
l42 300c-28.667 33.333 -93 50 -193 50c-66.667 0 -104.667 -33.333 -114 -100l-28 -200c-1.33301 -8 -2 -15.667 -2 -23c0 -51.333 29.333 -77 88 -77z" />
    <glyph glyph-name="e" unicode="e" 
d="M453 380l-4 -30.002c-1.33301 -8 -2 -15.667 -2 -23c0 -51.333 29.333 -77 88 -77h450l-35 -250h-450c-234 0 -351 102.667 -351 308c0 28.667 2.33301 59.334 7 92.001l28 200c38 266.667 190.333 400 457 400h100c233.333 0 350 -102 350 -306
c0 -29.333 -2.33301 -60.666 -7 -93.999l-31 -220h-600zM490 639.998l-6 -40h300l6 40c1.33301 8 2 15.667 2 23c0 51.333 -29.333 77 -88 77h-100c-66.667 0 -104.667 -33.333 -114 -100z" />
    <glyph glyph-name="f" unicode="f" horiz-adv-x="900" 
d="M691 1000h250l-43 -300h-250l-98 -700h-300l98 700h-150l43 300h150c37.333 266.667 189.333 400 456 400h150l-42 -300h-150c-66.667 0 -104.667 -33.333 -114 -100z" />
    <glyph glyph-name="g" unicode="g" 
d="M711 80c-47.333 -53.333 -117.666 -80 -210.999 -80c-266.667 -0 -381.334 133.333 -344.001 400l28 200c38 266.667 190.333 400 457 400c93.333 0 156 -26.667 188 -80l42 80h270l-127 -900c-46.667 -333.333 -236.667 -500 -570 -500h-300l42 300h300
c133.333 0 209.333 66.667 228 200zM598 700c-66.667 0 -104.669 -33.333 -114.002 -100l-28 -200c-9.33301 -66.667 19.334 -100 86.001 -100c93.333 0 162.333 16.667 207 50l42 300c-35.333 33.333 -99.666 50 -192.999 50z" />
    <glyph glyph-name="h" unicode="h" 
d="M400 0l-300 -0.000976562l197 1400h300l-68 -480c41.333 53.333 112 80 212 80c233.333 0 350 -102 350 -306c0 -29.333 -2.33301 -60.666 -7 -93.999l-84 -600h-300l84 600c1.33301 8 2 15.667 2 23c0 51.333 -29.333 77 -88 77c-100 0 -169 -16.667 -207 -50z" />
    <glyph glyph-name="i" unicode="i" horiz-adv-x="500" 
d="M541 1000l-141 -1000h-300l141 1000h300zM597 1400l-42 -300h-300l42 300h300z" />
    <glyph glyph-name="j" unicode="j" horiz-adv-x="500" 
d="M-156 -400l42 300h100c66.667 0 104.667 33.333 114 100l141 1000h300l-141 -1000c-37.333 -266.667 -189.333 -400 -456 -400h-100zM597 1400l-42 -300h-300l42 300h300z" />
    <glyph glyph-name="k" unicode="k" 
d="M597 1400l-120 -850l334 450h330l-381 -500l240 -500h-330l-207 450l-63 -450h-300l197 1400h300z" />
    <glyph glyph-name="l" unicode="l" horiz-adv-x="500" 
d="M597 1400l-197 -1400h-300l197 1400h300z" />
    <glyph glyph-name="m" unicode="m" horiz-adv-x="1700" 
d="M521 1000l5 -100c43.333 66.667 115 100 215 100c115.333 0 194.333 -43.333 237 -130c91.333 86.667 212.333 130 363 130c237.333 0 356 -92.333 356 -277c0 -22.667 -2 -47 -6 -73l-91 -650h-300l84 600c0.666992 6 1 11.333 1 16c0 56 -45.667 84 -137 84
c-100 0 -154.667 -33.333 -164 -100l-84 -600h-300l86 610c0.666992 5.33301 1 10.333 1 15c0 50 -39.667 75 -119 75c-80 0 -141.333 -33.333 -184 -100l-84 -600h-300l141 1000h280z" />
    <glyph glyph-name="n" unicode="n" 
d="M400 0l-300 -0.000976562l141 1000h280l8 -80c41.333 53.333 112 80 212 80c233.333 0 350 -102 350 -306c0 -29.333 -2.33301 -60.666 -7 -93.999l-84 -600h-300l84 600c1.33301 8 2 15.667 2 23c0 51.333 -29.333 77 -88 77c-100 0 -169 -16.667 -207 -50z" />
    <glyph glyph-name="o" unicode="o" 
d="M1056 400c-37.333 -266.667 -189.333 -400.002 -456 -400.002h-100c-234 0 -351 102.667 -351 308c0 28.667 2.33301 59.334 7 92.001l28 200c38 266.667 190.333 400 457 400h100c233.333 0 350 -102 350 -306c0 -29.333 -2.33301 -60.666 -7 -93.999zM456 399.998
c-1.33301 -8 -1.99902 -15.668 -1.99902 -23.001c0 -51.333 29.333 -77 88 -77h100c66.667 0 104.667 33.333 114 100l28 200c0.666992 6.66699 1 13.334 1 20.001c0 46.667 -29.333 70 -88 70h-100c-66.667 0 -104.334 -30 -113.001 -90z" />
    <glyph glyph-name="p" unicode="p" 
d="M344 -400l-300 -0.000976562l197 1400h280l8 -80c41.333 53.333 112 80 212 80c233.333 0 350 -102 350 -306c0 -29.333 -2.33301 -60.666 -7 -93.999l-28 -200c-37.333 -266.667 -189.333 -400 -456 -400c-100 0 -163 26.667 -189 80zM698 699.999
c-100 0 -169 -16.667 -207 -50l-42 -300c28.667 -33.333 93 -50 193 -50c66.667 0 104.667 33.333 114 100l28 200c1.33301 8 2 15.667 2 23c0 51.333 -29.333 77 -88 77z" />
    <glyph glyph-name="q" unicode="q" 
d="M711 80c-40.667 -53.333 -111 -80.001 -211 -80.001c-234 0 -351 102.667 -351 308c0 28.667 2.33301 59.334 7 92.001l28 200c38 266.667 190.333 400 457 400c100 0 162.667 -26.667 188 -80l32 80h280l-197 -1400h-300zM598 699.999
c-66.667 0 -104.667 -33.333 -114 -100l-28 -200c-1.33301 -8 -2 -15.667 -2 -23c0 -51.333 29.333 -77 88 -77c100 0 169 16.667 207 50l42 300c-28.667 33.333 -93 50 -193 50z" />
    <glyph glyph-name="r" unicode="r" horiz-adv-x="750" 
d="M400 0h-300l141 1000h280l8 -80c41.333 53.333 112 80 212 80h100l-43 -300h-100c-100 0 -169 -16.667 -207 -50z" />
    <glyph glyph-name="s" unicode="s" horiz-adv-x="1050" 
d="M100 0l35 250h480c46.667 0 73 20 79 60c0.666992 5.33301 1 10.333 1 15c0 36.667 -20.667 55 -62 55h-180c-177.333 0 -266 71 -266 213c0 18 1.33301 37 4 57l12 80c25.333 180 138 270 338 270h500l-36 -250h-430c-46.667 0 -72.667 -20 -78 -60
c-0.666992 -3.33301 -1 -6.33301 -1 -9c0 -27.333 21.333 -41 64 -41h180c176 0 264 -75 264 -225c0 -20 -1.66699 -41.667 -5 -65l-11 -80c-25.333 -180 -138 -270 -338 -270h-550z" />
    <glyph glyph-name="t" unicode="t" horiz-adv-x="900" 
d="M606 400c-1.33301 -8 -2 -15.668 -2 -23.001c0 -51.333 29.333 -77 88 -77h150l-42 -300h-150c-234 0 -351 102.667 -351 308c0 28.667 2.33301 59.334 7 92.001l42 300h-150l43 300h150l42 300l314 100l-56 -400h250l-43 -300h-250z" />
    <glyph glyph-name="u" unicode="u" 
d="M841 1000l300 -0.000976562l-141 -1000h-280l-9 80c-40.667 -53.333 -111 -80 -211 -80c-234 0 -351 102.667 -351 308c0 28.667 2.33301 59.334 7 92.001l85 600h300l-85 -600c-1.33301 -8 -2 -15.667 -2 -23c0 -51.333 29.333 -77 88 -77c100 0 169 16.667 207 50z" />
    <glyph glyph-name="v" unicode="v" 
d="M770 0h-440l-139 1000h300l94 -750l306 750h300z" />
    <glyph glyph-name="w" unicode="w" horiz-adv-x="1500" 
d="M1084 310l207 690h300l-371 -1000h-350l-31 632l-209 -632h-350l-89 1000h300l14 -680l216 680h340z" />
    <glyph glyph-name="x" unicode="x" horiz-adv-x="1200" 
d="M561 1000l129 -362l231 362h320l-331 -500l190 -500h-320l-129 362l-231 -362h-320l330 500l-189 500h320z" />
    <glyph glyph-name="y" unicode="y" 
d="M841 1000l300 -0.000976562l-141 -1000c-37.333 -266.667 -189.333 -400 -456 -400h-400l42 300h300c133.333 0 204.666 33.333 213.999 100l11 80c-47.333 -53.333 -117.666 -80 -210.999 -80c-234 0 -351 102.667 -351 308c0 28.667 2.33301 59.334 7 92.001l85 600
h300l-85 -600c-1.33301 -8 -2 -15.667 -2 -23c0 -51.333 29.333 -77 88 -77c93.333 0 162.333 16.667 207 50z" />
    <glyph glyph-name="z" unicode="z" horiz-adv-x="1000" 
d="M1041 1000l-43 -300l-476 -400h420l-42 -300h-800l42 300l476 400h-420l43 300h800z" />
    <glyph glyph-name="braceleft" unicode="{" horiz-adv-x="900" 
d="M219 850c133.333 0 207.334 49.999 222.001 149.999l14 100c46.667 333.333 236.667 500 570 500l-42 -300c-133.333 0 -209.333 -66.667 -228 -200l-21 -150c-20.667 -146.667 -99.334 -230 -236.001 -250c112.667 -17.333 169 -81.666 169 -192.999
c0 -18 -1.33301 -37 -4 -57l-21 -150c-2 -16.667 -3 -32 -3 -46c0 -102.667 58.333 -154 175 -154l-42 -300c-292.667 0 -439 128.333 -439 385c0 36 3 74.333 9 115l14 100c1.33301 9.33301 2 18.333 2 27c0 82 -60.333 123 -181 123z" />
    <glyph glyph-name="bar" unicode="|" horiz-adv-x="500" 
d="M625 1600l-253 -1800h-300l253 1800h300z" />
    <glyph glyph-name="braceright" unicode="}" horiz-adv-x="900" 
d="M877 550c-133.333 0 -207 -49.999 -221 -149.999l-14 -100c-46.667 -333.333 -236.667 -500 -570 -500l42 300c133.333 0 209.333 66.667 228 200l21 150c20.667 146.667 99 230 235 250c-112 17.333 -168 81.666 -168 192.999c0 18 1.33301 37 4 57l21 150
c2 16.667 3 32 3 46c0 102.667 -58.333 154 -175 154l42 300c292.667 0 439 -128.333 439 -385c0 -36 -3 -74.333 -9 -115l-14 -100c-1.33301 -10 -2 -19.333 -2 -28c0 -81.333 60 -122 180 -122z" />
    <glyph glyph-name="asciitilde" unicode="~" horiz-adv-x="1200" 
d="M170 500c37.333 266.667 155.998 400 355.998 400c86.667 0 155.334 -33.333 206.001 -100s109.334 -100 176.001 -100c60 0 99.333 66.667 118 200h200c-37.333 -266.667 -156 -400 -356 -400c-86.667 0 -155.5 31.667 -206.5 95s-109.833 95 -176.5 95
c-60 0 -99 -63.333 -117 -190h-200z" />
    <glyph glyph-name="uni00A0" unicode="&#xa0;" horiz-adv-x="400" 
 />
    <glyph glyph-name="exclamdown" unicode="&#xa1;" horiz-adv-x="500" 
d="M484 600l-140 -1000h-300l140 1000h300zM541 1000l-43 -300h-300l43 300h300z" />
    <glyph glyph-name="cent" unicode="&#xa2;" horiz-adv-x="1000" 
d="M847 1400l-28 -200.001h250l-43 -300h-250l-56 -400h250l-42 -300h-250l-28 -200h-100l28 200h-50c-234 0 -351 102.667 -351 308c0 28.667 2.33301 59.334 7 92.001l28 200c38 266.667 190.333 400 457 400h50l28 200h100zM484 599.999c-1.33301 -8 -2 -15.667 -2 -23
c0 -51.333 29.333 -77 88 -77h50l56 400h-50c-66.667 0 -104.667 -33.333 -114 -100z" />
    <glyph glyph-name="sterling" unicode="&#xa3;" 
d="M669 850h450l-42 -300h-450l-35 -250h450l-42 -300h-900l42 300h150l35 250h-150l42 300h150l22 150c37.333 266.667 189.333 400 456 400h350l-42 -300h-350c-66.667 0 -104.667 -33.333 -114 -100z" />
    <glyph glyph-name="yen" unicode="&#xa5;" horiz-adv-x="1200" 
d="M507 1400l219 -500l361 500h310l-493 -700h244l-28 -200h-300l-21 -150h300l-28 -200h-300l-21 -150h-300l21 150h-300l28 200h300l21 150h-300l28 200h243l-294 700h310z" />
    <glyph glyph-name="brokenbar" unicode="&#xa6;" horiz-adv-x="500" 
d="M625 1600l-113 -800h-300l113 800h300zM484 600l-112 -800h-300l112 800h300z" />
    <glyph glyph-name="dieresis" unicode="&#xa8;" horiz-adv-x="1000" 
d="M255 1100l42 300h300l-42 -300h-300zM755 1100l42 300h300l-42 -300h-300z" />
    <glyph glyph-name="copyright" unicode="&#xa9;" horiz-adv-x="1395" 
d="M1393 698c-23.333 -165.333 -101.501 -306.335 -234.501 -423.002s-281.833 -175 -446.5 -175c-165.333 0 -298 58.333 -398 175c-82 94.667 -123 205.334 -123 332.001c0 29.333 2.33301 59.666 7 90.999c23.333 164.667 101.5 305.334 234.5 422.001
s282.167 175 447.5 175c164.667 0 297.334 -58.333 398.001 -175c81.333 -94.667 122 -205 122 -331c0 -29.333 -2.33301 -59.666 -7 -90.999zM859.999 1155c-126 0 -239.833 -44.667 -341.5 -134s-161.5 -197 -179.5 -323c-3.33301 -23.333 -5 -46 -5 -68
c0 -97.333 31.333 -182.333 94 -255c76.667 -89.333 178 -134 304 -134s240 44.667 342 134s161.667 197 179 323c3.33301 24 5 47.333 5 70c0 96 -31 180.333 -93 253c-77.333 89.333 -179 134 -305 134zM967.999 766.998c-5.33301 20 -15.335 38.333 -30.002 55
c-29.333 34.667 -68.333 52 -117 52s-92.667 -17.167 -132 -51.5s-62.333 -75.833 -69 -124.5c-1.33301 -9.33301 -2 -18 -2 -26c0 -38 12 -70.667 36 -98c29.333 -34.667 68.333 -52 117 -52s92.667 17 132 51c20.667 18.667 36.667 39 48 61h146
c-20.667 -60.667 -57 -114 -109 -160c-70 -62 -148.667 -93 -236 -93s-157.666 31 -210.999 93c-43.333 50.667 -65 109.667 -65 177c0 15.333 1 31 3 47c12.667 87.333 54.334 161.833 125.001 223.5s149.667 92.5 237 92.5s157 -31 209 -93c39.333 -44.667 61 -96 65 -154
h-147z" />
    <glyph glyph-name="guillemotleft" unicode="&#xab;" horiz-adv-x="1328" 
d="M191 650l344 450h320l-344 -450l217 -450h-320zM719 650l344 450h320l-344 -450l217 -450h-320z" />
    <glyph glyph-name="logicalnot" unicode="&#xac;" horiz-adv-x="1000" 
d="M1019 850l-77 -550h-300l35 250h-500l42 300h800z" />
    <glyph glyph-name="registered" unicode="&#xae;" horiz-adv-x="1395" 
d="M1392 693c-22.667 -165.333 -100.668 -306.335 -234.001 -423.002s-282.333 -175 -447 -175c-165.333 0 -298 58.333 -398 175c-81.333 95.333 -122 206.666 -122 333.999c0 28.667 2 58.334 6 89.001c23.333 164.667 101.5 305.334 234.5 422.001s282.167 175 447.5 175
c164.667 0 297.334 -58.333 398.001 -175c81.333 -94.667 122 -205 122 -331c0 -29.333 -2.33301 -59.666 -7 -90.999zM859.999 1150c-126 0 -240 -44.667 -342 -134s-162 -197 -180 -323c-3.33301 -23.333 -5 -46 -5 -68c0 -97.333 31.333 -182.333 94 -255
c76.667 -89.333 178 -134 304 -134s240 44.667 342 134s161.667 197 179 323c3.33301 24 5 47.333 5 70c0 96 -31 180.333 -93 253c-76.667 89.333 -178 134 -304 134zM889.999 1009c123.333 0 185.001 -54 185.001 -162c0 -15.333 -1.33301 -31.666 -4 -48.999
c-12.667 -90.667 -53.334 -152.334 -122.001 -185.001l63 -237h-152l-53 211h-138l-29 -211h-141l89 633h302zM850 727.998c46.667 0 73.333 23.333 80 70c0.666992 6 1 11.667 1 17c0 36 -20.333 54 -61 54h-161l-20 -141h161z" />
    <glyph glyph-name="degree" unicode="&#xb0;" horiz-adv-x="620" 
d="M689 1200c-8.66699 -58 -36.333 -107.5 -83 -148.5s-99 -61.5 -157 -61.5s-104.667 20.667 -140 62c-28.667 32.667 -43 71 -43 115c0 10.667 1 21.667 3 33c8 58 35.333 107.5 82 148.5s99 61.5 157 61.5s104.667 -20.333 140 -61c28.667 -34 43 -73.333 43 -118
c0 -10 -0.666992 -20.333 -2 -31zM491.001 1290c-24.667 0 -47 -8.83301 -67 -26.5s-31.667 -38.834 -35 -63.501c-0.666992 -5.33301 -1 -10.333 -1 -15c0 -18 6 -34 18 -48c15.333 -18 35.333 -27 60 -27s47 8.83301 67 26.5s32 38.834 36 63.501
c0.666992 4.66699 1 9 1 13c0 19.333 -6.33301 36.333 -19 51c-15.333 17.333 -35.333 26 -60 26z" />
    <glyph glyph-name="plusminus" unicode="&#xb1;" horiz-adv-x="1000" 
d="M491 1000l35 250h300l-35 -250h250l-43 -300h-250l-35 -250h-300l35 250h-250l43 300h250zM943 303l-43 -300h-800l43 300h800z" />
    <glyph glyph-name="acute" unicode="&#xb4;" horiz-adv-x="600" 
d="M255 1100l132 300h310l-132 -300h-310z" />
    <glyph glyph-name="mu" unicode="&#xb5;" horiz-adv-x="1200" 
d="M541 1000l-85 -600c24 -66.667 86 -100 186 -100s171.333 33.333 214 100l85 600h300l-141 -1000h-300l14 100c-42.667 -66.667 -114 -100 -214 -100s-162.667 28 -188 84l-75 -530h-300l204 1446h300z" />
    <glyph glyph-name="paragraph" unicode="&#xb6;" horiz-adv-x="1500" 
d="M1597 1400l-252.999 -1800h-300l211 1500h-200l-211 -1500h-300l112 800c-292.667 0 -439 128.333 -439 385c0 36 3 74.333 9 115c47.333 333.333 237.666 500 570.999 500h800z" />
    <glyph glyph-name="periodcentered" unicode="&#xb7;" horiz-adv-x="500" 
d="M177 550l42 300h300l-42 -300h-300z" />
    <glyph glyph-name="cedilla" unicode="&#xb8;" horiz-adv-x="600" 
d="M186 -100c11.333 0.666992 22.001 0.999023 32.001 0.999023c167.333 0 251 -38.333 251 -115c0 -5.33301 -0.333008 -10.666 -1 -15.999c-18.667 -133.333 -101.334 -200 -248.001 -200c-66.667 0 -125.334 10 -176.001 30l18 130c50.667 -20 109.334 -30 176.001 -30
c60 0 92.667 20 98 60v6c0 36 -53.667 54 -161 54z" />
    <glyph glyph-name="guillemotright" unicode="&#xbb;" horiz-adv-x="1328" 
d="M448 200h-320l343 450l-216 450h320l216 -450zM976 200h-320l343 450l-216 450h320l216 -450z" />
    <glyph glyph-name="questiondown" unicode="&#xbf;" 
d="M884 600l-56 -400.001h-300c-66.667 0 -104.667 -33.333 -114 -100l-14 -100c-1.33301 -8 -2 -15.667 -2 -23c0 -51.333 29.333 -77 88 -77h500l-42 -300h-500c-234 0 -351 102.667 -351 308c0 28.667 2.33301 59.334 7 92.001l14 100
c37.333 266.667 189.333 400 456 400l14 100h300zM598 699.999l43 300h300l-43 -300h-300z" />
    <glyph glyph-name="Agrave" unicode="&#xc0;" horiz-adv-x="1300" 
d="M1300 0h-300l-51 300h-514l-135 -300h-300l617 1400h460zM568 600h332l-95 500zM684 1500l-48 300h310l48 -300h-310z" />
    <glyph glyph-name="Aacute" unicode="&#xc1;" horiz-adv-x="1300" 
d="M1300 0h-300l-51 300h-514l-135 -300h-300l617 1400h460zM568 600h332l-95 500zM728 1500l132 300h310l-132 -300h-310z" />
    <glyph glyph-name="Acircumflex" unicode="&#xc2;" horiz-adv-x="1300" 
d="M1300 0h-300l-51 300h-514l-135 -300h-300l617 1400h460zM568 600h332l-95 500zM763 1800h280l118 -300h-200l-72 200l-128 -200h-200z" />
    <glyph glyph-name="Atilde" unicode="&#xc3;" horiz-adv-x="1300" 
d="M1300 0h-300l-51 300h-514l-135 -300h-300l617 1400h460zM568 600h332l-95 500zM491 1500c23.333 166.667 98.333 250 225 250c66.667 0 124.834 -13.333 174.501 -40s97.834 -40 144.501 -40s73.667 26.667 81 80h150c-23.333 -166.667 -98.333 -250 -225 -250
c-66.667 0 -124.834 13.333 -174.501 40s-97.834 40 -144.501 40s-73.667 -26.667 -81 -80h-150z" />
    <glyph glyph-name="Adieresis" unicode="&#xc4;" horiz-adv-x="1300" 
d="M1300 0h-300l-51 300h-514l-135 -300h-300l617 1400h460zM568 600h332l-95 500zM461 1500l42 300h300l-42 -300h-300zM961 1500l42 300h300l-42 -300h-300z" />
    <glyph glyph-name="Aring" unicode="&#xc5;" horiz-adv-x="1300" 
d="M1300 0h-300l-51 300h-514l-135 -300h-300l617 1400h460zM568 600h332l-95 500zM1099 1700c-8 -58 -35.5 -107.501 -82.5 -148.501s-99.5 -61.5 -157.5 -61.5s-104.333 20.667 -139 62c-28.667 33.333 -43 72 -43 116c0 10.667 0.666992 21.334 2 32.001
c8 58 35.333 107.5 82 148.5s99 61.5 157 61.5s104.667 -20.333 140 -61c28.667 -34 43 -73.333 43 -118c0 -10 -0.666992 -20.333 -2 -31zM902 1790c-24.667 0 -47.168 -8.83301 -67.501 -26.5s-32.166 -38.834 -35.499 -63.501c-0.666992 -4.66699 -1 -9 -1 -13
c0 -19.333 6.33301 -36 19 -50c14.667 -18 34.334 -27 59.001 -27s47.167 8.83301 67.5 26.5s32.166 38.834 35.499 63.501c0.666992 4.66699 1 9 1 13c0 19.333 -6 36.333 -18 51c-15.333 17.333 -35.333 26 -60 26z" />
    <glyph glyph-name="AE" unicode="&#xc6;" horiz-adv-x="1700" 
d="M1719 850l-42 -300h-500l-35 -250h500l-42 -300h-800l42 300h-407l-135 -300h-300l617 1400h1180l-42 -300h-500l-36 -250h500zM955 1100h-150l-227 -500h306z" />
    <glyph glyph-name="Ccedilla" unicode="&#xc7;" 
d="M456 400c-1.33301 -8 -2 -15.668 -2 -23.001c0 -51.333 29.333 -77 88 -77h500l-42 -300h-500c-234 0 -351 102.667 -351 308c0 28.667 2.33301 59.334 7 92.001l85 600c37.333 266.667 189.333 400 456 400h500l-42 -300h-500c-66.667 0 -104.667 -33.333 -114 -100z
M486 -100.001c11.333 0.666992 22.001 0.999023 32.001 0.999023c167.333 0 251 -38.333 251 -115c0 -5.33301 -0.333008 -10.666 -1 -15.999c-18.667 -133.333 -101.334 -200 -248.001 -200c-66.667 0 -125.334 10 -176.001 30l18 130c50.667 -20 109.334 -30 176.001 -30
c60 0 92.667 20 98 60v6c0 36 -53.667 54 -161 54z" />
    <glyph glyph-name="Egrave" unicode="&#xc8;" 
d="M1119 850l-42 -300h-600l-35 -250h600l-42 -300h-900l197 1400h900l-42 -300h-600l-36 -250h600zM584 1500l-48 300h310l48 -300h-310z" />
    <glyph glyph-name="Eacute" unicode="&#xc9;" 
d="M1119 850l-42 -300h-600l-35 -250h600l-42 -300h-900l197 1400h900l-42 -300h-600l-36 -250h600zM628 1500l132 300h310l-132 -300h-310z" />
    <glyph glyph-name="Ecircumflex" unicode="&#xca;" 
d="M1119 850l-42 -300h-600l-35 -250h600l-42 -300h-900l197 1400h900l-42 -300h-600l-36 -250h600zM663 1800h280l118 -300h-200l-72 200l-128 -200h-200z" />
    <glyph glyph-name="Edieresis" unicode="&#xcb;" 
d="M1119 850l-42 -300h-600l-35 -250h600l-42 -300h-900l197 1400h900l-42 -300h-600l-36 -250h600zM361 1500l42 300h300l-42 -300h-300zM861 1500l42 300h300l-42 -300h-300z" />
    <glyph glyph-name="Igrave" unicode="&#xcc;" horiz-adv-x="500" 
d="M597 1400l-197 -1400h-300l197 1400h300zM286 1500l-48 300h310l48 -300h-310z" />
    <glyph glyph-name="Iacute" unicode="&#xcd;" horiz-adv-x="500" 
d="M597 1400l-197 -1400h-300l197 1400h300zM328 1500l132 300h310l-132 -300h-310z" />
    <glyph glyph-name="Icircumflex" unicode="&#xce;" horiz-adv-x="500" 
d="M597 1400l-197 -1400h-300l197 1400h300zM365 1800h280l118 -300h-200l-72 200l-128 -200h-200z" />
    <glyph glyph-name="Idieresis" unicode="&#xcf;" horiz-adv-x="500" 
d="M597 1400l-197 -1400h-300l197 1400h300zM63 1500l42 300h300l-42 -300h-300zM563 1500l42 300h300l-42 -300h-300z" />
    <glyph glyph-name="Eth" unicode="&#xd0;" horiz-adv-x="1200" 
d="M897 1400c234 0 351 -102.666 351 -307.999c0 -28.667 -2.33301 -59.334 -7 -92.001l-85 -600c-37.333 -266.667 -189.333 -400 -456 -400h-600l84 600h-200l28 200h200l85 600h600zM941 1000c1.33301 8 2 15.667 2 23c0 51.333 -29.333 77 -88 77h-300l-43 -300h200
l-28 -200h-200l-42 -300h300c66.667 0 104.667 33.333 114 100z" />
    <glyph glyph-name="Ntilde" unicode="&#xd1;" horiz-adv-x="1300" 
d="M597 1400l380 -850l120 850h300l-197 -1400h-300l-381 850l-119 -850h-300l197 1400h300zM491 1500c23.333 166.667 98.333 250 225 250c66.667 0 124.834 -13.333 174.501 -40s97.834 -40 144.501 -40s73.667 26.667 81 80h150c-23.333 -166.667 -98.333 -250 -225 -250
c-66.667 0 -124.834 13.333 -174.501 40s-97.834 40 -144.501 40s-73.667 -26.667 -81 -80h-150z" />
    <glyph glyph-name="Ograve" unicode="&#xd2;" horiz-adv-x="1250" 
d="M1206 400c-37.333 -266.667 -189.333 -400 -456 -400h-250c-234 0 -351 102.667 -351 308c0 28.667 2.33301 59.334 7 92.001l85 600c37.333 266.667 189.333 400 456 400h250c234 0 351 -102.667 351 -308c0 -28.667 -2.33301 -59.334 -7 -92.001zM456 400
c-1.33301 -8 -2 -15.667 -2 -23c0 -51.333 29.333 -77 88 -77h250c66.667 0 104.667 33.333 114 100l85 600c1.33301 8 2 15.667 2 23c0 51.333 -29.333 77 -88 77h-250c-66.667 0 -104.667 -33.333 -114 -100zM659 1500l-48 300h310l48 -300h-310z" />
    <glyph glyph-name="Oacute" unicode="&#xd3;" horiz-adv-x="1250" 
d="M1206 400c-37.333 -266.667 -189.333 -400 -456 -400h-250c-234 0 -351 102.667 -351 308c0 28.667 2.33301 59.334 7 92.001l85 600c37.333 266.667 189.333 400 456 400h250c234 0 351 -102.667 351 -308c0 -28.667 -2.33301 -59.334 -7 -92.001zM456 400
c-1.33301 -8 -2 -15.667 -2 -23c0 -51.333 29.333 -77 88 -77h250c66.667 0 104.667 33.333 114 100l85 600c1.33301 8 2 15.667 2 23c0 51.333 -29.333 77 -88 77h-250c-66.667 0 -104.667 -33.333 -114 -100zM703 1500l132 300h310l-132 -300h-310z" />
    <glyph glyph-name="Ocircumflex" unicode="&#xd4;" horiz-adv-x="1250" 
d="M1206 400c-37.333 -266.667 -189.333 -400 -456 -400h-250c-234 0 -351 102.667 -351 308c0 28.667 2.33301 59.334 7 92.001l85 600c37.333 266.667 189.333 400 456 400h250c234 0 351 -102.667 351 -308c0 -28.667 -2.33301 -59.334 -7 -92.001zM456 400
c-1.33301 -8 -2 -15.667 -2 -23c0 -51.333 29.333 -77 88 -77h250c66.667 0 104.667 33.333 114 100l85 600c1.33301 8 2 15.667 2 23c0 51.333 -29.333 77 -88 77h-250c-66.667 0 -104.667 -33.333 -114 -100zM738 1800h280l118 -300h-200l-72 200l-128 -200h-200z" />
    <glyph glyph-name="Otilde" unicode="&#xd5;" horiz-adv-x="1250" 
d="M1206 400c-37.333 -266.667 -189.333 -400 -456 -400h-250c-234 0 -351 102.667 -351 308c0 28.667 2.33301 59.334 7 92.001l85 600c37.333 266.667 189.333 400 456 400h250c234 0 351 -102.667 351 -308c0 -28.667 -2.33301 -59.334 -7 -92.001zM456 400
c-1.33301 -8 -2 -15.667 -2 -23c0 -51.333 29.333 -77 88 -77h250c66.667 0 104.667 33.333 114 100l85 600c1.33301 8 2 15.667 2 23c0 51.333 -29.333 77 -88 77h-250c-66.667 0 -104.667 -33.333 -114 -100zM466 1500c23.333 166.667 98.333 250 225 250
c66.667 0 124.834 -13.333 174.501 -40s97.834 -40 144.501 -40s73.667 26.667 81 80h150c-23.333 -166.667 -98.333 -250 -225 -250c-66.667 0 -124.834 13.333 -174.501 40s-97.834 40 -144.501 40s-73.667 -26.667 -81 -80h-150z" />
    <glyph glyph-name="Odieresis" unicode="&#xd6;" horiz-adv-x="1250" 
d="M1206 400c-37.333 -266.667 -189.333 -400 -456 -400h-250c-234 0 -351 102.667 -351 308c0 28.667 2.33301 59.334 7 92.001l85 600c37.333 266.667 189.333 400 456 400h250c234 0 351 -102.667 351 -308c0 -28.667 -2.33301 -59.334 -7 -92.001zM456 400
c-1.33301 -8 -2 -15.667 -2 -23c0 -51.333 29.333 -77 88 -77h250c66.667 0 104.667 33.333 114 100l85 600c1.33301 8 2 15.667 2 23c0 51.333 -29.333 77 -88 77h-250c-66.667 0 -104.667 -33.333 -114 -100zM436 1500l42 300h300l-42 -300h-300zM936 1500l42 300h300
l-42 -300h-300z" />
    <glyph glyph-name="multiply" unicode="&#xd7;" horiz-adv-x="1119" 
d="M445 700l-212 247l242 213l213 -248l282 248l182 -213l-282 -247l213 -247l-242 -213l-212 248l-283 -248l-182 213z" />
    <glyph glyph-name="Oslash" unicode="&#xd8;" horiz-adv-x="1250" 
d="M1192 300c-28 -200 -142 -300 -342 -300h-352l-86 -200h-150l86 202c-140.667 14.667 -211 91 -211 229c0 21.333 1.66699 44.333 5 69l113 800c28 200 142 300 342 300h352l86 200h150l-88 -203c142 -14 213 -90 213 -228c0 -21.333 -1.66699 -44.333 -5 -69zM456 400
c-1.33301 -8 -2 -15.333 -2 -22c0 -30 9.33301 -51.333 28 -64l338 786h-165c-66.667 0 -104.667 -33.333 -114 -100zM963 1085l-337 -785h166c66.667 0 104.667 33.333 114 100l85 600z" />
    <glyph glyph-name="Ugrave" unicode="&#xd9;" horiz-adv-x="1200" 
d="M597 1400l-141 -1000c-1.33301 -8 -2 -15.667 -2 -23c0 -51.333 29.333 -77 88 -77h200c66.667 0 104.667 33.333 114 100l141 1000h300l-141 -1000c-37.333 -266.667 -189.333 -400 -456 -400h-200c-234 0 -351 102.667 -351 308c0 28.667 2.33301 59.334 7 92.001
l141 1000h300zM634 1500l-48 300h310l48 -300h-310z" />
    <glyph glyph-name="Uacute" unicode="&#xda;" horiz-adv-x="1200" 
d="M597 1400l-141 -1000c-1.33301 -8 -2 -15.667 -2 -23c0 -51.333 29.333 -77 88 -77h200c66.667 0 104.667 33.333 114 100l141 1000h300l-141 -1000c-37.333 -266.667 -189.333 -400 -456 -400h-200c-234 0 -351 102.667 -351 308c0 28.667 2.33301 59.334 7 92.001
l141 1000h300zM678 1500l132 300h310l-132 -300h-310z" />
    <glyph glyph-name="Ucircumflex" unicode="&#xdb;" horiz-adv-x="1200" 
d="M597 1400l-141 -1000c-1.33301 -8 -2 -15.667 -2 -23c0 -51.333 29.333 -77 88 -77h200c66.667 0 104.667 33.333 114 100l141 1000h300l-141 -1000c-37.333 -266.667 -189.333 -400 -456 -400h-200c-234 0 -351 102.667 -351 308c0 28.667 2.33301 59.334 7 92.001
l141 1000h300zM713 1800h280l118 -300h-200l-72 200l-128 -200h-200z" />
    <glyph glyph-name="Udieresis" unicode="&#xdc;" horiz-adv-x="1200" 
d="M597 1400l-141 -1000c-1.33301 -8 -2 -15.667 -2 -23c0 -51.333 29.333 -77 88 -77h200c66.667 0 104.667 33.333 114 100l141 1000h300l-141 -1000c-37.333 -266.667 -189.333 -400 -456 -400h-200c-234 0 -351 102.667 -351 308c0 28.667 2.33301 59.334 7 92.001
l141 1000h300zM411 1500l42 300h300l-42 -300h-300zM911 1500l42 300h300l-42 -300h-300z" />
    <glyph glyph-name="Yacute" unicode="&#xdd;" horiz-adv-x="1200" 
d="M507 1400l219 -500l361 500h310l-563 -800l-84 -600h-300l84 600l-337 800h310zM678 1500l132 300h310l-132 -300h-310z" />
    <glyph glyph-name="Thorn" unicode="&#xde;" horiz-adv-x="1200" 
d="M731 220l-300 0.000976562l-31 -220h-300l197 1400h300l-33 -230h300c234 0 351 -102.667 351 -308c0 -28.667 -2.33301 -59.334 -7 -92.001l-21 -150c-37.333 -266.667 -189.333 -400 -456 -400zM522 870.001l-49 -350h300c66.667 0 104.667 33.333 114 100l21 150
c1.33301 8 2 15.667 2 23c0 51.333 -29.333 77 -88 77h-300z" />
    <glyph glyph-name="germandbls" unicode="&#xdf;" horiz-adv-x="1200" 
d="M742 300c66.667 0 104.667 33.334 114 100.001l7 50c1.33301 8 2 15.667 2 23c0 51.333 -29.333 77 -88 77h-200l42 300h200c66.667 0 105 33.333 115 100l7 50c1.33301 8 2 15.667 2 23c0 51.333 -29.333 77 -88 77h-200c-66.667 0 -104.667 -33.333 -114 -100
l-141 -1000h-300l141 1000c37.333 266.667 189.333 400 456 400h200c234 0 351 -102.667 351 -308c0 -28.667 -2.33301 -59.334 -7 -92.001c-25.333 -180 -96.333 -280 -213 -300c90 -16 135 -85.333 135 -208c0 -28 -2.33301 -58.667 -7 -92
c-37.333 -266.667 -189.333 -400 -456 -400h-200l42 300h200z" />
    <glyph glyph-name="agrave" unicode="&#xe0;" 
d="M601 720l-300 -0.00195312l40 280h300c294.667 0 442 -120 442 -360c0 -31.333 -2.33301 -64.666 -7 -99.999l-76 -540h-280l-9 80c-40.667 -53.333 -111 -80 -211 -80h-100c-174.667 0 -262 78.667 -262 236c0 22.667 2 47.334 6 74.001c28.667 206.667 143 310 343 310
h100c100 0 163 -26.667 189 -80c2 13.333 3 26 3 38c0 94.667 -59.333 142 -178 142zM534 239.998c100 0 169 16.667 207 50l8 60c-28.667 33.333 -93 50 -193 50c-66.667 0 -103.667 -26.667 -111 -80c-0.666992 -5.33301 -1 -10.333 -1 -15c0 -43.333 30 -65 90 -65z
M528 1100l-48 300h310l48 -300h-310z" />
    <glyph glyph-name="aacute" unicode="&#xe1;" 
d="M601 720l-300 -0.00195312l40 280h300c294.667 0 442 -120 442 -360c0 -31.333 -2.33301 -64.666 -7 -99.999l-76 -540h-280l-9 80c-40.667 -53.333 -111 -80 -211 -80h-100c-174.667 0 -262 78.667 -262 236c0 22.667 2 47.334 6 74.001c28.667 206.667 143 310 343 310
h100c100 0 163 -26.667 189 -80c2 13.333 3 26 3 38c0 94.667 -59.333 142 -178 142zM534 239.998c100 0 169 16.667 207 50l8 60c-28.667 33.333 -93 50 -193 50c-66.667 0 -103.667 -26.667 -111 -80c-0.666992 -5.33301 -1 -10.333 -1 -15c0 -43.333 30 -65 90 -65z
M572 1100l132 300h310l-132 -300h-310z" />
    <glyph glyph-name="acircumflex" unicode="&#xe2;" 
d="M601 720l-300 -0.00195312l40 280h300c294.667 0 442 -120 442 -360c0 -31.333 -2.33301 -64.666 -7 -99.999l-76 -540h-280l-9 80c-40.667 -53.333 -111 -80 -211 -80h-100c-174.667 0 -262 78.667 -262 236c0 22.667 2 47.334 6 74.001c28.667 206.667 143 310 343 310
h100c100 0 163 -26.667 189 -80c2 13.333 3 26 3 38c0 94.667 -59.333 142 -178 142zM534 239.998c100 0 169 16.667 207 50l8 60c-28.667 33.333 -93 50 -193 50c-66.667 0 -103.667 -26.667 -111 -80c-0.666992 -5.33301 -1 -10.333 -1 -15c0 -43.333 30 -65 90 -65z
M607 1400h280l118 -300h-200l-72 200l-128 -200h-200z" />
    <glyph glyph-name="atilde" unicode="&#xe3;" 
d="M601 720l-300 -0.00195312l40 280h300c294.667 0 442 -120 442 -360c0 -31.333 -2.33301 -64.666 -7 -99.999l-76 -540h-280l-9 80c-40.667 -53.333 -111 -80 -211 -80h-100c-174.667 0 -262 78.667 -262 236c0 22.667 2 47.334 6 74.001c28.667 206.667 143 310 343 310
h100c100 0 163 -26.667 189 -80c2 13.333 3 26 3 38c0 94.667 -59.333 142 -178 142zM534 239.998c100 0 169 16.667 207 50l8 60c-28.667 33.333 -93 50 -193 50c-66.667 0 -103.667 -26.667 -111 -80c-0.666992 -5.33301 -1 -10.333 -1 -15c0 -43.333 30 -65 90 -65z
M335 1100c23.333 166.667 98.335 250 225.002 250c66.667 0 124.667 -13.333 174 -40s97.333 -40 144 -40s74 26.667 82 80h150c-23.333 -166.667 -98.333 -250 -225 -250c-66.667 0 -124.834 13.333 -174.501 40s-97.834 40 -144.501 40s-73.667 -26.667 -81 -80h-150z" />
    <glyph glyph-name="adieresis" unicode="&#xe4;" 
d="M601 720l-300 -0.00195312l40 280h300c294.667 0 442 -120 442 -360c0 -31.333 -2.33301 -64.666 -7 -99.999l-76 -540h-280l-9 80c-40.667 -53.333 -111 -80 -211 -80h-100c-174.667 0 -262 78.667 -262 236c0 22.667 2 47.334 6 74.001c28.667 206.667 143 310 343 310
h100c100 0 163 -26.667 189 -80c2 13.333 3 26 3 38c0 94.667 -59.333 142 -178 142zM534 239.998c100 0 169 16.667 207 50l8 60c-28.667 33.333 -93 50 -193 50c-66.667 0 -103.667 -26.667 -111 -80c-0.666992 -5.33301 -1 -10.333 -1 -15c0 -43.333 30 -65 90 -65z
M305 1100l42 300h300l-42 -300h-300zM805 1100l42 300h300l-42 -300h-300z" />
    <glyph glyph-name="aring" unicode="&#xe5;" 
d="M601 720l-300 -0.00195312l40 280h300c294.667 0 442 -120 442 -360c0 -31.333 -2.33301 -64.666 -7 -99.999l-76 -540h-280l-9 80c-40.667 -53.333 -111 -80 -211 -80h-100c-174.667 0 -262 78.667 -262 236c0 22.667 2 47.334 6 74.001c28.667 206.667 143 310 343 310
h100c100 0 163 -26.667 189 -80c2 13.333 3 26 3 38c0 94.667 -59.333 142 -178 142zM534 239.998c100 0 169 16.667 207 50l8 60c-28.667 33.333 -93 50 -193 50c-66.667 0 -103.667 -26.667 -111 -80c-0.666992 -5.33301 -1 -10.333 -1 -15c0 -43.333 30 -65 90 -65z
M943 1300c-8.66699 -58 -36.333 -107.5 -83 -148.5s-99 -61.5 -157 -61.5s-104.667 20.667 -140 62c-28.667 32.667 -43 71 -43 115c0 10.667 1 21.667 3 33c8 58 35.333 107.5 82 148.5s99 61.5 157 61.5s104.667 -20.333 140 -61c28.667 -34 43 -73.333 43 -118
c0 -10 -0.666992 -20.333 -2 -31zM745.001 1390c-24.667 0 -47 -8.83301 -67 -26.5s-31.667 -38.834 -35 -63.501c-0.666992 -4.66699 -1 -9 -1 -13c0 -19.333 6.33301 -36 19 -50c14.667 -18 34.334 -27 59.001 -27s47.167 8.83301 67.5 26.5s32.166 38.834 35.499 63.501
c0.666992 4.66699 1 9 1 13c0 19.333 -6.33301 36.333 -19 51c-15.333 17.333 -35.333 26 -60 26z" />
    <glyph glyph-name="ae" unicode="&#xe6;" horiz-adv-x="1655" 
d="M301 720l40 279.998h300c144.667 0 243.334 -45.333 296.001 -136c70 90.667 173 136 309 136h50c233.333 0 350 -102 350 -306c0 -29.333 -2.33301 -60.666 -7 -93.999l-31 -220h-550l-4 -30c-1.33301 -8 -2 -15.667 -2 -23c0 -51.333 29.333 -77 88 -77h400l-35 -250
h-400c-128 0 -215 39.667 -261 119c-100.667 -79.333 -215.334 -119 -344.001 -119h-100c-174.667 0 -262 78.667 -262 236c0 22.667 2 47.334 6 74.001c28.667 206.667 143 310 343 310h100c100 0 163 -26.667 189 -80c2 13.333 3 26 3 38c0 94.667 -59.333 142 -178 142
h-300zM534 239.998c100 0 169 16.667 207 50l8 60c-28.667 33.333 -93 50 -193 50c-66.667 0 -103.667 -26.667 -111 -80c-0.666992 -5.33301 -1 -10.333 -1 -15c0 -43.333 30 -65 90 -65zM1089 599.998h250l6 40c1.33301 8 2 15.667 2 23c0 51.333 -29.333 77 -88 77h-50
c-66.667 0 -104.667 -33.333 -114 -100z" />
    <glyph glyph-name="ccedilla" unicode="&#xe7;" horiz-adv-x="1000" 
d="M456 400c-1.33301 -8 -2 -15.668 -2 -23.001c0 -51.333 29.333 -77 88 -77h400l-42 -300h-400c-234 0 -351 102.667 -351 308c0 28.667 2.33301 59.334 7 92.001l28 200c38 266.667 190.333 400 457 400h400l-43 -300h-400c-66.667 0 -104.667 -33.333 -114 -100z
M486 -100.001c11.333 0.666992 22.001 0.999023 32.001 0.999023c167.333 0 251 -38.333 251 -115c0 -5.33301 -0.333008 -10.666 -1 -15.999c-18.667 -133.333 -101.334 -200 -248.001 -200c-66.667 0 -125.334 10 -176.001 30l18 130c50.667 -20 109.334 -30 176.001 -30
c60 0 92.667 20 98 60v6c0 36 -53.667 54 -161 54z" />
    <glyph glyph-name="egrave" unicode="&#xe8;" 
d="M453 380l-4 -30.002c-1.33301 -8 -2 -15.667 -2 -23c0 -51.333 29.333 -77 88 -77h450l-35 -250h-450c-234 0 -351 102.667 -351 308c0 28.667 2.33301 59.334 7 92.001l28 200c38 266.667 190.333 400 457 400h100c233.333 0 350 -102 350 -306
c0 -29.333 -2.33301 -60.666 -7 -93.999l-31 -220h-600zM490 639.998l-6 -40h300l6 40c1.33301 8 2 15.667 2 23c0 51.333 -29.333 77 -88 77h-100c-66.667 0 -104.667 -33.333 -114 -100zM528 1100l-48 300h310l48 -300h-310z" />
    <glyph glyph-name="eacute" unicode="&#xe9;" 
d="M453 380l-4 -30.002c-1.33301 -8 -2 -15.667 -2 -23c0 -51.333 29.333 -77 88 -77h450l-35 -250h-450c-234 0 -351 102.667 -351 308c0 28.667 2.33301 59.334 7 92.001l28 200c38 266.667 190.333 400 457 400h100c233.333 0 350 -102 350 -306
c0 -29.333 -2.33301 -60.666 -7 -93.999l-31 -220h-600zM490 639.998l-6 -40h300l6 40c1.33301 8 2 15.667 2 23c0 51.333 -29.333 77 -88 77h-100c-66.667 0 -104.667 -33.333 -114 -100zM572 1100l132 300h310l-132 -300h-310z" />
    <glyph glyph-name="ecircumflex" unicode="&#xea;" 
d="M453 380l-4 -30.002c-1.33301 -8 -2 -15.667 -2 -23c0 -51.333 29.333 -77 88 -77h450l-35 -250h-450c-234 0 -351 102.667 -351 308c0 28.667 2.33301 59.334 7 92.001l28 200c38 266.667 190.333 400 457 400h100c233.333 0 350 -102 350 -306
c0 -29.333 -2.33301 -60.666 -7 -93.999l-31 -220h-600zM490 639.998l-6 -40h300l6 40c1.33301 8 2 15.667 2 23c0 51.333 -29.333 77 -88 77h-100c-66.667 0 -104.667 -33.333 -114 -100zM607 1400h280l118 -300h-200l-72 200l-128 -200h-200z" />
    <glyph glyph-name="edieresis" unicode="&#xeb;" 
d="M453 380l-4 -30.002c-1.33301 -8 -2 -15.667 -2 -23c0 -51.333 29.333 -77 88 -77h450l-35 -250h-450c-234 0 -351 102.667 -351 308c0 28.667 2.33301 59.334 7 92.001l28 200c38 266.667 190.333 400 457 400h100c233.333 0 350 -102 350 -306
c0 -29.333 -2.33301 -60.666 -7 -93.999l-31 -220h-600zM490 639.998l-6 -40h300l6 40c1.33301 8 2 15.667 2 23c0 51.333 -29.333 77 -88 77h-100c-66.667 0 -104.667 -33.333 -114 -100zM305 1100l42 300h300l-42 -300h-300zM805 1100l42 300h300l-42 -300h-300z" />
    <glyph glyph-name="igrave" unicode="&#xec;" horiz-adv-x="500" 
d="M541 1000l-141 -1000h-300l141 1000h300zM230 1100l-48 300h310l48 -300h-310z" />
    <glyph glyph-name="iacute" unicode="&#xed;" horiz-adv-x="500" 
d="M541 1000l-141 -1000h-300l141 1000h300zM272 1100l132 300h310l-132 -300h-310z" />
    <glyph glyph-name="icircumflex" unicode="&#xee;" horiz-adv-x="500" 
d="M541 1000l-141 -1000h-300l141 1000h300zM309 1400h280l118 -300h-200l-72 200l-128 -200h-200z" />
    <glyph glyph-name="idieresis" unicode="&#xef;" horiz-adv-x="500" 
d="M541 1000l-141 -1000h-300l141 1000h300zM7 1100l42 300h300l-42 -300h-300zM507 1100l42 300h300l-42 -300h-300z" />
    <glyph glyph-name="eth" unicode="&#xf0;" 
d="M855 1100l-200 -0.000976562l28 200h200l14 100h300l-14 -100h200l-28 -200h-200l-155 -1100h-270l-19 80c-40.667 -53.333 -111 -80 -211 -80c-234 0 -351 102.667 -351 308c0 28.667 2.33301 59.334 7 92.001l28 200c38 266.667 190.333 400 457 400
c100 0 162.667 -26.667 188 -80zM542 299.999c100 0 169 16.667 207 50l42 300c-28.667 33.333 -93 50 -193 50c-66.667 0 -104.667 -33.333 -114 -100l-28 -200c-1.33301 -8 -2 -15.667 -2 -23c0 -51.333 29.333 -77 88 -77z" />
    <glyph glyph-name="ntilde" unicode="&#xf1;" 
d="M400 0l-300 -0.000976562l141 1000h280l8 -80c41.333 53.333 112 80 212 80c233.333 0 350 -102 350 -306c0 -29.333 -2.33301 -60.666 -7 -93.999l-84 -600h-300l84 600c1.33301 8 2 15.667 2 23c0 51.333 -29.333 77 -88 77c-100 0 -169 -16.667 -207 -50zM335 1100
c23.333 166.667 98.335 250 225.002 250c66.667 0 124.667 -13.333 174 -40s97.333 -40 144 -40s74 26.667 82 80h150c-23.333 -166.667 -98.333 -250 -225 -250c-66.667 0 -124.834 13.333 -174.501 40s-97.834 40 -144.501 40s-73.667 -26.667 -81 -80h-150z" />
    <glyph glyph-name="ograve" unicode="&#xf2;" 
d="M1056 400c-37.333 -266.667 -189.333 -400.002 -456 -400.002h-100c-234 0 -351 102.667 -351 308c0 28.667 2.33301 59.334 7 92.001l28 200c38 266.667 190.333 400 457 400h100c233.333 0 350 -102 350 -306c0 -29.333 -2.33301 -60.666 -7 -93.999zM456 399.998
c-1.33301 -8 -1.99902 -15.668 -1.99902 -23.001c0 -51.333 29.333 -77 88 -77h100c66.667 0 104.667 33.333 114 100l28 200c0.666992 6.66699 1 13.334 1 20.001c0 46.667 -29.333 70 -88 70h-100c-66.667 0 -104.334 -30 -113.001 -90zM528.001 1100l-48 300h310l48 -300
h-310z" />
    <glyph glyph-name="oacute" unicode="&#xf3;" 
d="M1056 400c-37.333 -266.667 -189.333 -400.002 -456 -400.002h-100c-234 0 -351 102.667 -351 308c0 28.667 2.33301 59.334 7 92.001l28 200c38 266.667 190.333 400 457 400h100c233.333 0 350 -102 350 -306c0 -29.333 -2.33301 -60.666 -7 -93.999zM456 399.998
c-1.33301 -8 -1.99902 -15.668 -1.99902 -23.001c0 -51.333 29.333 -77 88 -77h100c66.667 0 104.667 33.333 114 100l28 200c0.666992 6.66699 1 13.334 1 20.001c0 46.667 -29.333 70 -88 70h-100c-66.667 0 -104.334 -30 -113.001 -90zM572.001 1100l132 300h310
l-132 -300h-310z" />
    <glyph glyph-name="ocircumflex" unicode="&#xf4;" 
d="M1056 400c-37.333 -266.667 -189.333 -400.002 -456 -400.002h-100c-234 0 -351 102.667 -351 308c0 28.667 2.33301 59.334 7 92.001l28 200c38 266.667 190.333 400 457 400h100c233.333 0 350 -102 350 -306c0 -29.333 -2.33301 -60.666 -7 -93.999zM456 399.998
c-1.33301 -8 -1.99902 -15.668 -1.99902 -23.001c0 -51.333 29.333 -77 88 -77h100c66.667 0 104.667 33.333 114 100l28 200c0.666992 6.66699 1 13.334 1 20.001c0 46.667 -29.333 70 -88 70h-100c-66.667 0 -104.334 -30 -113.001 -90zM607.001 1400h280l118 -300h-200
l-72 200l-128 -200h-200z" />
    <glyph glyph-name="otilde" unicode="&#xf5;" 
d="M1056 400c-37.333 -266.667 -189.333 -400.002 -456 -400.002h-100c-234 0 -351 102.667 -351 308c0 28.667 2.33301 59.334 7 92.001l28 200c38 266.667 190.333 400 457 400h100c233.333 0 350 -102 350 -306c0 -29.333 -2.33301 -60.666 -7 -93.999zM456 399.998
c-1.33301 -8 -1.99902 -15.668 -1.99902 -23.001c0 -51.333 29.333 -77 88 -77h100c66.667 0 104.667 33.333 114 100l28 200c0.666992 6.66699 1 13.334 1 20.001c0 46.667 -29.333 70 -88 70h-100c-66.667 0 -104.334 -30 -113.001 -90zM335.001 1100
c23.333 166.667 98.335 250 225.002 250c66.667 0 124.667 -13.333 174 -40s97.333 -40 144 -40s74 26.667 82 80h150c-23.333 -166.667 -98.333 -250 -225 -250c-66.667 0 -124.834 13.333 -174.501 40s-97.834 40 -144.501 40s-73.667 -26.667 -81 -80h-150z" />
    <glyph glyph-name="odieresis" unicode="&#xf6;" 
d="M1056 400c-37.333 -266.667 -189.333 -400.002 -456 -400.002h-100c-234 0 -351 102.667 -351 308c0 28.667 2.33301 59.334 7 92.001l28 200c38 266.667 190.333 400 457 400h100c233.333 0 350 -102 350 -306c0 -29.333 -2.33301 -60.666 -7 -93.999zM456 399.998
c-1.33301 -8 -1.99902 -15.668 -1.99902 -23.001c0 -51.333 29.333 -77 88 -77h100c66.667 0 104.667 33.333 114 100l28 200c0.666992 6.66699 1 13.334 1 20.001c0 46.667 -29.333 70 -88 70h-100c-66.667 0 -104.334 -30 -113.001 -90zM305.001 1100l42 300h300l-42 -300
h-300zM805.001 1100l42 300h300l-42 -300h-300z" />
    <glyph glyph-name="divide" unicode="&#xf7;" horiz-adv-x="1000" 
d="M1012 800l-28 -200h-800l28 200h800zM428 200l28 200h200l-28 -200h-200zM541 1000l28 200h200l-28 -200h-200z" />
    <glyph glyph-name="oslash" unicode="&#xf8;" 
d="M1056 400c-37.333 -266.667 -189.333 -400 -456 -400h-100c-20.667 0 -40.667 0.666992 -60 2l-103 -202h-150l119 233c-104.667 46 -157 137.333 -157 274c0 29.333 2.33301 60.333 7 93l28 200c38 266.667 190.333 400 457 400h100c20.667 0 40 -1 58 -3l105 203h150
l-120 -234c104.667 -45.333 157 -136.333 157 -273c0 -29.333 -2.33301 -60.333 -7 -93zM784 600c0.666992 6 1 12 1 18c0 16 -3.33301 29.333 -10 40l-183 -358h50c66.667 0 104.667 33.333 114 100zM456 400c-1.33301 -8 -1.99902 -15.667 -1.99902 -23
c0 -15.333 2.66699 -28.333 8 -39l180 352h-45c-66.667 0 -104.334 -30 -113.001 -90z" />
    <glyph glyph-name="ugrave" unicode="&#xf9;" 
d="M841 1000l300 -0.000976562l-141 -1000h-280l-9 80c-40.667 -53.333 -111 -80 -211 -80c-234 0 -351 102.667 -351 308c0 28.667 2.33301 59.334 7 92.001l85 600h300l-85 -600c-1.33301 -8 -2 -15.667 -2 -23c0 -51.333 29.333 -77 88 -77c100 0 169 16.667 207 50z
M528 1100l-48 300h310l48 -300h-310z" />
    <glyph glyph-name="uacute" unicode="&#xfa;" 
d="M841 1000l300 -0.000976562l-141 -1000h-280l-9 80c-40.667 -53.333 -111 -80 -211 -80c-234 0 -351 102.667 -351 308c0 28.667 2.33301 59.334 7 92.001l85 600h300l-85 -600c-1.33301 -8 -2 -15.667 -2 -23c0 -51.333 29.333 -77 88 -77c100 0 169 16.667 207 50z
M572 1100l132 300h310l-132 -300h-310z" />
    <glyph glyph-name="ucircumflex" unicode="&#xfb;" 
d="M841 1000l300 -0.000976562l-141 -1000h-280l-9 80c-40.667 -53.333 -111 -80 -211 -80c-234 0 -351 102.667 -351 308c0 28.667 2.33301 59.334 7 92.001l85 600h300l-85 -600c-1.33301 -8 -2 -15.667 -2 -23c0 -51.333 29.333 -77 88 -77c100 0 169 16.667 207 50z
M607 1400h280l118 -300h-200l-72 200l-128 -200h-200z" />
    <glyph glyph-name="udieresis" unicode="&#xfc;" 
d="M841 1000l300 -0.000976562l-141 -1000h-280l-9 80c-40.667 -53.333 -111 -80 -211 -80c-234 0 -351 102.667 -351 308c0 28.667 2.33301 59.334 7 92.001l85 600h300l-85 -600c-1.33301 -8 -2 -15.667 -2 -23c0 -51.333 29.333 -77 88 -77c100 0 169 16.667 207 50z
M305 1100l42 300h300l-42 -300h-300zM805 1100l42 300h300l-42 -300h-300z" />
    <glyph glyph-name="yacute" unicode="&#xfd;" 
d="M841 1000l300 -0.000976562l-141 -1000c-37.333 -266.667 -189.333 -400 -456 -400h-400l42 300h300c133.333 0 204.666 33.333 213.999 100l11 80c-47.333 -53.333 -117.666 -80 -210.999 -80c-234 0 -351 102.667 -351 308c0 28.667 2.33301 59.334 7 92.001l85 600
h300l-85 -600c-1.33301 -8 -2 -15.667 -2 -23c0 -51.333 29.333 -77 88 -77c93.333 0 162.333 16.667 207 50zM572 1100l132 300h310l-132 -300h-310z" />
    <glyph glyph-name="thorn" unicode="&#xfe;" 
d="M344 -400l-300 -0.000976562l253 1800h300l-68 -480c41.333 53.333 112 80 212 80c233.333 0 350 -102 350 -306c0 -29.333 -2.33301 -60.666 -7 -93.999l-28 -200c-37.333 -266.667 -189.333 -400 -456 -400c-100 0 -163 26.667 -189 80zM698 699.999
c-100 0 -169 -16.667 -207 -50l-42 -300c28.667 -33.333 93 -50 193 -50c66.667 0 104.667 33.333 114 100l28 200c1.33301 8 2 15.667 2 23c0 51.333 -29.333 77 -88 77z" />
    <glyph glyph-name="ydieresis" unicode="&#xff;" 
d="M841 1000l300 -0.000976562l-141 -1000c-37.333 -266.667 -189.333 -400 -456 -400h-400l42 300h300c133.333 0 204.666 33.333 213.999 100l11 80c-47.333 -53.333 -117.666 -80 -210.999 -80c-234 0 -351 102.667 -351 308c0 28.667 2.33301 59.334 7 92.001l85 600
h300l-85 -600c-1.33301 -8 -2 -15.667 -2 -23c0 -51.333 29.333 -77 88 -77c93.333 0 162.333 16.667 207 50zM305 1100l42 300h300l-42 -300h-300zM805 1100l42 300h300l-42 -300h-300z" />
    <glyph glyph-name="dotlessi" unicode="&#x131;" horiz-adv-x="500" 
d="M541 1000l-141 -1000h-300l141 1000h300z" />
    <glyph glyph-name="OE" unicode="&#x152;" horiz-adv-x="1800" 
d="M1819 850l-42 -300.001h-550l-35 -250h550l-42 -300h-850l13 91c-50 -60.667 -121 -91 -213 -91h-150c-234 0 -351 102.667 -351 308c0 28.667 2.33301 59.334 7 92.001l85 600c37.333 266.667 189.333 400 456 400h150c92 0 154.333 -30.667 187 -92l13 92h850l-42 -300
h-550l-36 -250h550zM456 399.999c-1.33301 -8 -1.99902 -15.667 -1.99902 -23c0 -51.333 29.333 -77 88 -77h150c133.333 0 204.666 33.333 213.999 100l85 600c0.666992 4.66699 1 9 1 13c0 58 -62.333 87 -187 87h-150c-66.667 0 -104.667 -33.333 -114 -100z" />
    <glyph glyph-name="oe" unicode="&#x153;" horiz-adv-x="1700" 
d="M1053 380l-3.99902 -30.002c-1.33301 -8 -2 -15.667 -2 -23c0 -51.333 29.333 -77 88 -77h450l-35 -250h-450c-118.667 0 -195.334 46.667 -230.001 140c-62 -93.333 -152 -140 -270 -140h-100c-234 0 -351 102.667 -351 308c0 28.667 2.33301 59.334 7 92.001l28 200
c38 266.667 190.333 400 457 400h100c118 0 194.667 -46.667 230 -140c61.333 93.333 151.333 140 270 140h100c233.333 0 350 -102 350 -306c0 -29.333 -2.33301 -60.666 -7 -93.999l-31 -220h-600zM456.001 399.998c-1.33301 -8 -1.99902 -15.668 -1.99902 -23.001
c0 -51.333 29.333 -77 88 -77h100c66.667 0 104.667 33.333 114 100l28 200c0.666992 6.66699 1 13.334 1 20.001c0 46.667 -29.333 70 -88 70h-100c-66.667 0 -104.334 -30 -113.001 -90zM1084 599.997h300l7 50c1.33301 8 2 15.667 2 23c0 51.333 -29.333 77 -88 77h-100
c-66.667 0 -104.667 -33.333 -114 -100z" />
    <glyph glyph-name="Scaron" unicode="&#x160;" horiz-adv-x="1200" 
d="M100 0l42 300.002h600c66.667 0 104.667 33.333 114 100l7 50c1.33301 8 2 15.667 2 23c0 51.333 -29.333 77 -88 77h-200c-233.333 0 -350 102 -350 306c0 29.333 2.33301 60.666 7 93.999l7 50c37.333 266.667 189.333 400 456 400h600l-42 -300h-600
c-66.667 0 -104.667 -33.333 -114 -100l-7 -50c-1.33301 -8.66699 -2 -16.667 -2 -24c0 -50.667 29 -76 87 -76h200c234 0 351 -102.667 351 -308c0 -28.667 -2.33301 -59.334 -7 -92.001l-7 -50c-37.333 -266.667 -189.333 -400 -456 -400h-600zM553 1800h200l72 -200
l128 200h200l-202 -300h-280z" />
    <glyph glyph-name="scaron" unicode="&#x161;" horiz-adv-x="1050" 
d="M100 0l35 250h480c46.667 0 73 20 79 60c0.666992 5.33301 1 10.333 1 15c0 36.667 -20.667 55 -62 55h-180c-177.333 0 -266 71 -266 213c0 18 1.33301 37 4 57l12 80c25.333 180 138 270 338 270h500l-36 -250h-430c-46.667 0 -72.667 -20 -78 -60
c-0.666992 -3.33301 -1 -6.33301 -1 -9c0 -27.333 21.333 -41 64 -41h180c176 0 264 -75 264 -225c0 -20 -1.66699 -41.667 -5 -65l-11 -80c-25.333 -180 -138 -270 -338 -270h-550zM422 1400h200l72 -200l128 200h200l-202 -300h-280z" />
    <glyph glyph-name="Ydieresis" unicode="&#x178;" horiz-adv-x="1200" 
d="M507 1400l219 -500l361 500h310l-563 -800l-84 -600h-300l84 600l-337 800h310zM411 1500l42 300h300l-42 -300h-300zM911 1500l42 300h300l-42 -300h-300z" />
    <glyph glyph-name="Zcaron" unicode="&#x17d;" horiz-adv-x="1200" 
d="M1297 1400l-42 -300l-743 -800h630l-42 -300h-1000l42 300l743 800h-630l42 300h1000zM553 1800h200l72 -200l128 200h200l-202 -300h-280z" />
    <glyph glyph-name="zcaron" unicode="&#x17e;" horiz-adv-x="1000" 
d="M1041 1000l-43 -300l-476 -400h420l-42 -300h-800l42 300l476 400h-420l43 300h800zM397 1400h200l72 -200l128 200h200l-202 -300h-280z" />
    <glyph glyph-name="florin" unicode="&#x192;" horiz-adv-x="900" 
d="M691 1000h250.001l-43 -300h-250l-99 -710c-36.667 -260 -188.334 -390 -455.001 -390h-100l42 300h100c66.667 0 104.667 33.333 114 100l98 700h-150l43 300h150c37.333 266.667 189.333 400 456 400h150l-42 -300h-150c-66.667 0 -104.667 -33.333 -114 -100z" />
    <glyph glyph-name="circumflex" unicode="&#x2c6;" horiz-adv-x="800" 
d="M457 1400h280l118 -300h-200l-72 200l-128 -200h-200z" />
    <glyph glyph-name="caron" unicode="&#x2c7;" horiz-adv-x="800" 
d="M297 1400h200l72 -200l128 200h200l-202 -300h-280z" />
    <glyph glyph-name="breve" unicode="&#x2d8;" horiz-adv-x="800" 
d="M297 1400h180c-1.33301 -10 -2 -19.333 -2 -28c0 -61.333 35 -92 105 -92c80 0 125.667 40 137 120h180c-28 -200 -142 -300 -342 -300c-175.333 0 -263 77 -263 231c0 21.333 1.66699 44.333 5 69z" />
    <glyph glyph-name="dotaccent" unicode="&#x2d9;" horiz-adv-x="500" 
d="M255 1100l42 300h300l-42 -300h-300z" />
    <glyph glyph-name="ring" unicode="&#x2da;" horiz-adv-x="620" 
d="M703 1300c-8.66699 -58 -36.333 -107.5 -83 -148.5s-99 -61.5 -157 -61.5s-104.667 20.667 -140 62c-28.667 32.667 -43 71 -43 115c0 10.667 1 21.667 3 33c8 58 35.333 107.5 82 148.5s99 61.5 157 61.5s104.667 -20.333 140 -61c28.667 -34 43 -73.333 43 -118
c0 -10 -0.666992 -20.333 -2 -31zM505.001 1390c-24.667 0 -47 -8.83301 -67 -26.5s-31.667 -38.834 -35 -63.501c-0.666992 -4.66699 -1 -9 -1 -13c0 -19.333 6.33301 -36 19 -50c14.667 -18 34.334 -27 59.001 -27s47.167 8.83301 67.5 26.5s32.166 38.834 35.499 63.501
c0.666992 4.66699 1 9 1 13c0 19.333 -6.33301 36.333 -19 51c-15.333 17.333 -35.333 26 -60 26z" />
    <glyph glyph-name="ogonek" unicode="&#x2db;" horiz-adv-x="550" 
d="M286 -100c-38.667 -40 -59.999 -73.332 -63.999 -99.999c-0.666992 -4 -1 -8 -1 -12c0 -25.333 14.667 -38 44 -38c53.333 0 104.666 10 153.999 30l-18 -130c-49.333 -20 -100.666 -30 -153.999 -30c-120.667 0 -181 41 -181 123c0 8.66699 0.666992 17.667 2 27
c7.33301 53.333 46.666 96.666 117.999 129.999h100z" />
    <glyph glyph-name="tilde" unicode="&#x2dc;" horiz-adv-x="940" 
d="M255 1100c23.333 166.667 98.335 250 225.002 250c66.667 0 124.667 -13.333 174 -40s97.333 -40 144 -40s74 26.667 82 80h150c-23.333 -166.667 -98.333 -250 -225 -250c-66.667 0 -124.834 13.333 -174.501 40s-97.834 40 -144.501 40s-73.667 -26.667 -81 -80h-150z
" />
    <glyph glyph-name="hungarumlaut" unicode="&#x2dd;" horiz-adv-x="1000" 
d="M255 1100l132 300h310l-132 -300h-310zM655 1100l132 300h310l-132 -300h-310z" />
    <glyph glyph-name="endash" unicode="&#x2013;" horiz-adv-x="800" 
d="M819 850l-42 -300h-600l42 300h600z" />
    <glyph glyph-name="emdash" unicode="&#x2014;" horiz-adv-x="1000" 
d="M1019 850l-42 -300h-800l42 300h800z" />
    <glyph glyph-name="quoteleft" unicode="&#x2018;" horiz-adv-x="600" 
d="M597 1400l58 -300h-300l-58 300h300z" />
    <glyph glyph-name="quoteright" unicode="&#x2019;" horiz-adv-x="600" 
d="M697 1400l-142 -300h-300l142 300h300z" />
    <glyph glyph-name="quotesinglbase" unicode="&#x201a;" horiz-adv-x="600" 
d="M528 200l-142 -300h-300l142 300h300z" />
    <glyph glyph-name="quotedblleft" unicode="&#x201c;" horiz-adv-x="1000" 
d="M997 1400l58 -300h-300l-58 300h300zM597 1400l58 -300h-300l-58 300h300z" />
    <glyph glyph-name="quotedblright" unicode="&#x201d;" horiz-adv-x="1000" 
d="M697 1400l-142 -300h-300l142 300h300zM1097 1400l-142 -300h-300l142 300h300z" />
    <glyph glyph-name="quotedblbase" unicode="&#x201e;" horiz-adv-x="1000" 
d="M528 200l-142 -300h-300l142 300h300zM928 200l-142 -300h-300l142 300h300z" />
    <glyph glyph-name="dagger" unicode="&#x2020;" 
d="M1112 800h-300l-112 -800h-300l112 800h-300l43 300h300l42 300h300l-42 -300h300z" />
    <glyph glyph-name="daggerdbl" unicode="&#x2021;" 
d="M1042 300h-300l-42 -300h-300l42 300h-300l42 300h300l28 200h-300l43 300h300l42 300h300l-42 -300h300l-43 -300h-300l-28 -200h300z" />
    <glyph glyph-name="bullet" unicode="&#x2022;" horiz-adv-x="500" 
d="M526 900l-42 -300h-300l42 300h300z" />
    <glyph glyph-name="ellipsis" unicode="&#x2026;" horiz-adv-x="1500" 
d="M100 0l42 300h300l-42 -300h-300zM600 0l42 300h300l-42 -300h-300zM1100 0l42 300h300l-42 -300h-300z" />
    <glyph glyph-name="perthousand" unicode="&#x2030;" horiz-adv-x="2700" 
d="M484 600c-175.333 0 -263 77 -263 231c0 21.333 1.66699 44.333 5 69l29 200c28 200 142 300 342 300h100c175.333 0 263 -77 263 -231c0 -21.333 -1.66699 -44.333 -5 -69l-29 -200c-28 -200 -142 -300 -342 -300h-100zM504 920
c-0.666992 -6.66699 -1.00098 -12.667 -1.00098 -18c0 -41.333 23.333 -62 70 -62s73.667 26.667 81 80l23 160c0.666992 7.33301 1 14 1 20c0 40 -20 60 -60 60c-53.333 0 -83.666 -26.667 -90.999 -80zM499.999 0l787 1400h310l-787 -1400h-310zM1400 0
c-175.333 0 -263 77 -263 231c0 21.333 1.66699 44.333 5 69l28 200c28 200 142 300 342 300h100c175.333 0 263 -77 263 -231c0 -21.333 -1.66699 -44.333 -5 -69l-28 -200c-28 -200 -142 -300 -342 -300h-100zM1420 320c-0.666992 -6.66699 -1 -12.667 -1 -18
c0 -41.333 23.333 -62 70 -62s73.667 26.667 81 80l22 160c1.33301 8 2 15.333 2 22c0 38.667 -20 58 -60 58c-53.333 0 -84 -26.667 -92 -80zM2200 0c-175.333 0 -263 77 -263 231c0 21.333 1.66699 44.333 5 69l28 200c28 200 142 300 342 300h100
c175.333 0 263 -77 263 -231c0 -21.333 -1.66699 -44.333 -5 -69l-28 -200c-28 -200 -142 -300 -342 -300h-100zM2220 320c-0.666992 -6.66699 -1 -12.667 -1 -18c0 -41.333 23.333 -62 70 -62s73.667 26.667 81 80l22 160c1.33301 8 2 15.333 2 22c0 38.667 -20 58 -60 58
c-53.333 0 -84 -26.667 -92 -80z" />
    <glyph glyph-name="guilsinglleft" unicode="&#x2039;" horiz-adv-x="800" 
d="M191 650l344 450h320l-344 -450l217 -450h-320z" />
    <glyph glyph-name="guilsinglright" unicode="&#x203a;" horiz-adv-x="800" 
d="M448 200h-320l343 450l-216 450h320l216 -450z" />
    <glyph glyph-name="Euro" unicode="&#x20ac;" horiz-adv-x="1200" 
d="M659 775l-21 -150.001h390l-64 -200h-354l-4 -25c-1.33301 -8 -2 -15.667 -2 -23c0 -51.333 29.333 -77 88 -77h450l-42 -300h-450c-234 0 -351 102.667 -351 308c0 28.667 2.33301 59.334 7 92.001l4 25h-150l28 200h150l21 150h-150l28 200h150
c47.333 283.333 200.666 425 459.999 425h450l-42 -300h-450c-61.333 0 -100.666 -41.667 -117.999 -125h475l-63 -200h-440z" />
    <glyph glyph-name="trademark" unicode="&#x2122;" horiz-adv-x="1450" 
d="M1047 1400l101 -350l199 350h200l-85 -600h-150l50 350l-200 -350h-100l-100 350l-50 -350h-150l85 600h200zM747 1400l-21 -150h-150l-64 -450h-150l64 450h-150l21 150h450z" />
  </font>
</defs>
</svg>
