<?xml version="1.0" standalone="no"?>
<!DOCTYPE svg PUBLIC "-//W3C//DTD SVG 1.1//EN" "http://www.w3.org/Graphics/SVG/1.1/DTD/svg11.dtd" >
<svg>
<metadata>
Created by FontForge 20090914 at Thu Sep 24 10:26:49 2015
 By www-data
&#194;&#169; 2009, 2010, 2011, 2012 GrandChaos9000. Some Rights Reserved. (Under licensed of Creative Commons CC-BY-NC-SA 3.0)
</metadata>
<defs>
<font id="AeroMaticsDisplayItalic" horiz-adv-x="1100" >
  <font-face 
    font-family="Aero Matics Display"
    font-weight="400"
    font-style="italic"
    font-stretch="normal"
    units-per-em="2048"
    panose-1="2 11 6 3 6 1 1 1 1 1"
    ascent="1638"
    descent="-410"
    x-height="1005"
    cap-height="1400"
    bbox="-56 -430.001 2675 1910"
    underline-thickness="150"
    underline-position="-142"
    unicode-range="U+0020-U+2122"
  />
<missing-glyph horiz-adv-x="1000" 
d="M100 1400h800v-1400h-800v1400zM200 1300v-1200h600v1200h-600z" />
    <glyph glyph-name=".notdef" horiz-adv-x="1000" 
d="M100 1400h800v-1400h-800v1400zM200 1300v-1200h600v1200h-600z" />
    <glyph glyph-name="space" unicode=" " horiz-adv-x="400" 
 />
    <glyph glyph-name="exclam" unicode="!" horiz-adv-x="400" 
d="M156 400l141 1000h200l-141 -1000h-200zM100 0l28 200h200l-28 -200h-200z" />
    <glyph glyph-name="quotedbl" unicode="&#x22;" horiz-adv-x="800" 
d="M597 1400l-142 -300h-200l142 300h200zM897 1400l-142 -300h-200l142 300h200z" />
    <glyph glyph-name="numbersign" unicode="#" horiz-adv-x="1400" 
d="M612 1050l155 350h200l-155 -350h300l155 350h200l-155 -350h135l-28 -200h-195l-132 -300h185l-28 -200h-245l-154 -350h-200l154 350h-300l-154 -350h-200l154 350h-155l28 200h215l132 300h-205l28 200h265zM592 550h300l132 300h-300z" />
    <glyph glyph-name="dollar" unicode="$" 
d="M600 0l-28 -199.999h-100l28 200h-400l28 200h400l56 400h-50c-204 0 -306 89.333 -306 268c0 25.333 2 52.666 6 81.999l14 100c32.667 233.333 165.667 350 399 350h50l28 200h100l-28 -200h400l-28 -200h-400l-57 -400h50c204.667 0 307 -89.667 307 -269
c0 -25.333 -2 -52.333 -6 -81l-14 -100c-32.667 -233.333 -165.667 -350 -399 -350h-50zM434 950.001c-2 -12.667 -3 -24.667 -3 -36c0 -76 43.667 -114 131 -114h50l57 400h-50c-100 0 -157 -50 -171 -150zM684 600.001l-56 -400h50c100 0 157 50 171 150l14 100
c2 12 3 23.667 3 35c0 76.667 -44 115 -132 115h-50z" />
    <glyph glyph-name="percent" unicode="%" horiz-adv-x="1900" 
d="M534 600c-204.667 0 -307 89.667 -307 269c0 25.333 2 52.333 6 81l14 100c32.667 233.333 165.667 350 399 350c204.667 0 307 -89.667 307 -269c0 -25.333 -2 -52.333 -6 -81l-14 -100c-32.667 -233.333 -165.667 -350 -399 -350zM1849 350
c-32.667 -233.333 -165.667 -350 -399 -350c-204.667 0 -307 89.667 -307 269c0 25.333 2 52.333 6 81l14 100c32.667 233.333 165.667 350 399 350c204.667 0 307 -89.667 307 -269c0 -25.333 -2 -52.333 -6 -81zM433 950c-2 -12 -3 -23.667 -3 -35
c0 -76.667 44 -115 132 -115c100 0 157 50 171 150l14 100c2 12 3 23.667 3 35c0 76.667 -44 115 -132 115c-100 0 -157 -50 -171 -150zM1349 350c-2 -12 -3 -23.667 -3 -35c0 -76.667 44 -115 132 -115c100 0 157 50 171 150l14 100c2 12 3 23.667 3 35
c0 76.667 -44 115 -132 115c-100 0 -157 -50 -171 -150zM500 0l886 1400h210l-886 -1400h-210z" />
    <glyph glyph-name="ampersand" unicode="&#x26;" 
d="M450 0c-204.667 0 -307 89.666 -307 268.999c0 25.333 2 52.333 6 81l14 100c20.667 146.667 89 230 205 250c-92.667 16.667 -139 78.334 -139 185.001c0 20 1.66699 41.667 5 65l14 100c32.667 233.333 165.667 350 399 350h450l-28 -200h-450
c-100 0 -157 -50 -171 -150l-14 -100c-2 -12.667 -3 -24.667 -3 -36c0 -76 43.667 -114 131 -114h250l22 150h200l-22 -150h100l-28 -200h-100l-84 -600h-450zM349 349.999c-2 -12 -3 -23.667 -3 -35c0 -76.667 44 -115 132 -115h250l56 400h-250c-100 0 -157 -50 -171 -150
z" />
    <glyph glyph-name="quotesingle" unicode="'" horiz-adv-x="500" 
d="M597 1400l-142 -300h-200l142 300h200z" />
    <glyph glyph-name="parenleft" unicode="(" horiz-adv-x="700" 
d="M352 -200c-114 203.333 -171.001 426 -171.001 668c0 75.333 5.66699 152.666 17 231.999c47.333 333.333 183 633.333 407 900h220c-237.333 -266.667 -379.666 -566.667 -426.999 -900c-10.667 -74 -16 -146.667 -16 -218c0 -247.333 63.333 -474.666 190 -681.999
h-220z" />
    <glyph glyph-name="parenright" unicode=")" horiz-adv-x="700" 
d="M72 -200c237.333 266.667 379.333 566.668 426 900.001c10.667 75.333 16 148.666 16 219.999c0 246.667 -63 473.334 -189 680.001h220c113.333 -202.667 170 -424.334 170 -665.001c0 -76.667 -5.66699 -155 -17 -235c-46.667 -333.333 -182 -633.333 -406 -900h-220z
" />
    <glyph glyph-name="asterisk" unicode="*" horiz-adv-x="722" 
d="M278 936l142 179l-161 16l29 120l186 -20l25 179h120l-25 -179l192 20l-5 -120l-166 -16l93 -179l-116 -49l-83 165l-129 -165z" />
    <glyph glyph-name="plus" unicode="+" horiz-adv-x="1000" 
d="M512 800l42 300h200l-42 -300h300l-28 -200h-300l-42 -300h-200l42 300h-300l28 200h300z" />
    <glyph glyph-name="comma" unicode="," horiz-adv-x="500" 
d="M428 200l-142 -300h-200l142 300h200z" />
    <glyph glyph-name="hyphen" unicode="-" horiz-adv-x="800" 
d="M812 800l-28 -200h-600l28 200h600z" />
    <glyph glyph-name="period" unicode="." horiz-adv-x="400" 
d="M100 0l28 200h200l-28 -200h-200z" />
    <glyph glyph-name="slash" unicode="/" horiz-adv-x="820" 
d="M272 -200h-200l673 1800h200z" />
    <glyph glyph-name="zero" unicode="0" horiz-adv-x="1150" 
d="M1099 350c-32.667 -233.333 -165.667 -350 -399 -350h-250c-204.667 0 -307 89.667 -307 269c0 25.333 2 52.333 6 81l99 700c32.667 233.333 165.667 350 399 350h250c204.667 0 307 -89.667 307 -269c0 -25.333 -2 -52.333 -6 -81zM961 790l-605 -390l-7 -50
c-2 -12 -3 -23.667 -3 -35c0 -76.667 44 -115 132 -115h250c100 0 157 50 171 150zM386 610l605 390l7 50c2 12 3 23.667 3 35c0 76.667 -44 115 -132 115h-250c-100 0 -157 -50 -171 -150z" />
    <glyph glyph-name="one" unicode="1" horiz-adv-x="500" 
d="M369 1200h-100l28 200h300l-197 -1400h-200z" />
    <glyph glyph-name="two" unicode="2" 
d="M100 0l62.999 450c32.667 233.333 165.667 350 399 350h200c100 0 157.333 50 172 150l14 100c2 12 3 23.667 3 35c0 76.667 -44 115 -132 115h-550l28 200h550c204.667 0 307 -89.667 307 -269c0 -25.333 -2 -52.333 -6 -81l-14 -100
c-33.333 -233.333 -166.666 -350 -399.999 -350h-200c-100 0 -157 -50 -171 -150l-35 -250h700l-28 -200h-900z" />
    <glyph glyph-name="three" unicode="3" horiz-adv-x="1000" 
d="M212 800l450.001 -0.000976562c100 0 157.333 50 172 150l14 100c2 12 3 23.667 3 35c0 76.667 -44 115 -132 115h-450l28 200h450c204.667 0 307 -89.667 307 -269c0 -25.333 -2 -52.333 -6 -81l-14 -100c-20.667 -146.667 -89.334 -230 -206.001 -250
c93.333 -16.667 140 -78.667 140 -186c0 -19.333 -1.66699 -40.666 -5 -63.999l-14 -100c-32.667 -233.333 -165.667 -350 -399 -350h-450l28 200h450c100 0 157 50 171 150l14 100c2 12 3 23.667 3 35c0 76.667 -44 115 -132 115h-450z" />
    <glyph glyph-name="four" unicode="4" 
d="M586 1400h210l-388 -700h490l98 700h200l-196 -1400h-200l70 500h-700l28 200z" />
    <glyph glyph-name="five" unicode="5" horiz-adv-x="1050" 
d="M100 0l28 200h500c100 0 157 50 171 150l14 100c2 12 3 23.667 3 35c0 76.667 -44 115 -132 115h-500l113 800h850l-28 -200h-650l-57 -400h300c204.667 0 307 -89.667 307 -269c0 -25.333 -2 -52.333 -6 -81l-14 -100c-32.667 -233.333 -165.667 -350 -399 -350h-500z
" />
    <glyph glyph-name="six" unicode="6" 
d="M412 800h350c204.667 0 307 -89.667 307 -269c0 -25.333 -2 -52.333 -6 -81l-14 -100c-32.667 -233.333 -165.667 -350 -399 -350h-190c-211.333 -0 -317 90.333 -317 271c0 24.667 2 51 6 79l85 600c42 300 213 450 513 450h350l-28 -200h-350
c-166.667 0 -261.667 -83.333 -285 -250zM384 600l-35 -250c-1.33301 -11.333 -2 -22.333 -2 -33c0 -78 47 -117 141 -117h190c100 0 157 50 171 150l14 100c2 12 3 23.667 3 35c0 76.667 -44 115 -132 115h-350z" />
    <glyph glyph-name="seven" unicode="7" 
d="M1197 1400l-28 -200l-759 -1200h-210l759 1200h-690l28 200h900z" />
    <glyph glyph-name="eight" unicode="8" 
d="M248 1050c32.667 233.333 165.668 349.998 399.001 349.998h200c204.667 0 307 -89.667 307 -269c0 -25.333 -2 -52.333 -6 -81l-14 -100c-20.667 -146.667 -89.334 -230 -206.001 -250c93.333 -16.667 140 -78.667 140 -186c0 -19.333 -1.66699 -40.666 -5 -63.999
l-14 -100c-32.667 -233.333 -165.667 -350 -399 -350h-200c-204.667 0 -307 89.667 -307 269c0 25.333 2 52.333 6 81l14 100c20.667 146.667 89 230 205 250c-92.667 16.667 -139 78.334 -139 185.001c0 20 1.66699 41.667 5 65zM762.001 799.998c100 0 157.333 50 172 150
l14 100c2 12 3 23.667 3 35c0 76.667 -44 115 -132 115h-200c-100 0 -157 -50 -171 -150l-14 -100c-2 -12.667 -3 -24.667 -3 -36c0 -76 43.667 -114 131 -114h200zM534.001 599.998c-100 0 -157 -50 -171 -150l-14 -100c-2 -12 -3 -23.667 -3 -35
c0 -76.667 44 -115 132 -115h200c100 0 157 50 171 150l14 100c2 12 3 23.667 3 35c0 76.667 -44 115 -132 115h-200z" />
    <glyph glyph-name="nine" unicode="9" 
d="M884 600h-350c-204.667 0 -307 89.667 -307 269c0 25.333 2 52.333 6 81l14 100c32.667 233.333 165.667 350 399 350h190c211.333 0 317 -90.333 317 -271c0 -24.667 -2 -51 -6 -79l-84 -600c-42 -300 -213 -450 -513 -450h-350l28 200h350
c166.667 0 261.667 83.333 285 250zM912 800l35 250c1.33301 11.333 2 22.333 2 33c0 78 -47 117 -141 117h-190c-100 0 -157 -50 -171 -150l-14 -100c-2 -12 -3 -23.667 -3 -35c0 -76.667 44 -115 132 -115h350z" />
    <glyph glyph-name="colon" unicode=":" horiz-adv-x="400" 
d="M100 0l28 200h200l-28 -200h-200zM212 800l29 200h200l-29 -200h-200z" />
    <glyph glyph-name="semicolon" unicode=";" horiz-adv-x="400" 
d="M212 800l29 200h200l-29 -200h-200zM328 200l-142 -300h-200l142 300h200z" />
    <glyph glyph-name="less" unicode="&#x3c;" horiz-adv-x="900" 
d="M184 600l28 200l742 300l-28 -200l-528 -200l472 -200l-28 -200z" />
    <glyph glyph-name="equal" unicode="=" horiz-adv-x="800" 
d="M840 1000l-28 -200h-600l28 200h600zM784 600l-28 -200h-600l28 200h600z" />
    <glyph glyph-name="greater" unicode="&#x3e;" horiz-adv-x="900" 
d="M142 300l28 200l528 200l-472 200l28 200l658 -300l-28 -200z" />
    <glyph glyph-name="question" unicode="?" horiz-adv-x="1000" 
d="M357 400l56 400h250c100 0 157 50 171 150l14 100c2 12 3 23.667 3 35c0 76.667 -44 115 -132 115h-450l28 200h450c204.667 0 307 -89.667 307 -269c0 -25.333 -2 -52.333 -6 -81l-14 -100c-32.667 -233.333 -165.667 -350 -399 -350h-50l-28 -200h-200zM528 200
l-28 -200h-200l28 200h200z" />
    <glyph glyph-name="at" unicode="@" horiz-adv-x="1500" 
d="M1192 300c-134.667 0 -208.998 38.334 -222.998 115.001c-51.333 -76.667 -127 -115 -227 -115c-175.333 0 -263 77 -263 231c0 21.333 1.66699 44.333 5 69l28 200c28.667 200 143 300 343 300c100 0 162 -33.333 186 -100l14 100h200l-71 -500
c-2 -14.667 -3 -27.667 -3 -39c0 -40.667 13 -61 39 -61c33.333 0 54.666 33.333 63.999 100l42 300c3.33301 25.333 5 48.666 5 69.999c0 153.333 -87.333 230 -262 230h-300c-200 0 -314.333 -100 -343 -300l-56 -400c-3.33301 -24.667 -5 -47.667 -5 -69
c0 -154 87.667 -231 263 -231h600l-28 -200h-600c-292.667 -0 -439 128.333 -439 385c0 36 3 74.333 9 115l56 400c47.333 333.333 237.666 500 570.999 500h300c292 0 438 -127.667 438 -383c0 -36.667 -3 -75.667 -9 -117l-42 -300c-28 -200 -125.333 -300 -292 -300z
M770.002 500.001c100 0 171.333 33.333 214 100l28 200c-24 66.667 -86 100 -186 100c-66.667 0 -104.667 -33.333 -114 -100l-28 -200c-1.33301 -8 -2 -15.667 -2 -23c0 -51.333 29.333 -77 88 -77z" />
    <glyph glyph-name="A" unicode="A" 
d="M1100 0h-200l-51 300h-514l-135 -300h-200l617 1400h260zM424 500h392l-97 700z" />
    <glyph glyph-name="B" unicode="B" 
d="M847 1400c204.667 0 307.001 -89.668 307.001 -269.001c0 -25.333 -2 -52.333 -6 -81l-14 -100c-20.667 -146.667 -89.334 -230 -206.001 -250c93.333 -16.667 140 -78.667 140 -186c0 -19.333 -1.66699 -40.666 -5 -63.999l-14 -100
c-32.667 -233.333 -165.667 -350 -399 -350h-550l197 1400h550zM469.001 1200l-57 -400h350c100 0 157.333 50 172 150l14 100c2 12 3 23.667 3 35c0 76.667 -44 115 -132 115h-350zM384.001 599.999l-56 -400h350c100 0 157 50 171 150l14 100c2 12 3 23.667 3 35
c0 76.667 -44 115 -132 115h-350z" />
    <glyph glyph-name="C" unicode="C" horiz-adv-x="1000" 
d="M349 350c-2 -12 -3 -23.667 -3 -35c0 -76.667 44 -115 132 -115h450l-28 -200h-450c-204.667 0 -307 89.667 -307 269c0 25.333 2 52.333 6 81l99 700c32.667 233.333 165.667 350 399 350h450l-28 -200h-450c-100 0 -157 -50 -171 -150z" />
    <glyph glyph-name="D" unicode="D" 
d="M847 1400c204.667 0 307 -89.667 307 -269c0 -25.333 -2 -52.333 -6 -81l-99 -700c-32.667 -233.333 -165.667 -350 -399 -350h-550l197 1400h550zM948 1050c2 12 3 23.667 3 35c0 76.667 -44 115 -132 115h-350l-141 -1000h350c100 0 157 50 171 150z" />
    <glyph glyph-name="E" unicode="E" horiz-adv-x="1000" 
d="M1012 800l-28 -200h-600l-56 -400h600l-28 -200h-800l197 1400h800l-28 -200h-600l-57 -400h600z" />
    <glyph glyph-name="F" unicode="F" horiz-adv-x="1000" 
d="M1012 800l-28 -200h-600l-84 -600h-200l197 1400h800l-28 -200h-600l-57 -400h600z" />
    <glyph glyph-name="G" unicode="G" 
d="M349 350c-2 -12 -3 -23.667 -3 -35c0 -76.667 44 -115 132 -115h200c100 0 157 50 171 150l35 250h-300l28 200h500l-63 -450c-32.667 -233.333 -165.667 -350 -399 -350h-200c-204.667 0 -307 89.667 -307 269c0 25.333 2 52.333 6 81l99 700
c32.667 233.333 165.667 350 399 350h550l-28 -200h-550c-100 0 -157 -50 -171 -150z" />
    <glyph glyph-name="H" unicode="H" 
d="M497 1400l-85 -600h500l85 600h200l-197 -1400h-200l84 600h-500l-84 -600h-200l197 1400h200z" />
    <glyph glyph-name="I" unicode="I" horiz-adv-x="400" 
d="M497 1400l-197 -1400h-200l197 1400h200z" />
    <glyph glyph-name="J" unicode="J" horiz-adv-x="700" 
d="M597 1400h200l-141 -1000c-37.333 -266.667 -189.333 -400 -456 -400h-100l28 200h100c133.333 0 209.333 66.667 228 200z" />
    <glyph glyph-name="K" unicode="K" horiz-adv-x="1150" 
d="M100 0l197 1400h200l-96 -680l646 680h250l-649 -700l452 -700h-250l-454 680l-96 -680h-200z" />
    <glyph glyph-name="L" unicode="L" horiz-adv-x="1000" 
d="M328 200h600l-28 -200h-800l197 1400h200z" />
    <glyph glyph-name="M" unicode="M" horiz-adv-x="1500" 
d="M297 1400h270l232 -1050l528 1050h270l-197 -1400h-200l148 1050l-518 -1050h-160l-222 1050l-148 -1050h-200z" />
    <glyph glyph-name="N" unicode="N" horiz-adv-x="1200" 
d="M497 1400l459 -1000l141 1000h200l-197 -1400h-200l-459 1000l-141 -1000h-200l197 1400h200z" />
    <glyph glyph-name="O" unicode="O" horiz-adv-x="1150" 
d="M1099 350c-32.667 -233.333 -165.667 -350 -399 -350h-250c-204.667 0 -307 89.667 -307 269c0 25.333 2 52.333 6 81l99 700c32.667 233.333 165.667 350 399 350h250c204.667 0 307 -89.667 307 -269c0 -25.333 -2 -52.333 -6 -81zM349 350c-2 -12 -3 -23.667 -3 -35
c0 -76.667 44 -115 132 -115h250c100 0 157 50 171 150l99 700c2 12 3 23.667 3 35c0 76.667 -44 115 -132 115h-250c-100 0 -157 -50 -171 -150z" />
    <glyph glyph-name="P" unicode="P" 
d="M384 600l-84.001 -600h-200l197 1400h550c204.667 0 307 -89.667 307 -269c0 -25.333 -2 -52.333 -6 -81l-14 -100c-33.333 -233.333 -166.666 -350 -399.999 -350h-350zM468.999 1200l-57 -400h350c100 0 157.333 50 172 150l14 100c2 12 3 23.667 3 35
c0 76.667 -44 115 -132 115h-350z" />
    <glyph glyph-name="Q" unicode="Q" horiz-adv-x="1150" 
d="M650 0h-200c-204.667 0 -307 89.667 -307 269c0 25.333 2 52.333 6 81l99 700c32.667 233.333 165.667 350 399 350h250c204.667 0 307 -89.667 307 -269c0 -25.333 -2 -52.333 -6 -81l-99 -700c-27.333 -193.333 -120.333 -310 -279 -350l52 -200h-170zM706 400l52 -200
c80 0 127 50 141 150l99 700c2 12 3 23.667 3 35c0 76.667 -44 115 -132 115h-250c-100 0 -157 -50 -171 -150l-99 -700c-2 -12 -3 -23.667 -3 -35c0 -76.667 44 -115 132 -115h110l-52 200h170z" />
    <glyph glyph-name="R" unicode="R" 
d="M652 600h-268l-84 -600h-200l197 1400h550c204.667 0 307 -89.667 307 -269c0 -25.333 -2 -52.333 -6 -81l-14 -100c-30 -210 -124.333 -325.333 -283 -346l149 -604h-200zM469 1200l-57 -400h350c100 0 157.333 50 172 150l14 100c2 12 3 23.667 3 35
c0 76.667 -44 115 -132 115h-350z" />
    <glyph glyph-name="S" unicode="S" 
d="M100 0l28 200.001h550c100 0 157 50 171 150l14 100c2 12 3 23.667 3 35c0 76.667 -44 115 -132 115h-200c-204 0 -306 89.333 -306 268c0 25.333 2 52.666 6 81.999l14 100c32.667 233.333 165.667 350 399 350h550l-28 -200h-550c-100 0 -157 -50 -171 -150l-14 -100
c-2 -12.667 -3 -24.667 -3 -36c0 -76 43.667 -114 131 -114h200c204.667 0 307 -89.667 307 -269c0 -25.333 -2 -52.333 -6 -81l-14 -100c-32.667 -233.333 -165.667 -350 -399 -350h-550z" />
    <glyph glyph-name="T" unicode="T" 
d="M1197 1400l-28 -200h-350l-169 -1200h-200l169 1200h-350l28 200h900z" />
    <glyph glyph-name="U" unicode="U" horiz-adv-x="1150" 
d="M1247 1400l-148 -1050c-32.667 -233.333 -165.667 -350 -399 -350h-250c-204.667 0 -307 89.667 -307 269c0 25.333 2 52.333 6 81l148 1050h200l-148 -1050c-2 -12 -3 -23.667 -3 -35c0 -76.667 44 -115 132 -115h250c100 0 157 50 171 150l148 1050h200z" />
    <glyph glyph-name="V" unicode="V" 
d="M1097 1400h200l-617 -1400h-260l-223 1400h200l181 -1200z" />
    <glyph glyph-name="W" unicode="W" horiz-adv-x="1500" 
d="M1230 0h-260l-68 1081l-372 -1081h-260l-73 1400h200l45 -1100l405 1100h200l95 -1100l355 1100h200z" />
    <glyph glyph-name="X" unicode="X" horiz-adv-x="1200" 
d="M100 0l433 700l-236 700h230l186 -596l354 596h230l-434 -700l237 -700h-230l-186 595l-354 -595h-230z" />
    <glyph glyph-name="Y" unicode="Y" horiz-adv-x="1000" 
d="M417 1400l196 -600l364 600h220l-512 -800l-85 -600h-200l85 600l-288 800h220z" />
    <glyph glyph-name="Z" unicode="Z" 
d="M1197 1400l-28 -200l-811 -1000h670l-28 -200h-900l28 200l811 1000h-670l28 200h900z" />
    <glyph glyph-name="bracketleft" unicode="[" horiz-adv-x="600" 
d="M697 1400h-200l-197 -1400h200l-28 -200h-400l253 1800h400z" />
    <glyph glyph-name="backslash" unicode="\" horiz-adv-x="820" 
d="M325 1600h200l167 -1800h-200z" />
    <glyph glyph-name="bracketright" unicode="]" horiz-adv-x="600" 
d="M325 1600h400l-253 -1800h-400l28 200h200l197 1400h-200z" />
    <glyph glyph-name="asciicircum" unicode="^" horiz-adv-x="1000" 
d="M596 1400h200l202 -700h-200l-130 500l-270 -500h-200z" />
    <glyph glyph-name="underscore" unicode="_" horiz-adv-x="800" 
d="M772 -200l-28 -200h-800l28 200h800z" />
    <glyph glyph-name="grave" unicode="`" horiz-adv-x="500" 
d="M395 1100l-98 300h210l48 -300h-160z" />
    <glyph glyph-name="a" unicode="a" horiz-adv-x="880" 
d="M879 -8h-192l-41 209h-356l-99 -209h-192l470 1013h224zM374 380h240l-65 397z" />
    <glyph glyph-name="b" unicode="b" horiz-adv-x="865" 
d="M649 1005c166 0 249 -68.333 249 -205c0 -18 -1.33301 -37.333 -4 -58l-9 -70c-13.333 -93.333 -63 -151 -149 -173c68.667 -19.333 103 -65 103 -137c0 -12 -1 -24.333 -3 -37l-10 -70c-24.667 -175.333 -131 -263 -319 -263h-433l142 1013h433zM381 826l-33 -238h243
c61.333 0 96 28 104 84l9 70c0.666992 6.66699 1 12.667 1 18c0 44 -27 66 -81 66h-243zM323 409l-34 -238h243c61.333 0 96 28 104 84l10 70c0.666992 6.66699 1 12.667 1 18c0 44 -27 66 -81 66h-243z" />
    <glyph glyph-name="c" unicode="c" horiz-adv-x="790" 
d="M301 255c-0.666992 -6.66699 -1.00098 -12.667 -1.00098 -18c0 -44 27.333 -66 82 -66h357l-25 -179h-357c-166.667 0 -250 68.667 -250 206c0 18 1.33301 37 4 57l68 487c24.667 175.333 131.334 263 320.001 263h357l-25 -179h-357c-62 0 -97 -28 -105 -84z" />
    <glyph glyph-name="d" unicode="d" horiz-adv-x="865" 
d="M649 1005c166 0 249 -68.333 249 -205c0 -18 -1.33301 -37.333 -4 -58l-68 -487c-24.667 -175.333 -131 -263 -319 -263h-433l142 1013h433zM704 742c0.666992 6.66699 1 12.667 1 18c0 44 -27 66 -81 66h-243l-92 -655h243c61.333 0 96 28 104 84z" />
    <glyph glyph-name="e" unicode="e" horiz-adv-x="790" 
d="M798 588l-25 -179h-450l-34 -238h450l-25 -179h-640l142 1013h640l-25 -179h-450l-33 -238h450z" />
    <glyph glyph-name="f" unicode="f" horiz-adv-x="790" 
d="M798 588l-25 -179h-450l-59 -417h-190l142 1013h640l-25 -179h-450l-33 -238h450z" />
    <glyph glyph-name="g" unicode="g" horiz-adv-x="865" 
d="M301 255c-0.666992 -6.66699 -1.00098 -12.667 -1.00098 -18c0 -44 27.333 -66 82 -66h150c61.333 0 96 28 104 84l22 154h-225l25 179h415l-47 -333c-24.667 -175.333 -131 -263 -319 -263h-150c-166.667 0 -250 68.667 -250 206c0 18 1.33301 37 4 57l68 487
c24.667 175.333 131.334 263 320.001 263h432l-25 -179h-432c-62 0 -97 -28 -105 -84z" />
    <glyph glyph-name="h" unicode="h" horiz-adv-x="865" 
d="M406 1005l-58 -417h335l58 417h190l-142 -1013h-190l59 417h-335l-59 -417h-190l142 1013h190z" />
    <glyph glyph-name="i" unicode="i" horiz-adv-x="340" 
d="M406 1005l-142 -1013h-190l142 1013h190z" />
    <glyph glyph-name="j" unicode="j" horiz-adv-x="565" 
d="M441 1005h190l-100 -715c-28 -198.667 -148.667 -298 -362 -298h-95l25 179h95c86.667 0 135.667 39.667 147 119z" />
    <glyph glyph-name="k" unicode="k" horiz-adv-x="926" 
d="M74 -8l142 1013h190l-61 -439l444 439h240l-500 -506l358 -507h-240l-321 439l-62 -439h-190z" />
    <glyph glyph-name="l" unicode="l" horiz-adv-x="790" 
d="M289 171h450l-25 -179h-640l142 1013h190z" />
    <glyph glyph-name="m" unicode="m" horiz-adv-x="1165" 
d="M216 1005h236l175 -695l368 695h236l-142 -1013h-190l90 641l-334 -641h-147l-154 641l-90 -641h-190z" />
    <glyph glyph-name="n" unicode="n" horiz-adv-x="940" 
d="M397 1005l328 -647l91 647h190l-142 -1013h-181l-328 647l-91 -647h-190l142 1013h181z" />
    <glyph glyph-name="o" unicode="o" horiz-adv-x="903" 
d="M864 255c-24.667 -175.333 -131.334 -263 -320.001 -263h-187c-166.667 0 -250 68.667 -250 206c0 18 1.33301 37 4 57l68 487c24.667 175.333 131.334 263 320.001 263h187c166.667 0 250 -68.667 250 -206c0 -18 -1.33301 -37 -4 -57zM301 255
c-0.666992 -6.66699 -1 -12.667 -1 -18c0 -44 27.333 -66 82 -66h187c62 0 97 28 105 84l68 487c0.666992 6.66699 1 12.667 1 18c0 44 -27.333 66 -82 66h-187c-62 0 -97 -28 -105 -84z" />
    <glyph glyph-name="p" unicode="p" horiz-adv-x="865" 
d="M323 409l-59 -417h-190l142 1013h433c166 0 249 -68.333 249 -205c0 -18 -1.33301 -37.333 -4 -58l-9 -70c-24.667 -175.333 -131 -263 -319 -263h-243zM381 826l-33 -238h243c61.333 0 96 28 104 84l9 70c0.666992 6.66699 1 12.667 1 18c0 44 -27 66 -81 66h-243z" />
    <glyph glyph-name="q" unicode="q" horiz-adv-x="903" 
d="M493 -8l-136.001 0.000976562c-166.667 0 -250 68.667 -250 206c0 18 1.33301 37 4 57l68 487c24.667 175.333 131.334 263 320.001 263h187c166.667 0 250 -68.667 250 -206c0 -18 -1.33301 -37 -4 -57l-68 -487c-20.667 -144.667 -87.667 -230.334 -201 -257.001
l41 -145h-171zM564.999 310.001l40 -139c38 0 61 28 69 84l68 487c0.666992 6.66699 1 12.667 1 18c0 44 -27.333 66 -82 66h-187c-62 0 -97 -28 -105 -84l-68 -487c-0.666992 -6.66699 -1 -12.667 -1 -18c0 -44 27.333 -66 82 -66h52l-40 139h171z" />
    <glyph glyph-name="r" unicode="r" horiz-adv-x="875" 
d="M491 409h-168l-59 -417h-190l142 1013h433c166 0 249 -68.333 249 -205c0 -18 -1.33301 -37.333 -4 -58l-9 -70c-22.667 -157.333 -90.667 -243 -204 -257l118 -423h-193zM381 826l-33 -238h243c61.333 0 96 28 104 84l9 70c0.666992 6.66699 1 12.667 1 18
c0 44 -27 66 -81 66h-243z" />
    <glyph glyph-name="s" unicode="s" horiz-adv-x="865" 
d="M74 -8l24.999 179h433c61.333 0 96 28 104 84l10 70c0.666992 6.66699 1 12.667 1 18c0 44 -27 66 -81 66h-150c-166.667 0 -250 68.667 -250 206c0 18 1.33301 37 4 57l9 70c24.667 175.333 131.334 263 320.001 263h432l-25 -179h-432c-62 0 -97 -28 -105 -84l-9 -70
c-0.666992 -6.66699 -1 -12.667 -1 -18c0 -44 27.333 -66 82 -66h150c166 0 249 -68.333 249 -205c0 -18 -1.33301 -37.333 -4 -58l-10 -70c-24.667 -175.333 -131 -263 -319 -263h-433z" />
    <glyph glyph-name="t" unicode="t" horiz-adv-x="865" 
d="M931 1005l-25 -179h-262l-117 -834h-190l117 834h-263l25 179h715z" />
    <glyph glyph-name="u" unicode="u" horiz-adv-x="903" 
d="M969 1005l-104.999 -750c-24.667 -175.333 -131.334 -263 -320.001 -263h-187c-166.667 0 -250 68.667 -250 206c0 18 1.33301 37 4 57l105 750h190l-105 -750c-0.666992 -6.66699 -1 -12.667 -1 -18c0 -44 27.333 -66 82 -66h187c62 0 97 28 105 84l105 750h190z" />
    <glyph glyph-name="v" unicode="v" horiz-adv-x="880" 
d="M829 1005h192l-470 -1013h-224l-186 1013h192l137 -787z" />
    <glyph glyph-name="w" unicode="w" horiz-adv-x="1174" 
d="M962 -8h-227l-54 678l-244 -678h-227l-69 1013h191l39 -692l266 692h182l72 -692l233 692h191z" />
    <glyph glyph-name="x" unicode="x" horiz-adv-x="966" 
d="M74 -8l333 507l-191 506h218l136 -389l244 389h218l-333 -506l191 -507h-218l-135 388l-245 -388h-218z" />
    <glyph glyph-name="y" unicode="y" horiz-adv-x="817" 
d="M352 1005l143 -393l252 393h211l-395 -581l-60 -432h-190l60 432l-232 581h211z" />
    <glyph glyph-name="z" unicode="z" horiz-adv-x="865" 
d="M931 1005l-23 -165l-577 -669h483l-25 -179h-715l23 165l577 669h-483l25 179h715z" />
    <glyph glyph-name="braceleft" unicode="{" horiz-adv-x="800" 
d="M212 800c133.333 0 207 49.998 221 149.998l35 250c38 266.667 190.333 400 457 400l-29 -200c-133.333 0 -209.333 -66.667 -228 -200l-35 -250c-20.667 -146.667 -99 -230 -235 -250c112.667 -17.333 169 -81.666 169 -192.999c0 -18 -1.33301 -37 -4 -57l-35 -250
c-2 -16.667 -3 -32 -3 -46c0 -102.667 58.333 -154 175 -154l-28 -200c-234 0 -351 102.667 -351 308c0 28.667 2.33301 59.334 7 92.001l35 250c1.33301 9.33301 2 18.333 2 27c0 82 -60.333 123 -181 123z" />
    <glyph glyph-name="bar" unicode="|" horiz-adv-x="400" 
d="M525 1600l-253 -1800h-200l253 1800h200z" />
    <glyph glyph-name="braceright" unicode="}" horiz-adv-x="800" 
d="M784 600c-133.333 0 -207 -49.998 -221 -149.998l-35 -250c-37.333 -266.667 -189.333 -400 -456 -400l28 200c133.333 0 209.333 66.667 228 200l35 250c20.667 146.667 99 230 235 250c-112 17.333 -168 81.666 -168 192.999c0 18 1.33301 37 4 57l35 250
c2 16.667 3 32 3 46c0 102.667 -58.333 154 -175 154l28 200c234 0 351 -102.667 351 -308c0 -28.667 -2.33301 -59.334 -7 -92.001l-35 -250c-1.33301 -9.33301 -2 -18.333 -2 -27c0 -82 60.333 -123 181 -123z" />
    <glyph glyph-name="asciitilde" unicode="~" 
d="M170 500c28 200 125.333 300 292 300c86.667 0 156.5 -25 209.5 -75s112.833 -75 179.5 -75c60 0 97 50 111 150h150c-28 -200 -125.333 -300 -292 -300c-86.667 0 -156.667 23.333 -210 70s-113.333 70 -180 70c-60 0 -96.667 -46.667 -110 -140h-150z" />
    <glyph glyph-name="uni00A0" unicode="&#xa0;" horiz-adv-x="400" 
 />
    <glyph glyph-name="exclamdown" unicode="&#xa1;" horiz-adv-x="400" 
d="M399 700l-141 -1000h-200l141 1000h200zM455 1100l-28 -200h-200l28 200h200z" />
    <glyph glyph-name="cent" unicode="&#xa2;" horiz-adv-x="900" 
d="M797 1400l-27.999 -200h250l-29 -200h-250l-84 -600h250l-28 -200h-250l-28 -200h-100l28 200h-50c-204.667 0 -307 89.667 -307 269c0 25.333 2 52.333 6 81l42 300c33.333 233.333 166.666 350 399.999 350h50l28 200h100zM377.001 550c-2 -12 -3 -23.667 -3 -35
c0 -76.667 44 -115 132 -115h50l84 600h-50c-100 0 -157 -50 -171 -150z" />
    <glyph glyph-name="sterling" unicode="&#xa3;" 
d="M562 800h550l-28 -200h-550l-56 -400h550l-28 -200h-900l28 200h150l56 400h-150l28 200h150l22 150c42 300 213 450 513 450h300l-28 -200h-300c-166.667 0 -261.667 -83.333 -285 -250z" />
    <glyph glyph-name="yen" unicode="&#xa5;" horiz-adv-x="1000" 
d="M407 1400l205 -600l375 600h210l-513 -800h300l-21 -150h-300l-21 -150h300l-21 -150h-300l-21 -150h-200l21 150h-300l21 150h300l21 150h-300l21 150h300l-287 800h210z" />
    <glyph glyph-name="brokenbar" unicode="&#xa6;" horiz-adv-x="400" 
d="M525 1600l-112 -800h-200l112 800h200zM384 600l-112 -800h-200l112 800h200z" />
    <glyph glyph-name="dieresis" unicode="&#xa8;" horiz-adv-x="800" 
d="M255 1100l28 200h200l-28 -200h-200zM655 1100l28 200h200l-28 -200h-200z" />
    <glyph glyph-name="copyright" unicode="&#xa9;" horiz-adv-x="1395" 
d="M1393 698c-23.333 -165.333 -101.501 -306.335 -234.501 -423.002s-281.833 -175 -446.5 -175c-165.333 0 -298 58.333 -398 175c-82 94.667 -123 205.334 -123 332.001c0 29.333 2.33301 59.666 7 90.999c23.333 164.667 101.5 305.334 234.5 422.001
s282.167 175 447.5 175c164.667 0 297.334 -58.333 398.001 -175c81.333 -94.667 122 -205 122 -331c0 -29.333 -2.33301 -59.666 -7 -90.999zM859.999 1155c-126 0 -240 -44.667 -342 -134s-161.667 -197 -179 -323c-3.33301 -24 -5 -47.333 -5 -70
c0 -96 31.333 -180.333 94 -253c76.667 -89.333 178 -134 304 -134s239.833 44.667 341.5 134s161.5 197 179.5 323c3.33301 23.333 5 46 5 68c0 97.333 -31.333 182.333 -94 255c-76.667 89.333 -178 134 -304 134zM967.999 766.998c-5.33301 20 -15.666 38.333 -30.999 55
c-28.667 34.667 -67.334 52 -116.001 52s-92.667 -17.167 -132 -51.5s-62.333 -75.833 -69 -124.5c-1.33301 -9.33301 -2 -18 -2 -26c0 -38 12 -70.667 36 -98c29.333 -34.667 68.333 -52 117 -52s92.334 17 131.001 51c21.333 18.667 37.666 39 48.999 61h146
c-20.667 -60.667 -57.334 -114 -110.001 -160c-70 -62 -148.667 -93 -236 -93s-157.666 31 -210.999 93c-43.333 50 -65 108.333 -65 175c0 16 1.33301 32.333 4 49c12 87.333 53.333 161.833 124 223.5s149.667 92.5 237 92.5s157.333 -31 210 -93
c39.333 -44.667 61 -96 65 -154h-147z" />
    <glyph glyph-name="guillemotleft" unicode="&#xab;" horiz-adv-x="1048" 
d="M541 650l343 450h220l-343 -450l217 -450h-220zM191 650l343 450h220l-343 -450l217 -450h-220z" />
    <glyph glyph-name="logicalnot" unicode="&#xac;" horiz-adv-x="1000" 
d="M1012 800l-70 -500h-200l42 300h-600l28 200h800z" />
    <glyph glyph-name="registered" unicode="&#xae;" horiz-adv-x="1395" 
d="M1393 693c-23.333 -165.333 -101.501 -306.335 -234.501 -423.002s-281.833 -175 -446.5 -175c-165.333 0 -298 58.333 -398 175c-82 94.667 -123 205.334 -123 332.001c0 29.333 2.33301 59.666 7 90.999c23.333 164.667 101.5 305.334 234.5 422.001
s282.167 175 447.5 175c164.667 0 297.334 -58.333 398.001 -175c81.333 -94.667 122 -205 122 -331c0 -29.333 -2.33301 -59.666 -7 -90.999zM859.999 1150c-126 0 -240 -44.667 -342 -134s-161.667 -197 -179 -323c-3.33301 -24 -5 -47.333 -5 -70
c0 -96 31.333 -180.333 94 -253c76.667 -89.333 178 -134 304 -134s239.833 44.667 341.5 134s161.5 197 179.5 323c3.33301 23.333 5 46 5 68c0 97.333 -31.333 182.333 -94 255c-76.667 89.333 -178 134 -304 134zM889.999 1009c124 0 186 -54.332 186 -162.999
c0 -15.333 -1.33301 -31.333 -4 -48c-13.333 -90.667 -54 -152.334 -122 -185.001l62 -237h-152l-52 211h-138l-30 -211h-141l89 633h302zM850.999 727.999c46.667 0 73.333 23.333 80 70c0.666992 6 1 11.667 1 17c0 36 -20.333 54 -61 54h-161l-20 -141h161z" />
    <glyph glyph-name="degree" unicode="&#xb0;" horiz-adv-x="620" 
d="M688 1200c-8 -58 -35.333 -107.499 -82 -148.499s-99 -61.5 -157 -61.5s-104.667 20.667 -140 62c-28.667 33.333 -43 72.333 -43 117c0 10 0.666992 20.333 2 31c8 58 35.5 107.5 82.5 148.5s99.5 61.5 157.5 61.5s104.667 -20.333 140 -61c28 -34 42 -73 42 -117
c0 -10.667 -0.666992 -21.334 -2 -32.001zM491 1290c-24.667 0 -47.168 -8.83301 -67.501 -26.5s-32.166 -38.834 -35.499 -63.501c-0.666992 -4.66699 -1 -9 -1 -13c0 -19.333 6.33301 -36 19 -50c15.333 -18 35.333 -27 60 -27s47 8.83301 67 26.5
s31.667 38.834 35 63.501c0.666992 4.66699 1 9 1 13c0 19.333 -6 36.333 -18 51c-15.333 17.333 -35.333 26 -60 26z" />
    <glyph glyph-name="plusminus" unicode="&#xb1;" horiz-adv-x="1000" 
d="M512 800l43 300h200l-43 -300h300l-28 -200h-300l-42 -300h-200l42 300h-300l28 200h300zM928 200l-28 -200h-800l28 200h800z" />
    <glyph glyph-name="acute" unicode="&#xb4;" horiz-adv-x="500" 
d="M255 1100l132 300h210l-182 -300h-160z" />
    <glyph glyph-name="mu" unicode="&#xb5;" horiz-adv-x="1165" 
d="M216 1005h236l175 -695l368 695h236l-142 -1013h-190l90 641l-334 -641h-147l-154 641l-90 -641h-190z" />
    <glyph glyph-name="paragraph" unicode="&#xb6;" horiz-adv-x="1200" 
d="M1296 1400l-253 -1800h-200l225 1600h-200l-225 -1600h-200l141 1000c-234 0 -351 102.667 -351 308c0 28.667 2.33301 59.334 7 92.001c37.333 266.667 189.333 400 456 400h600z" />
    <glyph glyph-name="periodcentered" unicode="&#xb7;" horiz-adv-x="400" 
d="M184 600l28 200h200l-28 -200h-200z" />
    <glyph glyph-name="cedilla" unicode="&#xb8;" horiz-adv-x="600" 
d="M186 -100c11.333 0.666992 22.001 0.998047 32.001 0.998047c167.333 0 251 -38.333 251 -115c0 -5.33301 -0.333008 -10.666 -1 -15.999c-18.667 -133.333 -101.334 -200 -248.001 -200c-66.667 0 -125.334 10 -176.001 30l18 130c50.667 -20 109.334 -30 176.001 -30
c60 0 93.333 23.333 100 70c0.666992 2.66699 1 5.33398 1 8.00098c0 41.333 -53.667 62 -161 62z" />
    <glyph glyph-name="guillemotright" unicode="&#xbb;" horiz-adv-x="1048" 
d="M348 200h-220l343 450l-217 450h220l217 -450zM698 200h-220l343 450l-217 450h220l217 -450z" />
    <glyph glyph-name="questiondown" unicode="&#xbf;" horiz-adv-x="1000" 
d="M798 700l-56 -400h-250c-100 0 -157 -50 -171 -150l-14 -100c-2 -12 -3 -23.667 -3 -35c0 -76.667 44 -115 132 -115h450l-28 -200h-450c-204.667 0 -307 89.667 -307 269c0 25.333 2 52.333 6 81l14 100c32.667 233.333 165.667 350 399 350h50l29 200h199zM627 900
l28 200h200l-28 -200h-200z" />
    <glyph glyph-name="Agrave" unicode="&#xc0;" 
d="M1100 0h-200l-51 300h-514l-135 -300h-200l617 1400h260zM424 500h392l-97 700zM701 1500l-98 300h210l48 -300h-160z" />
    <glyph glyph-name="Aacute" unicode="&#xc1;" 
d="M1100 0h-200l-51 300h-514l-135 -300h-200l617 1400h260zM424 500h392l-97 700zM661 1500l132 300h210l-182 -300h-160z" />
    <glyph glyph-name="Acircumflex" unicode="&#xc2;" 
d="M1100 0h-200l-51 300h-514l-135 -300h-200l617 1400h260zM424 500h392l-97 700zM683 1800h240l138 -300h-170l-102 200l-158 -200h-170z" />
    <glyph glyph-name="Atilde" unicode="&#xc3;" 
d="M1100 0h-200l-51 300h-514l-135 -300h-200l617 1400h260zM424 500h392l-97 700zM391 1500c23.333 166.667 98.333 250 225 250c66.667 0 124.334 -16.667 173.001 -50s103 -50 163 -50c46.667 0 74.667 33.333 84 100h130c-23.333 -166.667 -98.333 -250 -225 -250
c-66.667 0 -124.334 16.667 -173.001 50s-103 50 -163 50c-46.667 0 -74.667 -33.333 -84 -100h-130z" />
    <glyph glyph-name="Adieresis" unicode="&#xc4;" 
d="M1100 0h-200l-51 300h-514l-135 -300h-200l617 1400h260zM424 500h392l-97 700zM461 1500l28 200h200l-28 -200h-200zM861 1500l28 200h200l-28 -200h-200z" />
    <glyph glyph-name="Aring" unicode="&#xc5;" 
d="M1100 0h-200l-51 300h-514l-135 -300h-200l617 1400h260zM424 500h392l-97 700zM999 1700c-8 -58 -35.5 -107.501 -82.5 -148.501s-99.5 -61.5 -157.5 -61.5s-104.333 20.667 -139 62c-28.667 33.333 -43 72 -43 116c0 10.667 0.666992 21.334 2 32.001
c8 58 35.333 107.5 82 148.5s99 61.5 157 61.5s104.667 -20.333 140 -61c28.667 -34 43 -73.333 43 -118c0 -10 -0.666992 -20.333 -2 -31zM802 1790c-24.667 0 -47.168 -8.83301 -67.501 -26.5s-32.166 -38.834 -35.499 -63.501c-0.666992 -4.66699 -1 -9 -1 -13
c0 -19.333 6.33301 -36 19 -50c14.667 -18 34.334 -27 59.001 -27s47.167 8.83301 67.5 26.5s32.166 38.834 35.499 63.501c0.666992 4.66699 1 9 1 13c0 19.333 -6 36.333 -18 51c-15.333 17.333 -35.333 26 -60 26z" />
    <glyph glyph-name="AE" unicode="&#xc6;" horiz-adv-x="1500" 
d="M1512 800l-28 -200h-500l-56 -400h500l-28 -200h-700l42 300h-407l-135 -300h-200l617 1400h980l-28 -200h-500l-57 -400h500zM869 1200h-150l-295 -700h346z" />
    <glyph glyph-name="Ccedilla" unicode="&#xc7;" horiz-adv-x="1000" 
d="M349 350c-2 -12 -3 -23.667 -3 -35c0 -76.667 44 -115 132 -115h450l-28 -200h-450c-204.667 0 -307 89.667 -307 269c0 25.333 2 52.333 6 81l99 700c32.667 233.333 165.667 350 399 350h450l-28 -200h-450c-100 0 -157 -50 -171 -150zM486 -100
c11.333 0.666992 22.001 0.998047 32.001 0.998047c167.333 0 251 -38.333 251 -115c0 -5.33301 -0.333008 -10.666 -1 -15.999c-18.667 -133.333 -101.334 -200 -248.001 -200c-66.667 0 -125.334 10 -176.001 30l18 130c50.667 -20 109.334 -30 176.001 -30
c60 0 93.333 23.333 100 70c0.666992 2.66699 1 5.33398 1 8.00098c0 41.333 -53.667 62 -161 62z" />
    <glyph glyph-name="Egrave" unicode="&#xc8;" horiz-adv-x="1000" 
d="M1012 800l-28 -200h-600l-56 -400h600l-28 -200h-800l197 1400h800l-28 -200h-600l-57 -400h600zM651 1500l-98 300h210l48 -300h-160z" />
    <glyph glyph-name="Eacute" unicode="&#xc9;" horiz-adv-x="1000" 
d="M1012 800l-28 -200h-600l-56 -400h600l-28 -200h-800l197 1400h800l-28 -200h-600l-57 -400h600zM611 1500l132 300h210l-182 -300h-160z" />
    <glyph glyph-name="Ecircumflex" unicode="&#xca;" horiz-adv-x="1000" 
d="M1012 800l-28 -200h-600l-56 -400h600l-28 -200h-800l197 1400h800l-28 -200h-600l-57 -400h600zM633 1800h240l138 -300h-170l-102 200l-158 -200h-170z" />
    <glyph glyph-name="Edieresis" unicode="&#xcb;" horiz-adv-x="1000" 
d="M1012 800l-28 -200h-600l-56 -400h600l-28 -200h-800l197 1400h800l-28 -200h-600l-57 -400h600zM411 1500l28 200h200l-28 -200h-200zM811 1500l28 200h200l-28 -200h-200z" />
    <glyph glyph-name="Igrave" unicode="&#xcc;" horiz-adv-x="400" 
d="M497 1400l-197 -1400h-200l197 1400h200zM352 1500l-98 300h210l48 -300h-160z" />
    <glyph glyph-name="Iacute" unicode="&#xcd;" horiz-adv-x="400" 
d="M497 1400l-197 -1400h-200l197 1400h200zM311 1500l132 300h210l-182 -300h-160z" />
    <glyph glyph-name="Icircumflex" unicode="&#xce;" horiz-adv-x="400" 
d="M497 1400l-197 -1400h-200l197 1400h200zM334 1800h240l138 -300h-170l-102 200l-158 -200h-170z" />
    <glyph glyph-name="Idieresis" unicode="&#xcf;" horiz-adv-x="400" 
d="M497 1400l-197 -1400h-200l197 1400h200zM112 1500l28 200h200l-28 -200h-200zM512 1500l28 200h200l-28 -200h-200z" />
    <glyph glyph-name="Eth" unicode="&#xd0;" 
d="M897 1400c175.333 0 263 -77 263 -231c0 -21.333 -1.66699 -44.333 -5 -69l-112 -800c-28.667 -200 -143 -300 -343 -300h-600l89 630h-200l21 150h200l87 620h600zM955 1100c1.33301 8 2 15.667 2 23c0 51.333 -29.333 77 -88 77h-400l-59 -420h200l-21 -150h-200
l-60 -430h400c66.667 0 104.667 33.333 114 100z" />
    <glyph glyph-name="Ntilde" unicode="&#xd1;" horiz-adv-x="1200" 
d="M497 1400l459 -1000l141 1000h200l-197 -1400h-200l-459 1000l-141 -1000h-200l197 1400h200zM441 1500c23.333 166.667 98.333 250 225 250c66.667 0 124.334 -16.667 173.001 -50s103 -50 163 -50c46.667 0 74.667 33.333 84 100h130
c-23.333 -166.667 -98.333 -250 -225 -250c-66.667 0 -124.334 16.667 -173.001 50s-103 50 -163 50c-46.667 0 -74.667 -33.333 -84 -100h-130z" />
    <glyph glyph-name="Ograve" unicode="&#xd2;" horiz-adv-x="1150" 
d="M1099 350c-32.667 -233.333 -165.667 -350 -399 -350h-250c-204.667 0 -307 89.667 -307 269c0 25.333 2 52.333 6 81l99 700c32.667 233.333 165.667 350 399 350h250c204.667 0 307 -89.667 307 -269c0 -25.333 -2 -52.333 -6 -81zM349 350c-2 -12 -3 -23.667 -3 -35
c0 -76.667 44 -115 132 -115h250c100 0 157 50 171 150l99 700c2 12 3 23.667 3 35c0 76.667 -44 115 -132 115h-250c-100 0 -157 -50 -171 -150zM726 1500l-98 300h210l48 -300h-160z" />
    <glyph glyph-name="Oacute" unicode="&#xd3;" horiz-adv-x="1150" 
d="M1099 350c-32.667 -233.333 -165.667 -350 -399 -350h-250c-204.667 0 -307 89.667 -307 269c0 25.333 2 52.333 6 81l99 700c32.667 233.333 165.667 350 399 350h250c204.667 0 307 -89.667 307 -269c0 -25.333 -2 -52.333 -6 -81zM349 350c-2 -12 -3 -23.667 -3 -35
c0 -76.667 44 -115 132 -115h250c100 0 157 50 171 150l99 700c2 12 3 23.667 3 35c0 76.667 -44 115 -132 115h-250c-100 0 -157 -50 -171 -150zM686 1500l132 300h210l-182 -300h-160z" />
    <glyph glyph-name="Ocircumflex" unicode="&#xd4;" horiz-adv-x="1150" 
d="M1099 350c-32.667 -233.333 -165.667 -350 -399 -350h-250c-204.667 0 -307 89.667 -307 269c0 25.333 2 52.333 6 81l99 700c32.667 233.333 165.667 350 399 350h250c204.667 0 307 -89.667 307 -269c0 -25.333 -2 -52.333 -6 -81zM349 350c-2 -12 -3 -23.667 -3 -35
c0 -76.667 44 -115 132 -115h250c100 0 157 50 171 150l99 700c2 12 3 23.667 3 35c0 76.667 -44 115 -132 115h-250c-100 0 -157 -50 -171 -150zM708 1800h240l138 -300h-170l-102 200l-158 -200h-170z" />
    <glyph glyph-name="Otilde" unicode="&#xd5;" horiz-adv-x="1150" 
d="M1099 350c-32.667 -233.333 -165.667 -350 -399 -350h-250c-204.667 0 -307 89.667 -307 269c0 25.333 2 52.333 6 81l99 700c32.667 233.333 165.667 350 399 350h250c204.667 0 307 -89.667 307 -269c0 -25.333 -2 -52.333 -6 -81zM349 350c-2 -12 -3 -23.667 -3 -35
c0 -76.667 44 -115 132 -115h250c100 0 157 50 171 150l99 700c2 12 3 23.667 3 35c0 76.667 -44 115 -132 115h-250c-100 0 -157 -50 -171 -150zM416 1500c23.333 166.667 98.333 250 225 250c66.667 0 124.334 -16.667 173.001 -50s103 -50 163 -50
c46.667 0 74.667 33.333 84 100h130c-23.333 -166.667 -98.333 -250 -225 -250c-66.667 0 -124.334 16.667 -173.001 50s-103 50 -163 50c-46.667 0 -74.667 -33.333 -84 -100h-130z" />
    <glyph glyph-name="Odieresis" unicode="&#xd6;" horiz-adv-x="1150" 
d="M1099 350c-32.667 -233.333 -165.667 -350 -399 -350h-250c-204.667 0 -307 89.667 -307 269c0 25.333 2 52.333 6 81l99 700c32.667 233.333 165.667 350 399 350h250c204.667 0 307 -89.667 307 -269c0 -25.333 -2 -52.333 -6 -81zM349 350c-2 -12 -3 -23.667 -3 -35
c0 -76.667 44 -115 132 -115h250c100 0 157 50 171 150l99 700c2 12 3 23.667 3 35c0 76.667 -44 115 -132 115h-250c-100 0 -157 -50 -171 -150zM486 1500l28 200h200l-28 -200h-200zM886 1500l28 200h200l-28 -200h-200z" />
    <glyph glyph-name="multiply" unicode="&#xd7;" horiz-adv-x="1049" 
d="M481 694l-243 283l160 141l244 -283l322 283l123 -141l-323 -283l243 -283l-162 -141l-243 283l-323 -283l-121 141z" />
    <glyph glyph-name="Oslash" unicode="&#xd8;" horiz-adv-x="1150" 
d="M1099 350c-32.667 -233.333 -165.667 -350 -399 -350h-225l-79 -200h-150l83 213c-124 30.667 -186 115.667 -186 255c0 25.333 2 52.666 6 81.999l98 700c32.667 233.333 165.667 350 399 350h225l78 200h150l-82 -213c124 -31.333 186 -116.666 186 -255.999
c0 -25.333 -2 -52.333 -6 -81zM349 350c-2 -12 -3 -23.667 -3 -35c0 -52 20.333 -86.333 61 -103l386 988h-175c-100 0 -157 -50 -171 -150zM997 1050c2 12 3 23.667 3 35c0 52 -20.333 86.333 -61 103l-386 -988h175c100 0 157 50 171 150z" />
    <glyph glyph-name="Ugrave" unicode="&#xd9;" horiz-adv-x="1150" 
d="M1247 1400l-148 -1050c-32.667 -233.333 -165.667 -350 -399 -350h-250c-204.667 0 -307 89.667 -307 269c0 25.333 2 52.333 6 81l148 1050h200l-148 -1050c-2 -12 -3 -23.667 -3 -35c0 -76.667 44 -115 132 -115h250c100 0 157 50 171 150l148 1050h200zM726 1500
l-98 300h210l48 -300h-160z" />
    <glyph glyph-name="Uacute" unicode="&#xda;" horiz-adv-x="1150" 
d="M1247 1400l-148 -1050c-32.667 -233.333 -165.667 -350 -399 -350h-250c-204.667 0 -307 89.667 -307 269c0 25.333 2 52.333 6 81l148 1050h200l-148 -1050c-2 -12 -3 -23.667 -3 -35c0 -76.667 44 -115 132 -115h250c100 0 157 50 171 150l148 1050h200zM686 1500
l132 300h210l-182 -300h-160z" />
    <glyph glyph-name="Ucircumflex" unicode="&#xdb;" horiz-adv-x="1150" 
d="M1247 1400l-148 -1050c-32.667 -233.333 -165.667 -350 -399 -350h-250c-204.667 0 -307 89.667 -307 269c0 25.333 2 52.333 6 81l148 1050h200l-148 -1050c-2 -12 -3 -23.667 -3 -35c0 -76.667 44 -115 132 -115h250c100 0 157 50 171 150l148 1050h200zM708 1800h240
l138 -300h-170l-102 200l-158 -200h-170z" />
    <glyph glyph-name="Udieresis" unicode="&#xdc;" horiz-adv-x="1150" 
d="M1247 1400l-148 -1050c-32.667 -233.333 -165.667 -350 -399 -350h-250c-204.667 0 -307 89.667 -307 269c0 25.333 2 52.333 6 81l148 1050h200l-148 -1050c-2 -12 -3 -23.667 -3 -35c0 -76.667 44 -115 132 -115h250c100 0 157 50 171 150l148 1050h200zM486 1500
l28 200h200l-28 -200h-200zM886 1500l28 200h200l-28 -200h-200z" />
    <glyph glyph-name="Yacute" unicode="&#xdd;" horiz-adv-x="1000" 
d="M417 1400l196 -600l364 600h220l-512 -800l-85 -600h-200l85 600l-288 800h220zM611 1500l132 300h210l-182 -300h-160z" />
    <glyph glyph-name="Thorn" unicode="&#xde;" 
d="M695 320h-350l-45 -320h-200l197 1400h200l-47 -330h350c204.667 0 307 -89.667 307 -269c0 -25.333 -2 -52.333 -6 -81l-7 -50c-32.667 -233.333 -165.667 -350 -399 -350zM422 870l-49 -350h350c100 0 157 50 171 150l7 50c2 12 3 23.667 3 35
c0 76.667 -44 115 -132 115h-350z" />
    <glyph glyph-name="germandbls" unicode="&#xdf;" horiz-adv-x="1690" 
d="M74 -8l24.999 179h433c61.333 0 96 28 104 84l10 70c0.666992 6.66699 1 12.667 1 18c0 44 -27 66 -81 66h-150c-166.667 0 -250 68.667 -250 206c0 18 1.33301 37 4 57l9 70c24.667 175.333 131.334 263 320.001 263h432l-25 -179h-432c-62 0 -97 -28 -105 -84l-9 -70
c-0.666992 -6.66699 -1 -12.667 -1 -18c0 -44 27.333 -66 82 -66h150c166 0 249 -68.333 249 -205c0 -18 -1.33301 -37.333 -4 -58l-10 -70c-24.667 -175.333 -131 -263 -319 -263h-433zM898.999 -8l24.999 179h433c61.333 0 96 28 104 84l10 70
c0.666992 6.66699 1 12.667 1 18c0 44 -27 66 -81 66h-150c-166.667 0 -250 68.667 -250 206c0 18 1.33301 37 4 57l9 70c24.667 175.333 131.334 263 320.001 263h432l-25 -179h-432c-62 0 -97 -28 -105 -84l-9 -70c-0.666992 -6.66699 -1 -12.667 -1 -18
c0 -44 27.333 -66 82 -66h150c166 0 249 -68.333 249 -205c0 -18 -1.33301 -37.333 -4 -58l-10 -70c-24.667 -175.333 -131 -263 -319 -263h-433z" />
    <glyph glyph-name="agrave" unicode="&#xe0;" horiz-adv-x="880" 
d="M879 -8h-192l-41 209h-356l-99 -209h-192l470 1013h224zM374 380h240l-65 397zM535 1100l-98 300h210l48 -300h-160z" />
    <glyph glyph-name="aacute" unicode="&#xe1;" horiz-adv-x="880" 
d="M879 -8h-192l-41 209h-356l-99 -209h-192l470 1013h224zM374 380h240l-65 397zM495 1100l132 300h210l-182 -300h-160z" />
    <glyph glyph-name="acircumflex" unicode="&#xe2;" horiz-adv-x="880" 
d="M879 -8h-192l-41 209h-356l-99 -209h-192l470 1013h224zM374 380h240l-65 397zM517 1400h240l138 -300h-170l-102 200l-158 -200h-170z" />
    <glyph glyph-name="atilde" unicode="&#xe3;" horiz-adv-x="880" 
d="M879 -8h-192l-41 209h-356l-99 -209h-192l470 1013h224zM374 380h240l-65 397zM225 1100c23.333 166.667 98.333 250 225 250c66.667 0 124.334 -16.667 173.001 -50s103 -50 163 -50c46.667 0 74.667 33.333 84 100h130c-23.333 -166.667 -98.333 -250 -225 -250
c-66.667 0 -124.334 16.667 -173.001 50s-103 50 -163 50c-46.667 0 -74.667 -33.333 -84 -100h-130z" />
    <glyph glyph-name="adieresis" unicode="&#xe4;" horiz-adv-x="880" 
d="M879 -8h-192l-41 209h-356l-99 -209h-192l470 1013h224zM374 380h240l-65 397zM295 1100l28 200h200l-28 -200h-200zM695 1100l28 200h200l-28 -200h-200z" />
    <glyph glyph-name="aring" unicode="&#xe5;" horiz-adv-x="880" 
d="M879 -8h-192l-41 209h-356l-99 -209h-192l470 1013h224zM374 380h240l-65 397zM833 1300c-8 -58 -35.5 -107.501 -82.5 -148.501s-99.5 -61.5 -157.5 -61.5s-104.333 20.667 -139 62c-28.667 33.333 -43 72 -43 116c0 10.667 0.666992 21.334 2 32.001
c8 58 35.333 107.5 82 148.5s99 61.5 157 61.5s104.667 -20.333 140 -61c28.667 -34 43 -73.333 43 -118c0 -10 -0.666992 -20.333 -2 -31zM635 1390c-24.667 0 -47 -8.83301 -67 -26.5s-31.667 -38.834 -35 -63.501c-0.666992 -4.66699 -1 -9 -1 -13
c0 -19.333 6.33301 -36 19 -50c14.667 -18 34.334 -27 59.001 -27s47.167 8.83301 67.5 26.5s32.166 38.834 35.499 63.501c0.666992 4.66699 1 9 1 13c0 19.333 -6.33301 36.333 -19 51c-15.333 17.333 -35.333 26 -60 26z" />
    <glyph glyph-name="ae" unicode="&#xe6;" horiz-adv-x="1172" 
d="M1180 588l-25 -179h-375l-34 -238h375l-25 -179h-565l29 209h-270l-99 -209h-192l470 1013h769l-25 -179h-375l-33 -238h375zM648 826h-77l-197 -446h212z" />
    <glyph glyph-name="ccedilla" unicode="&#xe7;" horiz-adv-x="790" 
d="M301 255c-0.666992 -6.66699 -1.00098 -12.667 -1.00098 -18c0 -44 27.333 -66 82 -66h357l-25 -179h-357c-166.667 0 -250 68.667 -250 206c0 18 1.33301 37 4 57l68 487c24.667 175.333 131.334 263 320.001 263h357l-25 -179h-357c-62 0 -97 -28 -105 -84z
M330.999 -100c11.333 0.666992 22.001 0.998047 32.001 0.998047c167.333 0 251 -38.333 251 -115c0 -5.33301 -0.333008 -10.666 -1 -15.999c-18.667 -133.333 -101.334 -200 -248.001 -200c-66.667 0 -125.334 10 -176.001 30l18 130c50.667 -20 109.334 -30 176.001 -30
c60 0 93.333 23.333 100 70c0.666992 2.66699 1 5.33398 1 8.00098c0 41.333 -53.667 62 -161 62z" />
    <glyph glyph-name="egrave" unicode="&#xe8;" horiz-adv-x="790" 
d="M798 588l-25 -179h-450l-34 -238h450l-25 -179h-640l142 1013h640l-25 -179h-450l-33 -238h450zM490 1100l-98 300h210l48 -300h-160z" />
    <glyph glyph-name="eacute" unicode="&#xe9;" horiz-adv-x="790" 
d="M798 588l-25 -179h-450l-34 -238h450l-25 -179h-640l142 1013h640l-25 -179h-450l-33 -238h450zM450 1100l132 300h210l-182 -300h-160z" />
    <glyph glyph-name="ecircumflex" unicode="&#xea;" horiz-adv-x="790" 
d="M798 588l-25 -179h-450l-34 -238h450l-25 -179h-640l142 1013h640l-25 -179h-450l-33 -238h450zM472 1400h240l138 -300h-170l-102 200l-158 -200h-170z" />
    <glyph glyph-name="edieresis" unicode="&#xeb;" horiz-adv-x="790" 
d="M798 588l-25 -179h-450l-34 -238h450l-25 -179h-640l142 1013h640l-25 -179h-450l-33 -238h450zM250 1100l28 200h200l-28 -200h-200zM650 1100l28 200h200l-28 -200h-200z" />
    <glyph glyph-name="igrave" unicode="&#xec;" horiz-adv-x="340" 
d="M406 1005l-142 -1013h-190l142 1013h190zM265 1100l-98 300h210l48 -300h-160z" />
    <glyph glyph-name="iacute" unicode="&#xed;" horiz-adv-x="340" 
d="M406 1005l-142 -1013h-190l142 1013h190zM225 1100l132 300h210l-182 -300h-160z" />
    <glyph glyph-name="icircumflex" unicode="&#xee;" horiz-adv-x="340" 
d="M407 1005l-143 -1013h-190l143 1013h190zM247 1400h240l138 -300h-170l-102 200l-158 -200h-170z" />
    <glyph glyph-name="idieresis" unicode="&#xef;" horiz-adv-x="340" 
d="M407 1005l-143 -1013h-190l143 1013h190zM25 1100l28 200h200l-28 -200h-200zM425 1100l28 200h200l-28 -200h-200z" />
    <glyph glyph-name="eth" unicode="&#xf0;" horiz-adv-x="865" 
d="M686 1005c144.667 0 217 -59.333 217 -178c0 -16 -1.33301 -32.667 -4 -50l-78 -556c-22 -152.667 -114.667 -229 -278 -229h-470l62 438h-150l20 144h150l61 431h470zM709 777c0.666992 4 0.999023 7.33301 0.999023 10c0 26 -16.333 39 -49 39h-280l-36 -252h150
l-20 -144h-150l-36 -259h280c36.667 0 57.334 16.667 62.001 50z" />
    <glyph glyph-name="ntilde" unicode="&#xf1;" horiz-adv-x="940" 
d="M397 1005l328 -647l91 647h190l-142 -1013h-181l-328 647l-91 -647h-190l142 1013h181zM255 1100c23.333 166.667 98.333 250 225 250c66.667 0 124.334 -16.667 173.001 -50s103 -50 163 -50c46.667 0 74.667 33.333 84 100h130
c-23.333 -166.667 -98.333 -250 -225 -250c-66.667 0 -124.334 16.667 -173.001 50s-103 50 -163 50c-46.667 0 -74.667 -33.333 -84 -100h-130z" />
    <glyph glyph-name="ograve" unicode="&#xf2;" horiz-adv-x="903" 
d="M864 255c-24.667 -175.333 -131.334 -263 -320.001 -263h-187c-166.667 0 -250 68.667 -250 206c0 18 1.33301 37 4 57l68 487c24.667 175.333 131.334 263 320.001 263h187c166.667 0 250 -68.667 250 -206c0 -18 -1.33301 -37 -4 -57zM301 255
c-0.666992 -6.66699 -1 -12.667 -1 -18c0 -44 27.333 -66 82 -66h187c62 0 97 28 105 84l68 487c0.666992 6.66699 1 12.667 1 18c0 44 -27.333 66 -82 66h-187c-62 0 -97 -28 -105 -84zM546 1100l-98 300h210l48 -300h-160z" />
    <glyph glyph-name="oacute" unicode="&#xf3;" horiz-adv-x="903" 
d="M864 255c-24.667 -175.333 -131.334 -263 -320.001 -263h-187c-166.667 0 -250 68.667 -250 206c0 18 1.33301 37 4 57l68 487c24.667 175.333 131.334 263 320.001 263h187c166.667 0 250 -68.667 250 -206c0 -18 -1.33301 -37 -4 -57zM301 255
c-0.666992 -6.66699 -1 -12.667 -1 -18c0 -44 27.333 -66 82 -66h187c62 0 97 28 105 84l68 487c0.666992 6.66699 1 12.667 1 18c0 44 -27.333 66 -82 66h-187c-62 0 -97 -28 -105 -84zM506 1100l132 300h210l-182 -300h-160z" />
    <glyph glyph-name="ocircumflex" unicode="&#xf4;" horiz-adv-x="903" 
d="M864 255c-24.667 -175.333 -131.334 -263 -320.001 -263h-187c-166.667 0 -250 68.667 -250 206c0 18 1.33301 37 4 57l68 487c24.667 175.333 131.334 263 320.001 263h187c166.667 0 250 -68.667 250 -206c0 -18 -1.33301 -37 -4 -57zM301 255
c-0.666992 -6.66699 -1 -12.667 -1 -18c0 -44 27.333 -66 82 -66h187c62 0 97 28 105 84l68 487c0.666992 6.66699 1 12.667 1 18c0 44 -27.333 66 -82 66h-187c-62 0 -97 -28 -105 -84zM528 1400h240l138 -300h-170l-102 200l-158 -200h-170z" />
    <glyph glyph-name="otilde" unicode="&#xf5;" horiz-adv-x="903" 
d="M864 255c-24.667 -175.333 -131.334 -263 -320.001 -263h-187c-166.667 0 -250 68.667 -250 206c0 18 1.33301 37 4 57l68 487c24.667 175.333 131.334 263 320.001 263h187c166.667 0 250 -68.667 250 -206c0 -18 -1.33301 -37 -4 -57zM301 255
c-0.666992 -6.66699 -1 -12.667 -1 -18c0 -44 27.333 -66 82 -66h187c62 0 97 28 105 84l68 487c0.666992 6.66699 1 12.667 1 18c0 44 -27.333 66 -82 66h-187c-62 0 -97 -28 -105 -84zM236 1100c23.333 166.667 98.333 250 225 250c66.667 0 124.334 -16.667 173.001 -50
s103 -50 163 -50c46.667 0 74.667 33.333 84 100h130c-23.333 -166.667 -98.333 -250 -225 -250c-66.667 0 -124.334 16.667 -173.001 50s-103 50 -163 50c-46.667 0 -74.667 -33.333 -84 -100h-130z" />
    <glyph glyph-name="odieresis" unicode="&#xf6;" horiz-adv-x="903" 
d="M864 255c-24.667 -175.333 -131.334 -263 -320.001 -263h-187c-166.667 0 -250 68.667 -250 206c0 18 1.33301 37 4 57l68 487c24.667 175.333 131.334 263 320.001 263h187c166.667 0 250 -68.667 250 -206c0 -18 -1.33301 -37 -4 -57zM301 255
c-0.666992 -6.66699 -1 -12.667 -1 -18c0 -44 27.333 -66 82 -66h187c62 0 97 28 105 84l68 487c0.666992 6.66699 1 12.667 1 18c0 44 -27.333 66 -82 66h-187c-62 0 -97 -28 -105 -84zM306 1100l28 200h200l-28 -200h-200zM706 1100l28 200h200l-28 -200h-200z" />
    <glyph glyph-name="divide" unicode="&#xf7;" horiz-adv-x="1000" 
d="M1012 800l-28 -200h-800l28 200h800zM428 200l28 200h200l-28 -200h-200zM540 1000l28 200h200l-28 -200h-200z" />
    <glyph glyph-name="oslash" unicode="&#xf8;" horiz-adv-x="903" 
d="M864 255c-24.667 -175.333 -131.334 -263 -320.001 -263h-153l-58 -139h-154l63 153c-90.667 20 -136 82 -136 186c0 20 1.66699 41 5 63l68 487c24.667 175.333 131.334 263 320.001 263h153l57 139h154l-63 -153c91.333 -20.667 137 -83 137 -187
c0 -19.333 -1.66699 -40 -5 -62zM301 255c-1.33301 -11.333 -2 -20.999 -2 -28.999c0 -22.667 5.66699 -36.334 17 -41.001l263 641h-105c-62 0 -97 -28 -105 -84zM742 742.001c1.33301 11.333 2 20.999 2 28.999c0 22.667 -5.66699 36.334 -17 41.001l-263 -641h105
c62 0 97 28 105 84z" />
    <glyph glyph-name="ugrave" unicode="&#xf9;" horiz-adv-x="903" 
d="M969 1005l-104.999 -750c-24.667 -175.333 -131.334 -263 -320.001 -263h-187c-166.667 0 -250 68.667 -250 206c0 18 1.33301 37 4 57l105 750h190l-105 -750c-0.666992 -6.66699 -1 -12.667 -1 -18c0 -44 27.333 -66 82 -66h187c62 0 97 28 105 84l105 750h190z
M546.001 1100l-98 300h210l48 -300h-160z" />
    <glyph glyph-name="uacute" unicode="&#xfa;" horiz-adv-x="903" 
d="M969 1005l-104.999 -750c-24.667 -175.333 -131.334 -263 -320.001 -263h-187c-166.667 0 -250 68.667 -250 206c0 18 1.33301 37 4 57l105 750h190l-105 -750c-0.666992 -6.66699 -1 -12.667 -1 -18c0 -44 27.333 -66 82 -66h187c62 0 97 28 105 84l105 750h190z
M506.001 1100l132 300h210l-182 -300h-160z" />
    <glyph glyph-name="ucircumflex" unicode="&#xfb;" horiz-adv-x="903" 
d="M969 1005l-104.999 -750c-24.667 -175.333 -131.334 -263 -320.001 -263h-187c-166.667 0 -250 68.667 -250 206c0 18 1.33301 37 4 57l105 750h190l-105 -750c-0.666992 -6.66699 -1 -12.667 -1 -18c0 -44 27.333 -66 82 -66h187c62 0 97 28 105 84l105 750h190z
M528.001 1400h240l138 -300h-170l-102 200l-158 -200h-170z" />
    <glyph glyph-name="udieresis" unicode="&#xfc;" horiz-adv-x="903" 
d="M969 1005l-104.999 -750c-24.667 -175.333 -131.334 -263 -320.001 -263h-187c-166.667 0 -250 68.667 -250 206c0 18 1.33301 37 4 57l105 750h190l-105 -750c-0.666992 -6.66699 -1 -12.667 -1 -18c0 -44 27.333 -66 82 -66h187c62 0 97 28 105 84l105 750h190z
M306.001 1100l28 200h200l-28 -200h-200zM706.001 1100l28 200h200l-28 -200h-200z" />
    <glyph glyph-name="yacute" unicode="&#xfd;" horiz-adv-x="817" 
d="M352 1005l143 -393l252 393h211l-395 -581l-60 -432h-190l60 432l-232 581h211zM463 1100l133 300h210l-183 -300h-160z" />
    <glyph glyph-name="thorn" unicode="&#xfe;" horiz-adv-x="865" 
d="M538 214h-243l-31 -222h-190l142 1013h190l-32 -229h243c166 0 249 -68.667 249 -206c0 -18 -1.33301 -37.333 -4 -58l-5 -34c-24.667 -176 -131 -264 -319 -264zM349 597l-29 -204h243c61.333 0 96 28.333 104 85l5 34c0.666992 6.66699 1 12.667 1 18
c0 44.667 -27 67 -81 67h-243z" />
    <glyph glyph-name="ydieresis" unicode="&#xff;" horiz-adv-x="817" 
d="M352 1005l143 -393l252 393h211l-395 -581l-60 -432h-190l60 432l-232 581h211zM263 1100l28 200h200l-28 -200h-200zM663 1100l28 200h200l-28 -200h-200z" />
    <glyph glyph-name="dotlessi" unicode="&#x131;" horiz-adv-x="340" 
d="M406 1005l-142 -1013h-190l142 1013h190z" />
    <glyph glyph-name="OE" unicode="&#x152;" horiz-adv-x="1700" 
d="M1712 800l-28 -200h-550l-56 -400h550l-28 -200h-750l13 91c-50 -60.667 -124.333 -91 -223 -91h-190c-204.667 0 -307 89.667 -307 269c0 25.333 2 52.333 6 81l99 700c32.667 233.333 165.667 350 399 350h200c92 0 154.333 -30.667 187 -92l13 92h750l-28 -200h-550
l-57 -400h550zM349 350c-2 -12 -3 -23.667 -3 -35c0 -76.667 44 -115 132 -115h190c140 0 214.667 33.333 224 100l113 800c0.666992 4.66699 1 9 1 13c0 58 -62.333 87 -187 87h-200c-100 0 -157 -50 -171 -150z" />
    <glyph glyph-name="oe" unicode="&#x153;" horiz-adv-x="1315" 
d="M1323 588l-25.001 -179h-412l-34 -238h412l-25 -179h-602l10 72c-18 -48 -67.333 -72 -148 -72h-142c-166.667 0 -250 68.667 -250 206c0 18 1.33301 37 4 57l68 487c24.667 175.333 131.334 263 320.001 263h150c75.333 0 115.333 -24 120 -72l10 72h602l-25 -179h-412
l-33 -238h412zM300.999 255c-0.666992 -6.66699 -1 -12.667 -1 -18c0 -44 27.333 -66 82 -66h142c92 0 141.667 26.667 149 80l70 496c0.666992 4 1 8 1 12c0 44.667 -40 67 -120 67h-150c-62 0 -97 -28 -105 -84z" />
    <glyph glyph-name="Scaron" unicode="&#x160;" 
d="M100 0l28 200.001h550c100 0 157 50 171 150l14 100c2 12 3 23.667 3 35c0 76.667 -44 115 -132 115h-200c-204 0 -306 89.333 -306 268c0 25.333 2 52.666 6 81.999l14 100c32.667 233.333 165.667 350 399 350h550l-28 -200h-550c-100 0 -157 -50 -171 -150l-14 -100
c-2 -12.667 -3 -24.667 -3 -36c0 -76 43.667 -114 131 -114h200c204.667 0 307 -89.667 307 -269c0 -25.333 -2 -52.333 -6 -81l-14 -100c-32.667 -233.333 -165.667 -350 -399 -350h-550zM503 1800h170l102 -200l158 200h170l-222 -300h-240z" />
    <glyph glyph-name="scaron" unicode="&#x161;" horiz-adv-x="865" 
d="M74 -8l24.999 179h433c61.333 0 96 28 104 84l10 70c0.666992 6.66699 1 12.667 1 18c0 44 -27 66 -81 66h-150c-166.667 0 -250 68.667 -250 206c0 18 1.33301 37 4 57l9 70c24.667 175.333 131.334 263 320.001 263h432l-25 -179h-432c-62 0 -97 -28 -105 -84l-9 -70
c-0.666992 -6.66699 -1 -12.667 -1 -18c0 -44 27.333 -66 82 -66h150c166 0 249 -68.333 249 -205c0 -18 -1.33301 -37.333 -4 -58l-10 -70c-24.667 -175.333 -131 -263 -319 -263h-433zM329.999 1400h170l102 -200l158 200h170l-222 -300h-240z" />
    <glyph glyph-name="Ydieresis" unicode="&#x178;" horiz-adv-x="1000" 
d="M417 1400l196 -600l364 600h220l-512 -800l-85 -600h-200l85 600l-288 800h220zM411 1500l28 200h200l-28 -200h-200zM811 1500l28 200h200l-28 -200h-200z" />
    <glyph glyph-name="Zcaron" unicode="&#x17d;" 
d="M1197 1400l-28 -200l-811 -1000h670l-28 -200h-900l28 200l811 1000h-670l28 200h900zM503 1800h170l102 -200l158 200h170l-222 -300h-240z" />
    <glyph glyph-name="zcaron" unicode="&#x17e;" horiz-adv-x="865" 
d="M931 1005l-23 -165l-577 -669h483l-25 -179h-715l23 165l577 669h-483l25 179h715zM330 1400h170l102 -200l158 200h170l-222 -300h-240z" />
    <glyph glyph-name="florin" unicode="&#x192;" horiz-adv-x="800" 
d="M591 1000h250l-28 -200h-250l-120 -850c-32.667 -233.333 -165.667 -350 -399 -350h-50l28 200h50c100 0 157 50 171 150l120 850h-150l28 200h150l7 50c32.667 233.333 165.667 350 399 350h100l-28 -200h-100c-100 0 -157 -50 -171 -150z" />
    <glyph glyph-name="circumflex" unicode="&#x2c6;" horiz-adv-x="800" 
d="M477 1400h240l138 -300h-170l-102 200l-158 -200h-170z" />
    <glyph glyph-name="caron" unicode="&#x2c7;" horiz-adv-x="800" 
d="M297 1400h170l102 -200l158 200h170l-222 -300h-240z" />
    <glyph glyph-name="breve" unicode="&#x2d8;" horiz-adv-x="800" 
d="M297 1400h150c-2 -12 -3 -23.667 -3 -35c0 -76.667 44 -115 132 -115c100 0 157 50 171 150h150c-28 -200 -142 -300 -342 -300c-175.333 0 -263 77 -263 231c0 21.333 1.66699 44.333 5 69z" />
    <glyph glyph-name="dotaccent" unicode="&#x2d9;" horiz-adv-x="400" 
d="M255 1100l28 200h200l-28 -200h-200z" />
    <glyph glyph-name="ring" unicode="&#x2da;" horiz-adv-x="620" 
d="M702 1300c-8 -58 -35.333 -107.499 -82 -148.499s-99 -61.5 -157 -61.5s-104.667 20.667 -140 62c-28.667 33.333 -43 72.333 -43 117c0 10 0.666992 20.333 2 31c8 58 35.5 107.5 82.5 148.5s99.5 61.5 157.5 61.5s104.667 -20.333 140 -61c28 -34 42 -73 42 -117
c0 -10.667 -0.666992 -21.334 -2 -32.001zM505 1390c-24.667 0 -47.168 -8.83301 -67.501 -26.5s-32.166 -38.834 -35.499 -63.501c-0.666992 -4.66699 -1 -9 -1 -13c0 -19.333 6.33301 -36 19 -50c15.333 -18 35.333 -27 60 -27s47 8.83301 67 26.5
s31.667 38.834 35 63.501c0.666992 4.66699 1 9 1 13c0 19.333 -6 36.333 -18 51c-15.333 17.333 -35.333 26 -60 26z" />
    <glyph glyph-name="ogonek" unicode="&#x2db;" horiz-adv-x="550" 
d="M286 -100c-52 -40 -80.332 -76.667 -84.999 -110c-0.666992 -3.33301 -1 -6.66602 -1 -9.99902c0 -26.667 18 -40 54 -40c53.333 0 108.333 13.333 165 40l-18 -130c-56 -20 -110.667 -30 -164 -30c-114 0 -171 40.667 -171 122c0 8.66699 0.666992 18 2 28
c7.33301 53.333 46.666 96.666 117.999 129.999h100z" />
    <glyph glyph-name="tilde" unicode="&#x2dc;" horiz-adv-x="940" 
d="M255 1100c23.333 166.667 98.333 250 225 250c66.667 0 124.334 -16.667 173.001 -50s103 -50 163 -50c46.667 0 74.667 33.333 84 100h130c-23.333 -166.667 -98.333 -250 -225 -250c-66.667 0 -124.334 16.667 -173.001 50s-103 50 -163 50
c-46.667 0 -74.667 -33.333 -84 -100h-130z" />
    <glyph glyph-name="hungarumlaut" unicode="&#x2dd;" horiz-adv-x="800" 
d="M597 1400l-142 -300h-200l142 300h200zM897 1400l-142 -300h-200l142 300h200z" />
    <glyph glyph-name="endash" unicode="&#x2013;" horiz-adv-x="800" 
d="M812 800l-28 -200h-600l28 200h600z" />
    <glyph glyph-name="emdash" unicode="&#x2014;" horiz-adv-x="1000" 
d="M1012 800l-28 -200h-800l28 200h800z" />
    <glyph glyph-name="quoteleft" unicode="&#x2018;" horiz-adv-x="500" 
d="M497 1400l58 -300h-200l-58 300h200z" />
    <glyph glyph-name="quoteright" unicode="&#x2019;" horiz-adv-x="500" 
d="M597 1400l-142 -300h-200l142 300h200z" />
    <glyph glyph-name="quotesinglbase" unicode="&#x201a;" horiz-adv-x="500" 
d="M428 200l-142 -300h-200l142 300h200z" />
    <glyph glyph-name="quotedblleft" unicode="&#x201c;" horiz-adv-x="800" 
d="M797 1400l58 -300h-200l-58 300h200zM497 1400l58 -300h-200l-58 300h200z" />
    <glyph glyph-name="quotedblright" unicode="&#x201d;" horiz-adv-x="800" 
d="M597 1400l-142 -300h-200l142 300h200zM897 1400l-142 -300h-200l142 300h200z" />
    <glyph glyph-name="quotedblbase" unicode="&#x201e;" horiz-adv-x="800" 
d="M428 200l-142 -300h-200l142 300h200zM728 200l-142 -300h-200l142 300h200z" />
    <glyph glyph-name="dagger" unicode="&#x2020;" 
d="M1126 900h-350l-126 -900h-200l126 900h-350l28 200h350l42 300h200l-42 -300h350z" />
    <glyph glyph-name="daggerdbl" unicode="&#x2021;" 
d="M1042 300h-350l-42 -300h-200l42 300h-350l28 200h350l56 400h-350l28 200h350l43 300h200l-43 -300h350l-28 -200h-350l-56 -400h350z" />
    <glyph glyph-name="bullet" unicode="&#x2022;" horiz-adv-x="500" 
d="M526 900l-42 -300h-300l42 300h300z" />
    <glyph glyph-name="ellipsis" unicode="&#x2026;" horiz-adv-x="1200" 
d="M100 0l28 200h200l-28 -200h-200zM500 0l28 200h200l-28 -200h-200zM900 0l28 200h200l-28 -200h-200z" />
    <glyph glyph-name="perthousand" unicode="&#x2030;" horiz-adv-x="2700" 
d="M484 600c-175.333 0 -263 77 -263 231c0 21.333 1.66699 44.333 5 69l28 200c28 200 142 300 342 300h100c175.333 0 263 -77 263 -231c0 -21.333 -1.66699 -44.333 -5 -69l-28 -200c-28 -200 -142 -300 -342 -300h-100zM1842 300c-28 -200 -142 -300 -342 -300h-100
c-175.333 0 -263 77 -263 231c0 21.333 1.66699 44.333 5 69l28 200c28 200 142 300 342 300h100c175.333 0 263 -77 263 -231c0 -21.333 -1.66699 -44.333 -5 -69zM426 900c-1.33301 -8 -2 -15.667 -2 -23c0 -51.333 29.333 -77 88 -77h100
c66.667 0 104.667 33.333 114 100l28 200c1.33301 8 2 15.667 2 23c0 51.333 -29.333 77 -88 77h-100c-66.667 0 -104.667 -33.333 -114 -100zM1342 300c-1.33301 -8 -2 -15.667 -2 -23c0 -51.333 29.333 -77 88 -77h100c66.667 0 104.667 33.333 114 100l28 200
c1.33301 8 2 15.667 2 23c0 51.333 -29.333 77 -88 77h-100c-66.667 0 -104.667 -33.333 -114 -100zM500 0l886 1400h210l-886 -1400h-210zM2642 300c-28 -200 -142 -300 -342 -300h-100c-175.333 0 -263 77 -263 231c0 21.333 1.66699 44.333 5 69l28 200
c28 200 142 300 342 300h100c175.333 0 263 -77 263 -231c0 -21.333 -1.66699 -44.333 -5 -69zM2142 300c-1.33301 -8 -2 -15.667 -2 -23c0 -51.333 29.333 -77 88 -77h100c66.667 0 104.667 33.333 114 100l28 200c1.33301 8 2 15.667 2 23c0 51.333 -29.333 77 -88 77
h-100c-66.667 0 -104.667 -33.333 -114 -100z" />
    <glyph glyph-name="guilsinglleft" unicode="&#x2039;" horiz-adv-x="700" 
d="M191 650l343 450h220l-343 -450l217 -450h-220z" />
    <glyph glyph-name="guilsinglright" unicode="&#x203a;" horiz-adv-x="700" 
d="M348 200h-220l343 450l-217 450h220l217 -450z" />
    <glyph glyph-name="Euro" unicode="&#x20ac;" 
d="M559 780l-21.999 -160h380l-80 -170h-324l-14 -100c-2 -12 -3 -23.667 -3 -35c0 -76.667 44 -115 132 -115h400l-28 -200h-400c-204.667 0 -307 89.667 -307 269c0 25.333 2 52.333 6 81l14 100h-150l24 170h150l22 160h-150l24 170h150l14 100
c33.333 233.333 166.666 350 399.999 350h400l-29 -200h-400c-100 0 -157 -50 -171 -150l-14 -100h475l-79 -170h-420z" />
    <glyph glyph-name="trademark" unicode="&#x2122;" horiz-adv-x="1450" 
d="M1047 1400l101 -350l199 350h200l-84 -600h-150l49 350l-199 -350h-100l-101 350l-49 -350h-150l84 600h200zM747 1400l-21 -150h-150l-63 -450h-150l63 450h-150l21 150h450z" />
  </font>
</defs>
</svg>
