<svg xmlns="http://www.w3.org/2000/svg" width="360" height="75" viewBox="0 0 360 75"><path fill="#1C201F" d="M344.3 2c7.6 0 13.7 6.2 13.7 13.9v20.9c0 7.6-6.2 13.9-13.7 13.9H15.7C8.2 50.7 2 44.4 2 36.8V15.9C2 8.2 8.2 2 15.7 2h328.6m0-2H15.7C7 0 0 7.1 0 15.9v20.9c0 8.8 7 15.9 15.7 15.9h328.5c8.7 0 15.7-7.1 15.7-15.9V15.9C360 7.1 353 0 344.3 0z"/><path fill="#1C201F" d="M277.3 29.1c1.1 0 2.2.1 3.4 0 2.4-.3 4.5-1.8 5.5-4 2.1-4.5-1.3-9.8-6.2-9.8h-19.1v23.2h4.2V19H280c1.4 0 2.8 1 3.1 2.5.3 1.9-1.1 3.8-3 3.8H268l13.5 13.2h5.4c-3.2-3.2-6.4-6.3-9.6-9.4zM291.2 15.1l-2.4 3.8h8.9v19.4h3.8V18.9h6.5c1.1-1.3 2.2-2.5 3.3-3.8h-20.1zM205.9 27.9V15.1h-3.8v11.4c0 2.2 0 4.3 1.1 6.3 1.8 3.4 5.4 5.5 9.1 5.8.3 0 .7.1 1 .1 2.7 0 5.4.1 8-.7 4.3-1.5 7.2-5.3 7.2-9.9v-13h-3.8v12.8c0 1.8-1 3.8-2.3 5.1-1 .9-2.5 1.3-3.8 1.5-1 .2-1.9.2-2.9.3-1 0-1.9-.1-2.8-.1-3.7-.1-7-2.8-7-6.8M238.4 27.6l4.8-7.7L254.6 38h4.6c-4-6.4-8.1-12.8-12.1-19.2-.5-.9-1.1-1.7-1.6-2.6-.2-.3-.4-.6-.7-.9-1.1-1-2.9-.6-3.6.6l-13.5 21.7v.4h4.2c.1 0 .4-.5.4-.6.4-.6.8-1.3 1.2-1.9 1.6-2.7 3.3-5.3 4.9-7.9z"/><path fill="#1C201F" d="M248.7 32.9l-5.6-6.9c-1.7 2.3-3.4 4.6-5 6.9h10.6zM169.7 18.7c-3 3.2-3.7 8.3-2.3 12.5 1.5 4.3 5.3 7.3 9.9 7.3h10.9c1.2 0 2.4-.2 3.6-.2.1-.3 1-.4 1.3-.6.7-.3 1.3-.6 1.8-1.1 1.2-.9 2.1-2 2.8-3.2 1.4-2.5 2-5.4 1.6-8.2-.8-5.4-4.8-9.9-10.4-9.9H177.1c-2.8-.1-5.5 1.1-7.4 3.4m.8 8.2c0-4 2.4-7.9 6.8-7.9h11.1c.8 0 1.5 0 2.3.2 1.8.4 3.2 1.6 4.1 3.1 1.9 3.2 1.4 7.9-1.2 10.5-.7.7-1.6 1.2-2.5 1.5l-2.1-4-5.6-2 3.6 6.2h-8.1c-1.6 0-3.2 0-4.7-.8-2.6-1.3-3.7-4.1-3.7-6.8M161.7 18.7c-1.9-2.3-4.5-3.5-7.6-3.5h-16c-2.8 0-5.4.9-7.4 3-3.2 3.4-4.3 8.3-2.8 12.8 1.4 4.4 5.3 7.5 9.9 7.5h16c2.9 0 5.5-.9 7.6-3 4.1-4.4 4.4-12.4.3-16.8m-7.6.3c9 0 9 15.6 0 15.6h-16c-2.8 0-5.3-1.4-6.4-4.1-1.4-3.3-.7-7.9 2.2-10.3 1.6-1.3 3.5-1.2 5.4-1.2H154.1c2.1 0 0 0 0 0zM125.2 22.1c0-3.8-3.1-6.9-6.9-6.9H99.2v23.2h4.2V19H118.3c1.4 0 2.8 1 3.1 2.5.3 1.9-1.1 3.8-3 3.8h-11.9L120 38.4h5.4l-9.6-9.4c1.6 0 3.3.2 4.9-.4 2.7-.9 4.5-3.5 4.5-6.5M312.9 18.3l-.5.5c4.2 0 8.5-.1 12.7-.1l-16.5 13.2c-2.7 2.2.6 5 2.8 5.7 1.8.6 3.8.5 5.8.5H330.8l2.5-3.8h-20.7l16.7-13.9-1.4 1 3.4-2.8 2.3-3.8h-13.2c-2.8.1-5.5 1.3-7.5 3.5M70.1 15.2c-6.2 0-10.4 5.5-10.5 11.4-.1 6.1 4.2 11.8 10.5 11.8h16c2.9 0 5.5-.9 7.6-3 5.3-5.5 4.1-16.4-3.3-19.5-1.8-.7-3.7-.7-5.5-.7H70.1c-3.1 0 0 0 0 0zm-4.9 6.1c1.1-1.6 2.9-2.3 4.9-2.3h16c2.8 0 5.1 1.3 6.3 3.9 2.3 4.7-.2 11.7-6 11.7h-16c-2.8 0-5.3-1.4-6.4-4.1-1.2-2.8-.9-6.8 1.2-9.2M30 14.9h-3.8v23.2h3.7v-12h22.7v12.1h4V14.9h-4v7.5H30.8c-.1 0-.7.1-.8 0-.1-.1 0-.4 0-.5v-1.4-5.6zM97 72.6l-.4 2h-1.2l1.6-7.7h1.5l1.6 7.7h-1.3c-.1-.6-.3-1.3-.4-1.9.1-.2-1.2-.1-1.4-.1zm1.3-1.3c-.2-1-.4-2.1-.6-3.1-.3.9-.4 2.1-.6 3.1h1.2zM106.3 74.4c-.9.6-2.3.4-3-.3-.9-.9-1.1-2.3-1.1-3.5 0-1.1.3-2.4 1.2-3.2.7-.7 2.1-.9 2.9-.3-.1.5-.2.9-.3 1.4-1.6-1-2.6.6-2.7 2-.1 1.5.8 3.6 2.7 2.5.2.5.2.9.3 1.4-.2.1 0 0 0 0z"/><path fill="#1C201F" d="M109.1 74.7c-3.5 0-3.3-8.2.3-7.9 2 .2 2.4 2.8 2.3 4.4-.1 1.5-.8 3.5-2.6 3.5-1.6 0 0 0 0 0zm0-1.3c1.9 0 1.7-5.5-.1-5.2-1.7.3-1.6 5.2.1 5.2.8 0 0 0 0 0zM116.9 71.7v-3.2c-.5 1.9-.8 4-1.2 6h-.9c-.4-2-.8-4-1-6-.3 1.9-.1 4.1-.2 6.1h-1.1l.3-7.7h1.6c.4 1.8.7 3.5 1 5.3.2-.6.3-1.4.4-2 .1-.4.2-.8.2-1.2.2-.7.3-1.4.5-2.1h1.6l.3 7.7h-1.1c-.2 0-.1-.5-.1-.6-.3-.8-.3-1.6-.3-2.3-.1-1 0 0 0 0zM119 67c1.5-.4 3.3-.3 3.7 1.5.3 1.5-.5 3.9-2.5 3.3v2.8h-1.1c-.2 0-.1-.2-.1-.3v-2.5V67c.4-.1 0 0 0 0zm1.2 3.5c1.7.5 2-2.7.1-2.3-.3.1-.1 2-.1 2.3.1.1 0 0 0 0zM124.2 72.6l-.4 2h-1.2l1.6-7.7h1.5l1.6 7.7H126c-.1-.6-.3-1.3-.4-1.9.1-.2-1.2-.1-1.4-.1zm1.4-1.3c-.2-1-.4-2.1-.6-3.1-.3.9-.4 2.1-.6 3.1h1.2zM128.1 74.6v-7.7h1.4c.7 1.8 1.4 3.6 1.9 5.4.1-1.8-.1-3.6-.1-5.4h1.1v7.7h-1.2c-.7-1.9-1.5-3.7-2-5.7-.2.8 0 1.9 0 2.8v2.9h-1.1zM134.7 74.6v-3.1L133 67h1.4c.3 1.1.7 2.2.9 3.3.4-1.1.6-2.2.9-3.3h1.3l-1.7 4.5v3.2c-.3-.1-.7-.1-1.1-.1zM142 74.7c-3.5 0-3.3-8.2.3-7.9 2 .2 2.4 2.8 2.3 4.4-.1 1.5-.8 3.5-2.6 3.5-1.6 0 0 0 0 0zm0-1.3c1.9 0 1.7-5.5-.1-5.2-1.7.3-1.6 5.2.1 5.2.8 0 0 0 0 0zM145.4 66.9h3.2v1.4h-2v1.8h1.9v1.4h-1.9v3.1h-1.2c-.1 0 0-.3 0-.4v-2.6-4.7zM151.7 68.4h-1.4v-1.5h4v1.5h-1.4v6.2c-.3 0-1.2.2-1.2-.2v-2.1-3.9zM156.2 66.9v3h2v-3h1.2v7.7h-1.2v-3.2h-2v3.2H155v-4.7-2.6-.4h1.2zM163.5 71.4h-1.9v1.8h2.2v1.4h-3.3v-7.7h3.2v1.4h-2v1.6h1.8c.1 0 0 1.2 0 1.5zM245.4 74c-1 .5-2.4.7-3.3-.1-1-.9-1.2-2.5-1.1-3.7.1-1.1.4-2.3 1.3-3 .8-.6 2.1-.8 2.9-.2-.1.5-.2.9-.2 1.4-1.4-1-2.7.2-2.8 1.7-.1.8 0 1.7.5 2.4.3.5 1.1.8 1.6.5v-1.6h-.8V70h1.5c.5 0 .3.2.3.6.1 1.1.1 2.3.1 3.4-.3.2 0 0 0 0zM246.3 66.8c1-.3 2.6-.4 3.2.6.6.9.5 2.8-.5 3.3.9.9.7 2.5 1.1 3.6h-.9c-.4 0-.3-.1-.4-.4-.1-.7-.1-2.5-1.1-2.6h-.3v3h-1c-.1 0-.1-.2-.1-.3v-2.5-4.7c.4-.1 0 0 0 0zm1.1 3.3c.5 0 1 0 1.2-.5.3-.6.1-1.6-.7-1.6-.7 0-.5.3-.5.9v1.2zM252.8 74.5c-1.9 0-2.4-2.4-2.4-3.9s.5-4 2.4-4c2.1 0 2.5 2.8 2.4 4.4 0 1.4-.6 3.5-2.4 3.5-1.5 0 0 0 0 0zm.1-1.4c1.8 0 1.7-5.5-.1-5.2-1.6.4-1.6 5.2.1 5.2.7 0 0 0 0 0zM257.2 66.7v4.1c0 .7-.1 1.7.5 2.2 1.1.9 1.3-1.3 1.3-1.9v-4.4h1.1c0 1.8.2 3.9-.1 5.7-.2 1.2-1 2.3-2.4 2.1-1.5-.3-1.6-2.3-1.6-3.5v-2.9-1.3c0-.1 1-.1 1.2-.1zM261.1 66.8c1.5-.4 3.2-.2 3.5 1.5.3 1.4-.5 3.9-2.4 3.3v2.8h-1c-.1 0-.1-.2-.1-.3v-2.5-4.8c.4-.1 0 0 0 0zm1.1 3.5c1.6.6 2-2.6.1-2.3-.2 0-.1 1.9-.1 2.3.1 0 0 0 0 0zM170.6 73.8l8.9-15.4c0 2.3.1 4.7 0 7 0 1.7-1.1 3.3-2.4 4.4-2 1.6-4.1 3.1-6.5 4M189.1 73.8l-8.9-15.4c0 2.3-.1 4.7 0 7 0 1.7 1.1 3.3 2.4 4.4 1.9 1.6 4.1 3.1 6.5 4M189 74.9h-18c2.5-1.8 5.7-3.5 8.9-3.6 3.2-.1 6.6 1.7 9.1 3.6M199.3 73.6l-2.1-6.9h-3.4v.9h.6l-2 5.8h-.9v1.3h3.3v-1h-.6v-1.2h2.7v1h-.5v1.2h3.6v-1.1h-.7zm-4.3-2.4l.7-1.6c.2.5.5 1.1.7 1.6H195zM217.8 73.7l-2.1-7h-3.4v.9h.6l-2 5.9h-.9v1.3h3.3v-1.1h-.6v-1.2h2.7v1.1h-.5V75h3.6v-1.1c0-.2-.6-.1-.7-.2zm-4.4-2.5l.7-1.6c.2.5.5 1.1.7 1.6h-1.4zM200.6 66.8v.9h.7v5.9h-.6V75h2.9v-1.3h-.7v-2.9l1.6 4.1h.8l1.7-4v2.7h-1V75h3.4v-1.3h-.7V68h.9v-1.2h-2.7l-1.8 4c-.4-1.2-.9-2.5-1.3-3.7-.1-.3-.9-.2-1.2-.1-.7-.2-1.4-.2-2-.2zM219 66.6v.9h.7v6h-.6v1.3h2.9v-1.2h-.7v-4l2.9 5.2h2.4v-7.2h.7v-1.1h-3v1h.7v4.3c-.8-1.4-1.6-2.9-2.5-4.3-.3-.4-.3-.9-.8-.9H219zM231.3 66.6c-2.3 0-4 2-4 4.2s1.8 4.2 4 4.2c2.3 0 4-2 4-4.2s-1.7-4.2-4-4.2m0 7.3c-2.4 0-2.4-6.3 0-6.3s2.4 6.3 0 6.3"/></svg>